SplineFontDB: 3.2
FontName: AltStandard-BoldItalic
FullName: Alt Standard Bold Italic
FamilyName: Alt Standard
Weight: Bold
Copyright: Copyright (c) 2006-2011 Alexey Kryukov <amkryukov@gmail.com>,\nwithout Reserved Font Names.\n\nCopyright (c) 2019-2021, Robert Alessi <alessi@robertalessi.net>,\nwithout Reserved Font Names.\n\nCopyright (c) 2023, Antonis Tsolomitis <atsol@aegean.gr>,\nwithout Reserved Font Names.\n\nThis Font Software is licensed under the SIL Open Font License, Version 1.1.\nThis license is copied below, and is also available with a FAQ at:\nhttp://scripts.sil.org/OFL\n\nCopyright (c) 2025, Ioannes Bracledes, without Reserved Font Names.
Version: 2.7a
ItalicAngle: -15.2
UnderlinePosition: -158
UnderlineWidth: 40
Ascent: 762
Descent: 238
InvalidEm: 0
sfntRevision: 0x0002b333
LayerCount: 2
Layer: 0 0 "Atr+AOEA-s" 1
Layer: 1 0 "Anterior" 0
XUID: [1021 568 -1966882350 4883794]
StyleMap: 0x0021
FSType: 0
OS2Version: 4
OS2_WeightWidthSlopeOnly: 0
OS2_UseTypoMetrics: 1
CreationTime: 1300612368
ModificationTime: 1769538018
PfmFamily: 17
TTFWeight: 700
TTFWidth: 5
LineGap: 236
VLineGap: 0
Panose: 2 4 8 3 5 5 5 9 3 3
OS2TypoAscent: 762
OS2TypoAOffset: 0
OS2TypoDescent: -238
OS2TypoDOffset: 0
OS2TypoLinegap: 236
OS2WinAscent: 975
OS2WinAOffset: 0
OS2WinDescent: 309
OS2WinDOffset: 0
HheadAscent: 975
HheadAOffset: 0
HheadDescent: -309
HheadDOffset: 0
OS2SubXSize: 600
OS2SubYSize: 640
OS2SubXOff: 0
OS2SubYOff: 480
OS2SupXSize: 600
OS2SupYSize: 640
OS2SupXOff: 0
OS2SupYOff: 0
OS2StrikeYSize: 40
OS2StrikeYPos: 212
OS2CapHeight: 712
OS2XHeight: 444
OS2FamilyClass: 768
OS2Vendor: 'PfEd'
OS2CodePages: 200000bf.00000000
OS2UnicodeRanges: e0000aff.5a0020ff.02000000.00000000
Lookup: 1 0 0 "'smcp' Lowercase to Small Capitals lookup 0" { "'smcp' Lowercase to Small Capitals lookup 0 subtable"  } ['smcp' ('cyrl' <'dflt' > 'grek' <'dflt' > 'latn' <'dflt' > ) ]

StartChar: .notdef
Encoding: 1114112 -1 0
Width: 456
GlyphClass: 1
Flags: MW
HStem: -15 62<125 348 348 354.5 125 449> 667 62<129 135 135 364>
VStem: 36 64<-15 74 0 74> 44 68<637 729> 381 68<-15 81> 394 63
LayerCount: 2
Fore
SplineSet
36 0 m 1xe8
 44 714 l 1
 44 729 l 1
 458 729 l 1
 457 714 l 1xd4
 449 0 l 1
 449 -15 l 1
 36 -15 l 1
 36 0 l 1xe8
100 77 m 1xe0
 100 74 l 2
 100 44 119 53 125 47 c 1
 348 47 l 2
 361 47 381 48 381 81 c 2xe8
 394 633 l 1
 394 635 l 2
 394 666 376 667 364 667 c 2
 135 667 l 2
 123 667 112 665 112 637 c 2xd4
 100 77 l 1xe0
EndSplineSet
EndChar

StartChar: exclam
Encoding: 33 33 2
Width: 270
GlyphClass: 2
Flags: MW
HStem: -27 154<94 138>
VStem: 39 154<28 72> 187 152
LayerCount: 2
Fore
SplineSet
110 143 m 1xa0
 123 217 136 290 149 364 c 0
 169 472 168 523 187 627 c 0
 200 689 238 709 272 709 c 0
 318 709 339 670 339 624 c 0
 339 561 274 445 236 341 c 2
 166 153 l 1
 163 143 l 1
 110 143 l 1xa0
39 50 m 0xc0
 39 94 72 127 116 127 c 0
 160 127 193 94 193 50 c 0
 193 6 160 -27 116 -27 c 0
 72 -27 39 6 39 50 c 0xc0
EndSplineSet
EndChar

StartChar: quotedbl
Encoding: 34 34 3
Width: 354
GlyphClass: 2
Flags: MW
HStem: 505 240<155 253.5 155 253.5 215 361 215 309>
VStem: 178 104 332 104
LayerCount: 2
Fore
SplineSet
155 505 m 1
 164 558 170 614 178 668 c 0
 179 680 187 745 243 745 c 0
 264 745 282 729 282 704 c 0
 282 689 276 674 273 666 c 2
 210 514 l 1
 207 505 l 1
 155 505 l 1
309 505 m 1
 318 558 324 614 332 668 c 0
 333 680 341 745 397 745 c 0
 418 745 436 729 436 704 c 0
 436 689 430 674 427 666 c 2
 364 514 l 1
 361 505 l 1
 309 505 l 1
EndSplineSet
EndChar

StartChar: numbersign
Encoding: 35 35 4
Width: 638
GlyphClass: 2
Flags: MW
HStem: -15 21G<67 139 67 67 241 310 241 241> 181 70<38 179 57 151 57 220 248 321 421 563> 435 70<126 257 107 286 354 428 126 326 525 635> 679 20G<365 434 434 434 536 607 607 607>
LayerCount: 2
Fore
SplineSet
248 251 m 1
 352 251 l 1
 428 435 l 1
 326 435 l 1
 248 251 l 1
38 181 m 1
 43 201 49 220 54 240 c 2
 57 251 l 1
 179 251 l 1
 257 435 l 1
 107 435 l 1
 112 455 118 474 123 494 c 2
 126 505 l 1
 286 505 l 1
 361 690 l 1
 365 699 l 1
 434 699 l 1
 407 635 381 570 354 505 c 1
 456 505 l 1
 532 690 l 1
 536 699 l 1
 607 699 l 1
 579 635 552 570 525 505 c 1
 654 505 l 1
 649 485 643 466 638 446 c 2
 635 435 l 1
 497 435 l 1
 421 251 l 1
 582 251 l 1
 577 231 571 212 566 192 c 2
 563 181 l 1
 390 181 l 1
 314 -6 l 1
 310 -15 l 1
 241 -15 l 1
 268 50 294 116 321 181 c 1
 220 181 l 1
 143 -6 l 1
 139 -15 l 1
 67 -15 l 1
 151 181 l 1
 38 181 l 1
EndSplineSet
EndChar

StartChar: dollar
Encoding: 36 36 5
Width: 625
GlyphClass: 2
Flags: MW
HStem: 138 125<135 161 115 167.5> 426 123
VStem: 49 78<98.5 175> 159 93<509 544.5> 459 108<154.5 206> 577 74<566 574.5 509 584.5>
LayerCount: 2
Fore
SplineSet
404 266 m 1
 338 42 l 1
 416 64 459 111 459 174 c 0
 459 238 436 250 404 266 c 1
423 638 m 1
 355 406 l 1
 378 394 l 1
 450 638 l 1
 423 638 l 1
324 324 m 1
 242 46 l 1
 266 46 l 1
 345 312 l 1
 324 324 l 1
352 637 m 1
 298 618 252 583 252 529 c 0
 252 489 269 468 288 458 c 2
 298 453 l 1
 352 637 l 1
143 138 m 0
 127 138 127 113 127 112 c 0
 127 85 145 61 178 45 c 1
 265 336 l 1
 247 345 l 2
 201 368 159 402 159 485 c 0
 159 604 275 672 373 693 c 1
 390 751 l 1
 393 762 l 1
 459 762 l 1
 454 741 447 721 441 700 c 1
 451 700 459 699 467 699 c 1
 483 751 l 1
 486 762 l 1
 553 762 l 1
 547 737 540 713 533 688 c 1
 606 662 651 603 651 546 c 0
 651 472 608 426 548 426 c 0
 526 426 480 438 480 482 c 0
 480 518 508 543 543 549 c 0
 569 554 577 556 577 576 c 0
 577 593 558 622 514 640 c 1
 437 379 l 1
 462 366 l 2
 515 339 567 303 567 206 c 0
 567 103 465 13 319 -10 c 1
 301 -69 l 1
 298 -80 l 1
 229 -80 l 1
 236 -59 242 -37 248 -16 c 1
 242 -16 l 2
 236 -16 230 -16 224 -15 c 1
 208 -69 l 1
 205 -80 l 1
 139 -80 l 1
 146 -54 153 -29 160 -4 c 1
 85 24 49 90 49 147 c 0
 49 203 86 263 144 263 c 0
 178 263 217 245 217 201 c 0
 217 170 192 138 143 138 c 0
EndSplineSet
EndChar

StartChar: percent
Encoding: 37 37 6
Width: 851
GlyphClass: 2
Flags: MW
HStem: -16 70<608.5 649.5 608.5 652.5> 305 54<669 707> 325 70<260.5 295.5> 539 39<500.5 529.5> 661 39<353 353>
VStem: 128 102<435 461 461 462 435 505> 480 98<111 113 113 116 116 116> 740 58<190 264 179 267>
LayerCount: 2
Fore
SplineSet
353 661 m 1xbf
 289 659 230 571 230 462 c 2
 230 461 l 2
 230 409 253 395 268 395 c 0
 329 395 384 477 391 581 c 1
 365 603 352 627 352 650 c 2
 352 652 l 2
 352 655 353 661 353 661 c 1xbf
599 559 m 1
 586 554 549 539 510 539 c 0
 485 539 463 544 444 550 c 1
 429 452 353 325 238 325 c 0
 173 325 128 383 128 457 c 0
 128 553 207 700 342 700 c 0
 396 700 434 658 444 600 c 1
 452 589 490 578 511 578 c 0
 578 578 661 624 707 678 c 0
 710 682 728 706 736 718 c 2
 746 732 l 1
 757 720 767 709 778 697 c 2
 786 687 l 1
 593 452 399 217 205 -18 c 1
 195 -31 l 1
 185 -20 174 -8 164 3 c 2
 155 13 l 1
 599 559 l 1
585 -16 m 0
 521 -16 480 39 480 111 c 2
 480 116 l 2
 483 212 562 359 689 359 c 0xdf
 754 359 798 301 798 227 c 0
 798 131 720 -16 585 -16 c 0
700 305 m 0
 638 305 581 221 578 117 c 2
 578 113 l 2
 578 67 601 54 616 54 c 0
 683 54 740 138 740 242 c 0
 740 292 714 305 700 305 c 0
EndSplineSet
EndChar

StartChar: ampersand
Encoding: 38 38 7
Width: 689
GlyphClass: 2
Flags: MW
HStem: -33 60<200.5 225.5 435 470.5> 417 56<634 641> 657 60<512.5 537.5>
VStem: 41 125<82.5 115 115 124 82.5 215.5> 323 93<125 131 131 131> 330 93<385 423> 554 60<612 613 613 615 612 622.5> 644 84<380.5 415.5>
LayerCount: 2
Fore
SplineSet
166 124 m 2xf7
 166 115 l 2
 166 50 186 27 215 27 c 0
 260 27 296 64 325 99 c 1
 324 107 323 116 323 125 c 2
 323 131 l 1xfb
 330 385 l 1
 316 379 l 2
 223 342 167 243 166 124 c 2xf7
425 478 m 1
 451 488 l 2
 491 502 552 536 554 611 c 2
 554 613 l 2
 554 632 548 657 527 657 c 0
 498 657 435 619 425 478 c 1
620 367 m 0
 620 397 644 410 644 415 c 0
 644 416 643 417 639 417 c 0
 629 417 618 407 596 379 c 0
 536 297 476 216 416 135 c 1
 416 113 l 2xfb
 416 64 422 27 448 27 c 0
 493 27 585 165 608 209 c 2
 615 223 l 1
 626 217 636 211 647 205 c 2
 659 198 l 1
 653 185 l 2
 630 139 543 -33 438 -33 c 0
 377 -33 349 5 337 43 c 1
 305 8 257 -33 194 -33 c 0
 115 -33 41 22 41 129 c 0
 41 302 226 402 290 425 c 2
 335 443 l 1
 351 567 418 717 530 717 c 0
 600 717 614 650 614 615 c 2
 614 612 l 2
 611 502 511 457 468 441 c 2
 423 423 l 1xf7
 417 214 l 1
 464 279 510 344 556 410 c 0
 568 427 600 473 649 473 c 0
 703 473 728 432 728 390 c 0
 728 371 718 322 667 322 c 0
 653 322 620 330 620 367 c 0
EndSplineSet
EndChar

StartChar: quotesingle
Encoding: 39 39 8
Width: 225
GlyphClass: 2
Flags: MW
HStem: 505 240<155 253.5 155 253.5>
VStem: 178 104
LayerCount: 2
Fore
SplineSet
155 505 m 1
 164 558 170 614 178 668 c 0
 179 680 187 745 243 745 c 0
 264 745 282 729 282 704 c 0
 282 689 276 674 273 666 c 2
 210 514 l 1
 207 505 l 1
 155 505 l 1
EndSplineSet
EndChar

StartChar: parenleft
Encoding: 40 40 9
Width: 361
GlyphClass: 2
Flags: MW
VStem: 67 72<44.5 144.5 44.5 222.5>
LayerCount: 2
Fore
SplineSet
67 92 m 0
 67 353 229 601 419 742 c 1
 429 750 l 1
 441 740 452 728 463 717 c 2
 474 705 l 1
 461 694 l 1
 170 456 139 197 139 92 c 0
 139 -3 172 -96 226 -165 c 2
 235 -177 l 1
 217 -191 199 -205 180 -218 c 1
 171 -208 l 2
 113 -140 67 -24 67 92 c 0
EndSplineSet
Substitution2: "'sups' Superscript lookup 20 subtable" uni207D
Substitution2: "'subs' Subscript lookup 19 subtable" uni208D
EndChar

StartChar: parenright
Encoding: 41 41 10
Width: 355
GlyphClass: 2
Flags: MW
VStem: 255 72<387.5 487.5>
LayerCount: 2
Fore
SplineSet
-68 -162 m 1
 224 76 255 335 255 440 c 0
 255 535 222 628 168 697 c 2
 159 709 l 1
 177 723 195 737 214 750 c 1
 223 740 l 2
 281 672 327 556 327 440 c 0
 327 179 165 -69 -25 -210 c 2
 -36 -218 l 1
 -81 -173 l 1
 -68 -162 l 1
EndSplineSet
Substitution2: "'sups' Superscript lookup 20 subtable" uni207E
Substitution2: "'subs' Subscript lookup 19 subtable" uni208E
EndChar

StartChar: asterisk
Encoding: 42 42 11
Width: 544
GlyphClass: 2
Flags: MW
HStem: 359 114 517 114 695 20G<328.5 353>
VStem: 284 95<330 333 333 335 315 349> 293 95<655 657 657 660 641 675> 310 49<441 449 441 449>
LayerCount: 2
Fore
SplineSet
200 359 m 0xe4
 178 359 148 377 148 411 c 0
 148 448 182 467 228 473 c 0
 249 475 268 483 288 495 c 1
 267 508 250 514 228 517 c 0
 182 523 148 542 148 579 c 0
 148 604 169 631 200 631 c 0
 249 631 261 579 313 541 c 1
 313 549 l 2
 310 608 293 624 293 655 c 2
 293 657 l 2
 293 693 315 715 342 715 c 0
 364 715 388 699 388 660 c 2
 388 657 l 2xe8
 388 625 368 612 362 549 c 1
 362 541 l 1
 382 556 397 570 409 586 c 0
 427 613 448 631 472 631 c 0
 494 631 524 612 524 579 c 0
 524 542 490 523 444 517 c 0
 423 515 404 507 384 495 c 1
 405 482 422 476 444 473 c 0
 490 467 524 448 524 411 c 0
 524 387 503 359 472 359 c 0
 446 359 423 377 404 404 c 0
 393 419 377 435 359 449 c 1
 359 441 l 2xe4
 362 382 379 366 379 335 c 2
 379 333 l 2
 379 297 357 275 330 275 c 0
 308 275 284 291 284 330 c 2
 284 333 l 2xf0
 284 365 304 378 310 441 c 1
 310 449 l 1
 290 434 275 420 263 404 c 0
 245 377 224 359 200 359 c 0xe4
EndSplineSet
EndChar

StartChar: plus
Encoding: 43 43 12
Width: 865
GlyphClass: 2
Flags: MW
HStem: 229 70<45 417 45 415 45 482 484 854> 679 20G<428 494 494 494>
VStem: 404 67<-171 -156> 427 67<684 699>
LayerCount: 2
Fore
SplineSet
45 229 m 1xe0
 45 299 l 1
 417 299 l 1
 427 684 l 1
 428 699 l 1
 494 699 l 1
 494 684 l 1xd0
 484 299 l 1
 854 299 l 1
 854 229 l 1
 482 229 l 1
 471 -156 l 1
 471 -171 l 1
 404 -171 l 1
 405 -156 l 1
 415 229 l 1
 45 229 l 1xe0
EndSplineSet
Substitution2: "'sups' Superscript lookup 20 subtable" uni207A
Substitution2: "'subs' Subscript lookup 19 subtable" uni208A
EndChar

StartChar: comma
Encoding: 44 44 13
Width: 271
GlyphClass: 2
Flags: MW
HStem: 10 145<97 116.5>
VStem: 128 71<-18 -0.5>
LayerCount: 2
Fore
SplineSet
128 -5 m 0
 128 4 128 10 105 10 c 0
 64 10 43 46 43 77 c 0
 43 124 75 155 119 155 c 0
 177 155 199 94 199 59 c 0
 199 -95 81 -163 34 -182 c 2
 21 -187 l 1
 0 -145 l 1
 13 -139 l 2
 64 -113 128 -64 128 -5 c 0
EndSplineSet
EndChar

StartChar: hyphen
Encoding: 45 45 14
Width: 361
GlyphClass: 2
Flags: MW
HStem: 209 86<97 302 126 280>
VStem: 43 48<181 196 181 220> 315 48<308 323 284 323>
LayerCount: 2
Fore
SplineSet
43 196 m 2
 43 244 70 295 126 295 c 2
 302 295 l 2
 315 295 315 295 315 308 c 2
 315 323 l 1
 363 323 l 1
 363 308 l 2
 363 260 335 209 280 209 c 2
 104 209 l 2
 90 209 91 209 91 196 c 2
 91 181 l 1
 43 181 l 1
 43 196 l 2
EndSplineSet
EndChar

StartChar: period
Encoding: 46 46 15
Width: 270
GlyphClass: 2
Flags: MW
HStem: -27 154<97 141>
VStem: 42 154<28 72>
LayerCount: 2
Fore
SplineSet
42 50 m 0
 42 94 75 127 119 127 c 0
 163 127 196 94 196 50 c 0
 196 6 163 -27 119 -27 c 0
 75 -27 42 6 42 50 c 0
EndSplineSet
EndChar

StartChar: slash
Encoding: 47 47 16
Width: 418
GlyphClass: 2
Flags: W
LayerCount: 2
Fore
SplineSet
37 -213 m 1
 138 104 240 419 341 735 c 1
 345 745 l 1
 416 745 l 1
 315 428 213 113 112 -203 c 1
 108 -213 l 1
 37 -213 l 1
EndSplineSet
Substitution2: "'frac' Diagonal Fractions lookup 28 subtable" uni2215.frac
EndChar

StartChar: zero
Encoding: 48 48 17
Width: 598
GlyphClass: 2
Flags: MW
HStem: -16 62<215 276.5 215 344> 638 62<389.5 449>
VStem: 74 106<112.5 357> 484 106<327 541 327 570.5>
LayerCount: 2
Fore
SplineSet
235 -16 m 0
 116 -16 74 108 74 259 c 0
 74 455 211 700 428 700 c 0
 547 700 590 576 590 425 c 0
 590 229 453 -16 235 -16 c 0
252 436 m 0
 215 337 182 226 180 153 c 2
 180 142 l 2
 180 83 195 46 235 46 c 0
 318 46 368 132 412 248 c 0
 449 347 482 460 484 530 c 2
 484 541 l 2
 484 600 469 638 429 638 c 0
 350 638 295 552 252 436 c 0
EndSplineSet
Substitution2: "'lnum' Lining Figures lookup 51 subtable" zero
Substitution2: "'tnum' Tabular Numbers lookup 50 subtable" zero
Substitution2: "'onum' Oldstyle Figures lookup 49 subtable" zero.oldstyle
Substitution2: "'pnum' Proportional Numbers lookup 48 subtable" zero.prop
Substitution2: "'sups' Superscript lookup 20 subtable" zerosuperior
Substitution2: "'subs' Subscript lookup 19 subtable" zeroinferior
AlternateSubs2: "'aalt' Access All Alternates lookup 2 subtable" zerosuperior zeroinferior
EndChar

StartChar: one
Encoding: 49 49 18
Width: 619
GlyphClass: 2
Flags: MW
HStem: -30 62<48 169 64 169 169 177.5 336 445> 487 48<212 231> 664 20G<455 513 513 513>
VStem: 455 58<684 684>
LayerCount: 2
Fore
SplineSet
48 -30 m 1
 53 -13 57 4 61 21 c 2
 64 32 l 1
 169 32 l 2
 186 32 189 34 192 47 c 2
 340 519 l 1
 305 506 267 497 231 487 c 2
 214 482 l 1
 210 494 205 505 201 516 c 2
 195 531 l 1
 212 535 l 2
 332 566 409 604 455 684 c 1
 513 684 l 1
 363 146 329 40 329 33 c 0
 331 32 333 32 336 32 c 2
 460 32 l 1
 456 13 l 1
 448 -19 l 1
 445 -30 l 1
 48 -30 l 1
EndSplineSet
Substitution2: "'lnum' Lining Figures lookup 51 subtable" one
Substitution2: "'tnum' Tabular Numbers lookup 50 subtable" one
Substitution2: "'onum' Oldstyle Figures lookup 49 subtable" one.oldstyle
Substitution2: "'pnum' Proportional Numbers lookup 48 subtable" one.prop
Substitution2: "'sups' Superscript lookup 20 subtable" onesuperior
Substitution2: "'subs' Subscript lookup 19 subtable" oneinferior
AlternateSubs2: "'aalt' Access All Alternates lookup 2 subtable" onesuperior oneinferior
EndChar

StartChar: two
Encoding: 50 50 19
Width: 601
GlyphClass: 2
Flags: MW
HStem: -17 134<302 363.5 302 380.5> -8 21G<66.5 98.5> 638 62<344.5 417.5>
VStem: 31 72<26 99.5> 155 75<528.5 550 528.5 555> 476 125<530 535 535 560.5>
LayerCount: 2
Fore
SplineSet
104 79 m 1xbc
 120 63 127 56 127 38 c 0
 127 20 115 -8 82 -8 c 0x7c
 51 -8 31 13 31 39 c 0
 31 124 81 202 183 251 c 1
 320 327 l 2
 393 368 474 451 476 530 c 2
 476 535 l 2
 476 586 456 638 379 638 c 0
 310 638 230 568 230 532 c 0
 230 525 232 516 233 515 c 0
 234 515 236 516 242 518 c 1
 242 519 l 1
 243 519 l 1
 254 524 264 527 276 527 c 0
 315 527 333 498 333 471 c 2
 333 469 l 2
 332 430 297 395 249 395 c 0
 204 395 155 433 155 494 c 0
 155 616 283 700 389 700 c 0
 517 700 601 624 601 516 c 0
 601 378 433 309 353 273 c 2
 239 223 l 2
 224 217 180 197 151 168 c 1
 214 158 263 117 341 117 c 0
 386 117 431 136 448 176 c 0
 456 194 465 213 473 231 c 1
 521 231 l 1
 518 213 l 2
 501 126 447 -17 314 -17 c 0
 199 -17 180 114 128 114 c 2
 127 114 l 2
 107 114 103 114 103 85 c 0
 103 82 104 79 104 79 c 1xbc
EndSplineSet
Substitution2: "'lnum' Lining Figures lookup 51 subtable" two
Substitution2: "'tnum' Tabular Numbers lookup 50 subtable" two
Substitution2: "'onum' Oldstyle Figures lookup 49 subtable" two.oldstyle
Substitution2: "'pnum' Proportional Numbers lookup 48 subtable" two.prop
Substitution2: "'sups' Superscript lookup 20 subtable" twosuperior
Substitution2: "'subs' Subscript lookup 19 subtable" twoinferior
AlternateSubs2: "'aalt' Access All Alternates lookup 2 subtable" twosuperior twoinferior
EndChar

StartChar: three
Encoding: 51 51 20
Width: 601
GlyphClass: 2
Flags: MW
HStem: -16 62<203.5 284 203.5 299> 111 124<125 186.5> 313 93<260 265.5> 351 55<331.5 362 362 362.5> 462 111<271 271 290 293.5> 638 62<364 427.5>
VStem: 51 72<84 109 84 164.5> 186 85<570 573 570 594> 393 130<159 290 159 306.5> 479 114<565 568 568 576 483 588>
LayerCount: 2
Fore
SplineSet
523 231 m 0xdf80
 523 87 376 -16 222 -16 c 0
 151 -16 51 30 51 126 c 0
 51 203 114 235 161 235 c 0
 212 235 229 196 229 168 c 2
 229 166 l 2
 228 130 201 101 163 101 c 0
 141 101 136 111 126 111 c 0
 124 111 123 112 123 106 c 0
 123 62 180 46 227 46 c 0
 341 46 389 203 393 281 c 1
 393 290 l 2
 393 323 387 351 338 351 c 0xdf80
 325 351 320 349 309 339 c 0
 297 328 278 313 253 313 c 0
 225 313 202 328 202 354 c 0
 202 377 222 406 260 406 c 2xef80
 362 406 l 2
 402 406 439 445 455 469 c 0
 474 498 478 533 479 565 c 2
 479 568 l 2
 479 608 459 638 396 638 c 0
 332 638 271 604 271 573 c 2
 271 570 l 1
 280 572 287 573 293 573 c 0
 327 573 342 552 342 527 c 2
 342 525 l 2
 341 494 317 462 270 462 c 0
 219 462 186 500 186 543 c 0
 186 645 306 700 404 700 c 0
 514 700 593 626 593 526 c 0xdf40
 593 440 511 387 448 368 c 1
 486 345 523 301 523 231 c 0xdf80
EndSplineSet
Substitution2: "'lnum' Lining Figures lookup 51 subtable" three
Substitution2: "'tnum' Tabular Numbers lookup 50 subtable" three
Substitution2: "'onum' Oldstyle Figures lookup 49 subtable" three.oldstyle
Substitution2: "'pnum' Proportional Numbers lookup 48 subtable" three.prop
Substitution2: "'sups' Superscript lookup 20 subtable" threesuperior
Substitution2: "'subs' Subscript lookup 19 subtable" threeinferior
AlternateSubs2: "'aalt' Access All Alternates lookup 2 subtable" threesuperior threeinferior
EndChar

StartChar: four
Encoding: 52 52 21
Width: 615
GlyphClass: 2
Flags: MW
HStem: -15 62<133 233 233 240 397 497 116 233> 193 66<173 292 450 590> 674 20G<486 596 596 596>
VStem: 461 55<481 481> 483 109<676 683>
LayerCount: 2
Fore
SplineSet
397 47 m 2xf0
 515 47 l 1
 497 -15 l 1
 116 -15 l 1
 133 47 l 1
 233 47 l 2
 247 47 250 49 254 62 c 2
 292 193 l 1
 63 193 l 1
 79 250 l 1
 121 285 160 321 202 356 c 2
 304 441 l 1
 377 510 468 628 483 683 c 2
 486 694 l 1
 596 694 l 1
 592 676 l 2xe8
 577 608 506 545 452 499 c 2
 173 259 l 1
 311 259 l 1
 339 345 l 1
 383 371 436 441 461 481 c 1
 516 481 l 1
 450 259 l 1
 608 259 l 1
 590 193 l 1
 431 193 l 1
 393 64 l 2
 389 52 391 47 397 47 c 2xf0
EndSplineSet
Substitution2: "'lnum' Lining Figures lookup 51 subtable" four
Substitution2: "'tnum' Tabular Numbers lookup 50 subtable" four
Substitution2: "'onum' Oldstyle Figures lookup 49 subtable" four.oldstyle
Substitution2: "'pnum' Proportional Numbers lookup 48 subtable" four.prop
Substitution2: "'sups' Superscript lookup 20 subtable" foursuperior
Substitution2: "'subs' Subscript lookup 19 subtable" fourinferior
AlternateSubs2: "'aalt' Access All Alternates lookup 2 subtable" foursuperior fourinferior
EndChar

StartChar: five
Encoding: 53 53 22
Width: 607
GlyphClass: 2
Flags: MW
HStem: -16 62<207 275> 88 134<144 148> 403 64<340.5 365.5> 546 80<413.5 464 413.5 471.5>
VStem: 59 74<80 84.5 71 149> 418 129<316 320 320 345 257 345.5>
LayerCount: 2
Fore
SplineSet
235 -16 m 0
 130 -16 59 40 59 120 c 0
 59 178 101 222 152 222 c 0
 199 222 229 195 232 150 c 0
 231 117 205 87 161 87 c 0
 155 87 150 88 146 88 c 0
 142 88 138 87 136 87 c 0
 133 85 133 85 133 84 c 0
 133 58 184 46 230 46 c 0
 371 46 416 240 418 316 c 2
 418 320 l 2
 418 371 398 403 333 403 c 0
 324 403 256 400 226 313 c 0
 220 294 205 271 178 271 c 0
 167 271 134 275 134 310 c 0
 134 361 188 381 202 425 c 2
 257 580 l 2
 268 611 272 629 272 646 c 0
 272 652 271 659 269 666 c 2
 266 676 l 1
 302 697 l 1
 314 705 l 1
 324 695 l 2
 345 671 391 626 436 626 c 0
 492 626 533 644 571 694 c 2
 581 708 l 1
 590 699 600 691 609 682 c 2
 617 674 l 1
 611 665 l 2
 581 620 528 546 415 546 c 0
 375 546 344 561 323 576 c 1
 280 449 l 1
 304 460 330 467 351 467 c 0
 473 467 547 400 547 290 c 0
 547 224 517 133 450 70 c 0
 393 18 315 -16 235 -16 c 0
EndSplineSet
Substitution2: "'lnum' Lining Figures lookup 51 subtable" five
Substitution2: "'tnum' Tabular Numbers lookup 50 subtable" five
Substitution2: "'onum' Oldstyle Figures lookup 49 subtable" five.oldstyle
Substitution2: "'pnum' Proportional Numbers lookup 48 subtable" five.prop
Substitution2: "'sups' Superscript lookup 20 subtable" fivesuperior
Substitution2: "'subs' Subscript lookup 19 subtable" fiveinferior
AlternateSubs2: "'aalt' Access All Alternates lookup 2 subtable" fivesuperior fiveinferior
EndChar

StartChar: six
Encoding: 54 54 23
Width: 601
GlyphClass: 2
Flags: MW
HStem: -16 62<248.5 307.5> 375 66<351 380> 472 128<495 495> 638 62<417 475.5 417 478.5>
VStem: 89 114<102 262> 423 119<288 293 293 314.5 230 318> 506 75<549 615 549 615.5>
LayerCount: 2
Fore
SplineSet
506 615 m 2xfa
 506 616 503 638 454 638 c 0
 380 638 281 540 242 385 c 1
 281 422 328 441 374 441 c 0
 483 441 542 362 542 267 c 0xfc
 542 193 506 116 457 64 c 0
 427 36 357 -16 258 -16 c 0
 164 -16 89 58 89 217 c 0
 89 307 122 436 190 540 c 1
 272 654 376 700 458 700 c 0
 493 700 524 686 543 667 c 0
 573 642 581 609 581 580 c 0
 581 518 543 472 495 472 c 0
 465 472 436 493 436 528 c 2
 436 530 l 2
 438 581 478 596 494 600 c 0
 502 602 505 605 506 610 c 2
 506 615 l 2xfa
268 46 m 0
 357 46 419 171 423 288 c 1
 423 293 l 2
 423 343 401 375 359 375 c 0
 316 375 272 348 230 264 c 0
 211 227 204 173 203 131 c 2
 203 127 l 2
 203 77 229 46 268 46 c 0
EndSplineSet
Substitution2: "'lnum' Lining Figures lookup 51 subtable" six
Substitution2: "'tnum' Tabular Numbers lookup 50 subtable" six
Substitution2: "'onum' Oldstyle Figures lookup 49 subtable" six.oldstyle
Substitution2: "'pnum' Proportional Numbers lookup 48 subtable" six.prop
Substitution2: "'sups' Superscript lookup 20 subtable" sixsuperior
Substitution2: "'subs' Subscript lookup 19 subtable" sixinferior
AlternateSubs2: "'aalt' Access All Alternates lookup 2 subtable" sixsuperior sixinferior
EndChar

StartChar: seven
Encoding: 55 55 24
Width: 616
GlyphClass: 2
Flags: MW
HStem: -17 21G<197.5 245> 454 21G<144 192 144 144> 587 105<217 338.5> 682 20G<221 272 272 272>
VStem: 142 163<73 94 73 109> 574 68<585.5 631>
LayerCount: 2
Fore
SplineSet
549 580 m 0xec
 552 580 574 580 574 591 c 0
 574 595 574 595 570 597 c 2
 569 597 l 1
 568 598 l 2
 560 604 548 615 548 636 c 0
 548 667 572 681 590 681 c 0
 634 681 642 641 642 621 c 0
 642 580 607 538 558 485 c 1
 514 430 394 331 337 213 c 0
 308 153 305 115 305 73 c 0
 303 20 269 -17 221 -17 c 0
 174 -17 142 13 142 66 c 0
 142 152 258 273 329 340 c 2
 499 508 l 1
 496 508 l 2
 403 508 368 587 309 587 c 0
 271 587 249 561 217 502 c 0
 209 486 200 470 192 454 c 1
 144 454 l 1
 167 535 193 612 217 692 c 1xec
 221 702 l 1
 272 702 l 1xdc
 266 683 l 2
 263 674 261 666 261 658 c 0
 261 654 262 649 263 648 c 0
 293 671 330 692 380 692 c 0
 478 692 497 580 549 580 c 0xec
EndSplineSet
Substitution2: "'lnum' Lining Figures lookup 51 subtable" seven
Substitution2: "'tnum' Tabular Numbers lookup 50 subtable" seven
Substitution2: "'onum' Oldstyle Figures lookup 49 subtable" seven.oldstyle
Substitution2: "'pnum' Proportional Numbers lookup 48 subtable" seven.prop
Substitution2: "'sups' Superscript lookup 20 subtable" sevensuperior
Substitution2: "'subs' Subscript lookup 19 subtable" seveninferior
AlternateSubs2: "'aalt' Access All Alternates lookup 2 subtable" sevensuperior seveninferior
EndChar

StartChar: eight
Encoding: 56 56 25
Width: 601
GlyphClass: 2
Flags: MW
HStem: -16 62<223.5 307.5 223.5 312> 638 62<389 450.5>
VStem: 66 74<135.5 179> 182 108<487.5 505 505 511 487.5 555> 411 109<127.5 176> 528 84<508.5 549.5>
LayerCount: 2
Fore
SplineSet
190 291 m 0
 164 267 140 225 140 177 c 0
 140 94 178 46 269 46 c 0
 346 46 411 98 411 157 c 0
 411 195 402 231 379 252 c 2
 283 335 l 1
 249 327 222 319 190 291 c 0
520 198 m 0
 520 39 369 -16 255 -16 c 0
 171 -16 66 42 66 168 c 0
 66 190 73 324 237 362 c 1
 207 392 182 437 182 491 c 0
 182 619 298 700 415 700 c 0
 528 700 612 642 612 536 c 0
 612 481 588 419 541 384 c 0
 516 366 481 349 450 340 c 1
 497 298 520 255 520 198 c 0
409 638 m 0
 369 638 292 612 290 511 c 2
 290 505 l 2
 290 470 299 457 319 439 c 2
 401 364 l 1
 479 379 528 446 528 507 c 0
 528 592 492 638 409 638 c 0
EndSplineSet
Substitution2: "'lnum' Lining Figures lookup 51 subtable" eight
Substitution2: "'tnum' Tabular Numbers lookup 50 subtable" eight
Substitution2: "'onum' Oldstyle Figures lookup 49 subtable" eight.oldstyle
Substitution2: "'pnum' Proportional Numbers lookup 48 subtable" eight.prop
Substitution2: "'sups' Superscript lookup 20 subtable" eightsuperior
Substitution2: "'subs' Subscript lookup 19 subtable" eightinferior
AlternateSubs2: "'aalt' Access All Alternates lookup 2 subtable" eightsuperior eightinferior
EndChar

StartChar: nine
Encoding: 57 57 26
Width: 607
GlyphClass: 2
Flags: MW
HStem: -16 62<195 247 195 259> 84 128 243 66<291 322> 638 62<363 424.5>
VStem: 88 77<69.5 70.5 69.5 135> 127 120<369.5 393 393 396 367.5 454> 472 116<422 556 422 581.5>
LayerCount: 2
Fore
SplineSet
218 -16 m 0xf6
 172 -16 88 11 88 104 c 0
 88 166 126 212 174 212 c 0
 206 212 240 190 240 154 c 0
 239 103 196 88 179 84 c 0
 170 82 166 79 166 74 c 0
 166 72 165 71 165 70 c 0xfa
 165 69 168 46 222 46 c 0
 272 46 379 99 435 299 c 1
 394 262 346 243 298 243 c 0
 186 243 127 322 127 417 c 0
 127 491 163 568 212 620 c 0
 242 648 312 700 414 700 c 0
 512 700 588 626 588 467 c 0
 588 377 554 248 486 144 c 1
 404 30 300 -16 218 -16 c 0xf6
405 638 m 0
 309 638 249 507 247 396 c 2
 247 393 l 2xf6
 247 342 269 309 313 309 c 0
 357 309 403 336 445 420 c 0
 464 457 472 511 472 553 c 2
 472 556 l 2
 472 607 444 638 405 638 c 0
EndSplineSet
Substitution2: "'lnum' Lining Figures lookup 51 subtable" nine
Substitution2: "'tnum' Tabular Numbers lookup 50 subtable" nine
Substitution2: "'onum' Oldstyle Figures lookup 49 subtable" nine.oldstyle
Substitution2: "'pnum' Proportional Numbers lookup 48 subtable" nine.prop
Substitution2: "'sups' Superscript lookup 20 subtable" ninesuperior
Substitution2: "'subs' Subscript lookup 19 subtable" nineinferior
AlternateSubs2: "'aalt' Access All Alternates lookup 2 subtable" ninesuperior nineinferior
EndChar

StartChar: colon
Encoding: 58 58 27
Width: 270
GlyphClass: 2
Flags: MW
HStem: -27 154<97 141> 317 154<189 233>
VStem: 42 154<28 72> 134 154<372 416>
LayerCount: 2
Fore
SplineSet
42 50 m 0xe0
 42 94 75 127 119 127 c 0
 163 127 196 94 196 50 c 0
 196 6 163 -27 119 -27 c 0
 75 -27 42 6 42 50 c 0xe0
134 394 m 0xd0
 134 438 167 471 211 471 c 0
 255 471 288 438 288 394 c 0
 288 350 255 317 211 317 c 0
 167 317 134 350 134 394 c 0xd0
EndSplineSet
EndChar

StartChar: semicolon
Encoding: 59 59 28
AltUni2: 00037e.ffffffff.0 00037e.ffffffff.0
Width: 271
GlyphClass: 2
Flags: MW
HStem: 10 145<97 116.5> 317 154<189 233>
VStem: 128 71<-18 -0.5> 134 154<372 416>
LayerCount: 2
Fore
SplineSet
128 -5 m 0xe0
 128 4 128 10 105 10 c 0
 64 10 43 46 43 77 c 0
 43 124 75 155 119 155 c 0
 177 155 199 94 199 59 c 0
 199 -95 81 -163 34 -182 c 2
 21 -187 l 1
 0 -145 l 1
 13 -139 l 2
 64 -113 128 -64 128 -5 c 0xe0
134 394 m 0xd0
 134 438 167 471 211 471 c 0
 255 471 288 438 288 394 c 0
 288 350 255 317 211 317 c 0
 167 317 134 350 134 394 c 0xd0
EndSplineSet
EndChar

StartChar: less
Encoding: 60 60 29
Width: 869
GlyphClass: 2
Flags: W
LayerCount: 2
Fore
SplineSet
70 241 m 2
 70 287 l 1
 308 423 544 560 781 697 c 1
 792 704 l 1
 801 688 808 671 816 655 c 2
 822 642 l 1
 608 516 393 390 179 264 c 1
 800 -107 l 1
 813 -114 l 1
 804 -131 795 -147 786 -163 c 2
 779 -176 l 1
 772 -172 73 239 70 241 c 2
EndSplineSet
EndChar

StartChar: equal
Encoding: 61 61 30
Width: 863
GlyphClass: 2
Flags: MW
HStem: 133 70<48 851 48 851> 323 70<48 851 48 851>
LayerCount: 2
Fore
SplineSet
48 133 m 1
 48 203 l 1
 851 203 l 1
 851 133 l 1
 48 133 l 1
48 323 m 1
 48 393 l 1
 851 393 l 1
 851 323 l 1
 48 323 l 1
EndSplineSet
Substitution2: "'sups' Superscript lookup 20 subtable" uni207C
Substitution2: "'subs' Subscript lookup 19 subtable" uni208C
EndChar

StartChar: greater
Encoding: 62 62 31
Width: 858
GlyphClass: 2
Flags: W
LayerCount: 2
Fore
SplineSet
62 -114 m 1
 277 11 491 138 706 264 c 1
 84 635 l 1
 71 642 l 1
 80 659 89 675 98 691 c 2
 106 704 l 1
 254 618 807 291 814 287 c 1
 814 241 l 1
 577 104 341 -32 104 -169 c 2
 92 -176 l 1
 84 -160 77 -143 69 -127 c 2
 62 -114 l 1
EndSplineSet
EndChar

StartChar: question
Encoding: 63 63 32
Width: 428
GlyphClass: 2
Flags: MW
HStem: -27 154<155 199> 139 60<222 257 222 261.5> 649 60<292 352.5>
VStem: 100 154<50 72 50 72> 124 72<222 247.5 222 271> 126 78<575.5 590> 297 50<246.5 264> 407 102<524 576>
LayerCount: 2
Fore
SplineSet
126 541 m 0xe7
 126 639 248 709 336 709 c 0
 453 709 509 629 509 534 c 0
 509 464 453 405 390 374 c 2
 258 311 l 2
 217 287 196 259 196 236 c 0
 196 208 212 199 232 199 c 0
 282 199 297 231 297 262 c 0
 297 266 293 278 291 281 c 2
 280 293 l 1
 288 299 297 306 305 312 c 2
 315 320 l 1
 325 311 l 2
 335 300 347 280 347 254 c 0
 347 189 294 139 229 139 c 0
 174 139 124 179 124 242 c 0xeb
 124 300 165 348 213 377 c 2
 337 451 l 2
 379 474 407 504 407 544 c 0
 407 608 379 649 326 649 c 0
 235 649 204 606 204 581 c 0
 204 570 207 570 208 570 c 0
 224 563 248 552 248 515 c 0
 248 493 230 463 194 463 c 0
 153 463 126 496 126 541 c 0xe7
100 50 m 0xf3
 100 94 133 127 177 127 c 0
 221 127 254 94 254 50 c 0
 253 6 221 -27 177 -27 c 0
 133 -27 100 6 100 50 c 0xf3
EndSplineSet
EndChar

StartChar: at
Encoding: 64 64 33
Width: 769
GlyphClass: 2
Flags: MW
HStem: -33 58<352 476.5 352 480.5> 116 54<349 374 565.5 619> 540 54<454.5 481.5> 687 58<371.5 524.5>
VStem: 84 78<241 328 328 335 234 465> 234 87 712 78<397 403 403 478 315 493.5>
LayerCount: 2
Fore
SplineSet
321 223 m 1
 324 184 344 170 354 170 c 0
 409 170 454 250 478 339 c 2
 501 424 l 2
 504 434 505 445 506 457 c 2
 506 462 l 2
 506 507 489 540 474 540 c 0
 435 540 402 517 364 429 c 0
 343 382 323 295 321 223 c 1
444 687 m 0
 299 687 162 539 162 335 c 2
 162 328 l 2
 162 140 263 25 441 25 c 0
 512 25 567 60 597 81 c 2
 609 89 l 1
 617 77 625 66 633 54 c 2
 641 41 l 1
 630 33 l 2
 599 11 530 -33 431 -33 c 0
 214 -33 84 127 84 355 c 0
 84 575 261 745 454 745 c 0
 672 745 790 579 790 377 c 0
 790 253 698 116 552 116 c 0
 509 116 472 139 458 178 c 1
 437 152 399 116 349 116 c 0
 293 116 234 161 234 254 c 2
 234 255 l 2
 236 335 258 431 304 491 c 0
 362 565 424 594 476 594 c 0
 503 594 525 575 537 558 c 1
 540 571 l 1
 543 582 l 1
 646 582 l 1
 617 472 587 363 557 253 c 0
 553 238 551 225 551 214 c 0
 551 211 550 209 550 206 c 0
 550 177 563 170 568 170 c 0
 670 170 712 287 712 397 c 2
 712 403 l 2
 712 584 605 687 444 687 c 0
EndSplineSet
EndChar

StartChar: A
Encoding: 65 65 34
Width: 728
GlyphClass: 2
Flags: MW
HStem: 0 32<-40 25 -24 25 25 51.5 219 274 367 442 442 449 609 669> 229 62<333 468 291 470> 692 20G<549 593 593 593>
VStem: 464 112<61 66> 476 117
AnchorPoint: "Anchor-2" 312 0 basechar 0
AnchorPoint: "Anchor-1" 556 782 basechar 0
AnchorPoint: "Anchor-0" 550 762 basechar 0
LayerCount: 2
Fore
SplineSet
-40 0 m 1xf0
 -24 32 l 1
 25 32 l 2
 78 32 117 66 136 97 c 2
 545 705 l 1
 549 712 l 1
 593 712 l 1
 593 697 l 1xe8
 576 61 l 2
 578 34 586 32 609 32 c 2
 684 32 l 1
 680 25 675 18 671 11 c 2
 669 0 l 1
 351 0 l 1
 367 32 l 1
 442 32 l 2
 456 32 463 33 464 66 c 2
 468 229 l 1
 291 229 l 1
 227 128 l 2
 214 107 196 71 195 53 c 2
 195 50 l 2
 195 39 198 32 219 32 c 2
 289 32 l 1
 285 24 l 1
 277 11 l 1
 274 0 l 1
 -40 0 l 1xf0
476 503 m 1
 333 291 l 1
 470 291 l 1
 476 503 l 1
EndSplineSet
Substitution2: "'c2sc' Capitals to Small Capitals lookup 1 subtable" a.sc
EndChar

StartChar: B
Encoding: 66 66 35
Width: 710
GlyphClass: 2
Flags: MW
HStem: 0 32<-9 94 6 94 94 100.5 245 383> 347 62<325 452 343 445> 680 32<195 280 179 561 424.5 430 430 531>
VStem: 541 138<208 218 218 258.5> 619 122<570 578 578 605.5 500 615.5>
AnchorPoint: "Anchor-2" 226 0 basechar 0
AnchorPoint: "Anchor-1" 458 782 basechar 0
AnchorPoint: "Anchor-0" 452 762 basechar 0
LayerCount: 2
Fore
SplineSet
411 663 m 2xe8
 343 409 l 1
 452 409 l 2
 584 409 617 507 619 570 c 2
 619 578 l 2
 619 653 588 680 531 680 c 2
 430 680 l 2
 419 680 415 678 411 663 c 2xe8
-9 0 m 1
 4 26 l 1
 6 32 l 1
 94 32 l 2
 107 32 110 35 114 49 c 2
 284 672 l 2
 286 676 286 678 286 679 c 0
 284 680 283 680 280 680 c 2
 179 680 l 1
 183 687 188 694 192 701 c 2
 195 712 l 1
 561 712 l 2
 650 712 741 660 741 551 c 0xe8
 741 449 647 397 570 374 c 1
 632 350 679 297 679 225 c 0xf0
 679 81 503 0 383 0 c 2
 -9 0 l 1
325 347 m 1
 241 40 l 2
 240 37 240 35 240 33 c 0
 241 32 243 32 245 32 c 2
 400 32 l 2
 484 32 538 126 541 208 c 2
 541 218 l 2xf0
 541 299 510 347 445 347 c 2
 325 347 l 1
EndSplineSet
Substitution2: "'c2sc' Capitals to Small Capitals lookup 1 subtable" b.sc
EndChar

StartChar: C
Encoding: 67 67 36
Width: 681
GlyphClass: 2
Flags: MW
HStem: -18 62<299 376 299 393> 668 62<452 520.5 391.5 541.5> 702 20G<673 727 727 727>
VStem: 91 123<160.5 189 189 203 120 371.5>
AnchorPoint: "Anchor-2" 306 0 basechar 0
AnchorPoint: "Anchor-1" 494 782 basechar 0
AnchorPoint: "Anchor-0" 488 762 basechar 0
LayerCount: 2
Fore
SplineSet
607 464 m 0xb0
 607 514 598 668 485 668 c 0
 419 668 362 637 297 521 c 0
 256 450 218 329 214 203 c 1
 214 189 l 2
 214 51 274 44 324 44 c 0
 428 44 530 149 573 262 c 2
 578 276 l 1
 594 271 609 265 625 260 c 2
 639 255 l 1
 635 241 l 1
 590 113 480 -18 306 -18 c 0
 205 -18 91 65 91 256 c 0
 91 487 292 730 491 730 c 0xd0
 550 730 588 699 607 680 c 2
 623 662 l 2
 634 649 636 649 640 649 c 0
 652 649 667 686 671 709 c 2
 673 722 l 1
 727 722 l 1
 704 614 682 506 659 398 c 1
 657 386 l 1
 606 386 l 1
 606 402 l 2
 607 421 607 441 607 464 c 0xb0
EndSplineSet
Substitution2: "'c2sc' Capitals to Small Capitals lookup 1 subtable" c.sc
EndChar

StartChar: D
Encoding: 68 68 37
Width: 763
GlyphClass: 2
Flags: MW
HStem: 0 32<6 94 94 100.5 245 354 -9 94> 680 32<196 279 178 535 424 430 430 513>
VStem: 635 123<507 519 519 523.5 337.5 564>
AnchorPoint: "Anchor-2" 226 0 basechar 0
AnchorPoint: "Anchor-1" 464 782 basechar 0
AnchorPoint: "Anchor-0" 458 762 basechar 0
LayerCount: 2
Fore
SplineSet
365 32 m 2
 534 32 630 279 635 507 c 1
 635 519 l 2
 635 609 607 680 513 680 c 2
 430 680 l 2
 418 680 414 678 411 663 c 2
 241 40 l 2
 240 37 239 35 239 33 c 0
 241 32 242 32 245 32 c 2
 365 32 l 2
758 449 m 0
 758 226 574 0 354 0 c 2
 -9 0 l 1
 4 26 l 1
 6 32 l 1
 94 32 l 2
 107 32 110 35 114 49 c 2
 284 672 l 2
 285 676 286 678 286 679 c 0
 284 680 282 680 279 680 c 2
 178 680 l 1
 193 701 l 1
 196 712 l 1
 535 712 l 2
 679 712 758 598 758 449 c 0
EndSplineSet
Substitution2: "'c2sc' Capitals to Small Capitals lookup 1 subtable" d.sc
EndChar

StartChar: E
Encoding: 69 69 38
Width: 732
GlyphClass: 2
Flags: MW
HStem: 0 32<-9 94 6 94 94 100.5 245 425 425 438> 337 62<339 407 322 423> 680 32<195 279 179 786 423.5 429 429 587>
AnchorPoint: "Anchor-2" 312 0 basechar 0
AnchorPoint: "Anchor-1" 484 782 basechar 0
AnchorPoint: "Anchor-0" 478 762 basechar 0
LayerCount: 2
Fore
SplineSet
-9 0 m 1
 4 26 l 1
 6 32 l 1
 94 32 l 2
 107 32 110 35 114 49 c 2
 284 672 l 2
 285 676 285 678 285 679 c 0
 284 680 282 680 279 680 c 2
 179 680 l 1
 183 688 l 1
 192 701 l 1
 195 712 l 1
 786 712 l 1
 782 703 l 1
 736 496 l 1
 733 484 l 1
 679 484 l 1
 681 501 l 1
 681 501 684 521 684 547 c 0
 684 660 648 680 587 680 c 2
 429 680 l 2
 418 680 414 678 410 663 c 2
 339 399 l 1
 423 399 l 2
 490 399 511 469 527 530 c 2
 530 541 l 1
 590 541 l 1
 557 428 526 312 494 198 c 2
 491 187 l 1
 432 187 l 1
 437 205 l 2
 442 227 447 254 448 277 c 2
 448 284 l 2
 448 320 439 337 407 337 c 2
 322 337 l 1
 240 40 l 2
 240 37 239 35 239 33 c 0
 241 32 242 32 245 32 c 2
 425 32 l 2
 451 32 505 44 544 80 c 0
 607 138 652 258 652 258 c 1
 656 268 l 1
 712 268 l 1
 682 181 650 97 619 11 c 1
 616 0 l 1
 -9 0 l 1
EndSplineSet
Substitution2: "'c2sc' Capitals to Small Capitals lookup 1 subtable" e.sc
EndChar

StartChar: F
Encoding: 70 70 39
Width: 710
GlyphClass: 2
Flags: MW
HStem: 0 32<-9 94 6 94 94 100.5 245 354> 337 62<339 406 322 422> 680 32<195 279 179 786 423.5 429 429 587>
AnchorPoint: "Anchor-2" 180 0 basechar 0
AnchorPoint: "Anchor-1" 484 782 basechar 0
AnchorPoint: "Anchor-0" 478 762 basechar 0
LayerCount: 2
Fore
SplineSet
-9 0 m 1
 4 26 l 1
 6 32 l 1
 94 32 l 2
 107 32 110 35 114 49 c 2
 284 672 l 2
 285 676 285 678 285 679 c 0
 284 680 282 680 279 680 c 2
 179 680 l 1
 183 688 l 1
 192 701 l 1
 195 712 l 1
 786 712 l 1
 782 703 l 1
 736 496 l 1
 734 484 l 1
 679 484 l 1
 681 501 l 1
 681 501 684 521 684 547 c 0
 684 660 648 680 587 680 c 2
 429 680 l 2
 418 680 414 678 410 663 c 2
 339 399 l 1
 422 399 l 2
 489 399 510 469 526 530 c 1
 530 541 l 1
 589 541 l 1
 556 428 525 312 493 198 c 2
 490 187 l 1
 431 187 l 1
 436 205 l 2
 441 227 446 254 447 277 c 2
 447 284 l 2
 447 320 438 337 406 337 c 2
 322 337 l 1
 240 40 l 2
 240 37 239 35 239 33 c 0
 241 32 242 32 245 32 c 2
 369 32 l 1
 365 24 l 1
 357 11 l 1
 354 0 l 1
 -9 0 l 1
EndSplineSet
Substitution2: "'c2sc' Capitals to Small Capitals lookup 1 subtable" f.sc
EndChar

StartChar: G
Encoding: 71 71 40
Width: 754
GlyphClass: 2
Flags: MW
HStem: -18 62<296 362.5 296 367> 289 62<416 514 399 748 660.5 667 667 743> 668 62<451 502> 702 20G<692 742 742 742>
VStem: 91 123<172.5 189 189 203 118.5 371.5> 622 49<386 386> 689 53<710 722>
AnchorPoint: "Anchor-2" 312 0 basechar 0
AnchorPoint: "Anchor-1" 494 782 basechar 0
AnchorPoint: "Anchor-0" 488 762 basechar 0
LayerCount: 2
Fore
SplineSet
521 96 m 1xee
 502 90 429 -18 305 -18 c 0
 185 -18 91 89 91 256 c 0
 91 487 290 730 489 730 c 0xee
 601 730 644 649 662 649 c 0
 673 649 684 683 689 710 c 2
 692 722 l 1
 742 722 l 1xde
 719 614 697 506 674 398 c 2
 671 386 l 1
 622 386 l 1
 623 402 l 2
 624 420 625 441 626 464 c 2
 626 477 l 2
 626 513 622 585 592 622 c 0
 565 655 520 668 484 668 c 0
 418 668 363 639 296 521 c 0
 256 450 218 329 214 203 c 1
 214 189 l 2
 214 48 275 44 317 44 c 0
 408 44 487 148 507 231 c 2
 519 281 l 2
 520 283 520 285 520 288 c 0
 518 289 517 289 514 289 c 2
 399 289 l 1
 403 306 408 323 413 340 c 2
 416 351 l 1
 748 351 l 1
 744 332 l 1
 746 300 l 1
 743 289 l 1
 667 289 l 2
 654 289 650 285 647 274 c 2
 582 -2 l 1
 579 -14 l 1
 524 -14 l 1
 524 71 l 2
 524 76 523 90 521 96 c 1xee
EndSplineSet
Substitution2: "'salt' Stylistic Alternatives lookup 18 subtable" uniA77D
Substitution2: "'ss02' Style Set 2 lookup 12 subtable" uniA77D
AlternateSubs2: "'aalt' Access All Alternates lookup 2 subtable" uniA77D
Substitution2: "'c2sc' Capitals to Small Capitals lookup 1 subtable" g.sc
EndChar

StartChar: H
Encoding: 72 72 41
Width: 819
GlyphClass: 2
Flags: MW
HStem: 0 32<-9 94 6 94 94 100.5 243 317 401 483 483 488.5 632 715> 322 92<336 580 319 598> 680 32<194 277 178 524 420 426 426 508 592 666 808.5 815 815 902>
AnchorPoint: "Anchor-2" 346 0 basechar 0
AnchorPoint: "Anchor-1" 558 782 basechar 0
AnchorPoint: "Anchor-0" 552 762 basechar 0
LayerCount: 2
Fore
SplineSet
-9 0 m 1
 4 26 l 1
 6 32 l 1
 94 32 l 2
 107 32 110 35 114 49 c 2
 282 672 l 2
 283 675 283 677 283 679 c 0
 281 680 280 680 277 680 c 2
 178 680 l 1
 182 687 187 694 191 701 c 2
 194 712 l 1
 524 712 l 1
 508 680 l 1
 426 680 l 2
 414 680 411 677 407 664 c 2
 336 414 l 1
 598 414 l 1
 670 672 l 2
 671 675 672 678 672 679 c 0
 672 680 668 680 666 680 c 2
 577 680 l 1
 581 688 l 1
 589 701 l 1
 592 712 l 1
 918 712 l 1
 902 680 l 1
 815 680 l 2
 802 680 799 677 795 663 c 2
 627 40 l 2
 626 37 626 35 626 33 c 0
 627 32 629 32 632 32 c 2
 731 32 l 1
 727 25 722 18 718 11 c 2
 715 0 l 1
 386 0 l 1
 390 10 l 1
 401 32 l 1
 483 32 l 2
 494 32 498 35 502 48 c 2
 580 322 l 1
 319 322 l 1
 239 40 l 2
 238 37 238 35 238 33 c 0
 239 32 240 32 243 32 c 2
 332 32 l 1
 328 24 l 1
 320 11 l 1
 317 0 l 1
 -9 0 l 1
EndSplineSet
Substitution2: "'c2sc' Capitals to Small Capitals lookup 1 subtable" h.sc
EndChar

StartChar: I
Encoding: 73 73 42
Width: 449
GlyphClass: 2
Flags: MW
HStem: 0 32<-9 94 6 94 94 100.5 252 340> 680 32<199 287 182 547 438 444 444 532>
AnchorPoint: "Anchor-2" 145 0 basechar 0
AnchorPoint: "Anchor-1" 352 782 basechar 0
AnchorPoint: "Anchor-0" 346 762 basechar 0
LayerCount: 2
Fore
SplineSet
-9 0 m 1
 4 26 l 1
 6 32 l 1
 94 32 l 2
 107 32 110 35 114 49 c 2
 292 672 l 2
 293 676 294 678 294 679 c 0
 292 680 290 680 287 680 c 2
 182 680 l 1
 186 687 191 694 196 701 c 2
 199 712 l 1
 547 712 l 1
 543 702 l 1
 532 680 l 1
 444 680 l 2
 432 680 428 678 424 663 c 2
 247 40 l 2
 246 37 245 35 245 33 c 0
 247 32 249 32 252 32 c 2
 357 32 l 1
 353 25 348 18 343 11 c 2
 340 0 l 1
 -9 0 l 1
EndSplineSet
Substitution2: "'c2sc' Capitals to Small Capitals lookup 1 subtable" i.sc
EndChar

StartChar: J
Encoding: 74 74 43
Width: 574
GlyphClass: 2
Flags: MW
HStem: -18 62<147 198 147 215> 91 155<116.5 143> 680 32<323 434 307 690 581 587 587 675>
VStem: 17 96<85 86.5 72 160.5>
AnchorPoint: "Anchor-2" 172 0 basechar 0
AnchorPoint: "Anchor-1" 494 782 basechar 0
AnchorPoint: "Anchor-0" 488 762 basechar 0
LayerCount: 2
Fore
SplineSet
160 -18 m 0
 73 -18 17 45 17 125 c 0
 17 196 63 246 122 246 c 0
 164 246 197 218 197 176 c 2
 197 174 l 2
 196 130 168 91 118 91 c 0
 115 91 113 90 113 83 c 0
 113 61 125 44 169 44 c 0
 227 44 273 96 290 158 c 2
 439 672 l 2
 440 675 440 678 440 679 c 0
 439 680 437 680 434 680 c 2
 307 680 l 1
 311 687 316 694 320 701 c 2
 323 712 l 1
 690 712 l 1
 677 686 l 1
 675 680 l 1
 587 680 l 2
 575 680 571 678 567 664 c 2
 431 196 l 2
 392 61 270 -18 160 -18 c 0
EndSplineSet
Substitution2: "'c2sc' Capitals to Small Capitals lookup 1 subtable" j.sc
EndChar

StartChar: K
Encoding: 75 75 44
Width: 769
GlyphClass: 2
Flags: MW
HStem: 0 32<-9 94 6 94 94 100.5 243 317 394 454 454 460.5 646 694> 680 32<194 278 178 525 421 427 427 509 582 607 830.5 847 847 859>
AnchorPoint: "Anchor-2" 336 0 basechar 0
AnchorPoint: "Anchor-1" 538 782 basechar 0
AnchorPoint: "Anchor-0" 532 762 basechar 0
LayerCount: 2
Fore
SplineSet
-9 0 m 1
 4 26 l 1
 6 32 l 1
 94 32 l 2
 107 32 110 35 114 49 c 2
 282 672 l 2
 284 676 284 678 284 679 c 0
 282 680 280 680 278 680 c 2
 178 680 l 1
 182 687 187 694 191 701 c 2
 194 712 l 1
 525 712 l 1
 509 680 l 1
 427 680 l 2
 415 680 411 678 408 664 c 2
 336 409 l 1
 589 607 l 2
 626 636 643 653 644 669 c 0
 644 672 635 680 607 680 c 2
 567 680 l 1
 571 688 l 1
 579 701 l 1
 582 712 l 1
 874 712 l 1
 861 686 l 1
 859 680 l 1
 847 680 l 2
 814 680 777 673 713 622 c 2
 488 440 l 1
 589 68 l 2
 599 38 605 32 646 32 c 2
 710 32 l 1
 706 25 701 18 697 11 c 2
 694 0 l 1
 379 0 l 1
 383 10 l 1
 394 32 l 1
 454 32 l 2
 467 32 473 36 473 46 c 0
 473 49 473 53 472 58 c 2
 392 347 l 1
 309 283 l 1
 239 40 l 2
 238 37 238 35 238 33 c 0
 239 32 241 32 243 32 c 2
 333 32 l 1
 329 25 324 18 320 11 c 2
 317 0 l 1
 -9 0 l 1
EndSplineSet
Substitution2: "'c2sc' Capitals to Small Capitals lookup 1 subtable" k.sc
EndChar

StartChar: L
Encoding: 76 76 45
Width: 700
GlyphClass: 2
Flags: MW
HStem: 0 32<-9 94 6 94 94 100.5 246 424 424 436> 680 32<197 280 178 532 426 432 432 516>
AnchorPoint: "Anchor-2" 312 0 basechar 0
AnchorPoint: "Anchor-1" 350 782 basechar 0
AnchorPoint: "Anchor-0" 344 762 basechar 0
LayerCount: 2
Fore
SplineSet
-9 0 m 1
 4 26 l 1
 6 32 l 1
 94 32 l 2
 107 32 110 35 114 49 c 2
 285 672 l 2
 287 676 287 678 287 679 c 0
 285 680 283 680 280 680 c 2
 178 680 l 1
 183 687 189 694 194 701 c 2
 197 712 l 1
 532 712 l 1
 516 680 l 1
 432 680 l 2
 420 680 417 678 413 663 c 2
 242 40 l 2
 241 37 240 35 240 33 c 0
 242 32 243 32 246 32 c 2
 424 32 l 2
 448 32 497 44 535 80 c 0
 597 138 640 258 640 258 c 1
 643 268 l 1
 698 268 l 1
 669 181 638 97 608 11 c 1
 605 0 l 1
 -9 0 l 1
EndSplineSet
Substitution2: "'c2sc' Capitals to Small Capitals lookup 1 subtable" l.sc
EndChar

StartChar: M
Encoding: 77 77 46
Width: 900
GlyphClass: 2
Flags: MW
HStem: -12 21G<344 390 344 344> 0 32<-9 66 6 66 66 83.5 240 288 483 565 565 571 715 798> 680 32<194 288 177 474 888.5 895 895 983>
VStem: 344 117 362 112<627 712>
AnchorPoint: "Anchor-2" 386 0 basechar 0
AnchorPoint: "Anchor-1" 592 782 basechar 0
AnchorPoint: "Anchor-0" 586 762 basechar 0
LayerCount: 2
Fore
SplineSet
-9 0 m 1x68
 4 26 l 1
 6 32 l 1
 66 32 l 2
 101 32 130 68 144 119 c 2
 293 672 l 2
 294 676 294 678 294 679 c 0
 292 680 291 680 288 680 c 2
 177 680 l 1
 181 687 186 694 191 701 c 2
 194 712 l 1
 474 712 l 1
 474 697 l 1x68
 461 201 l 1
 552 373 732 704 736 712 c 1
 999 712 l 1
 983 680 l 1
 895 680 l 2
 882 680 880 678 876 663 c 2
 709 40 l 2
 708 37 707 35 707 34 c 2
 708 33 l 2
 709 33 711 32 715 32 c 2
 814 32 l 1
 810 25 805 18 801 11 c 2
 798 0 l 1
 468 0 l 1
 481 26 l 1
 483 32 l 1
 565 32 l 2x70
 577 32 580 35 584 48 c 2
 740 602 l 1
 623 383 393 -6 390 -12 c 1
 344 -12 l 1xb0
 351 200 356 414 362 627 c 1
 215 107 l 2
 211 93 209 80 208 69 c 2
 208 66 l 2
 208 43 215 32 240 32 c 2
 303 32 l 1
 299 25 294 18 290 11 c 2
 288 0 l 1
 -9 0 l 1x68
EndSplineSet
Substitution2: "'c2sc' Capitals to Small Capitals lookup 1 subtable" m.sc
EndChar

StartChar: N
Encoding: 78 78 47
Width: 803
GlyphClass: 2
Flags: MW
HStem: -18 21G<524 589 524 524> 0 32<-9 66 6 66 66 83 241 288> 680 32<194 289 178 404 618 666 827.5 841 841 901>
AnchorPoint: "Anchor-2" 376 0 basechar 0
AnchorPoint: "Anchor-1" 546 782 basechar 0
AnchorPoint: "Anchor-0" 540 762 basechar 0
LayerCount: 2
Fore
SplineSet
-9 0 m 1x60
 4 26 l 1
 6 32 l 1
 66 32 l 2x60
 100 32 131 69 144 119 c 2
 293 671 l 2
 294 675 295 678 295 679 c 0
 295 680 291 680 289 680 c 2
 178 680 l 1
 182 687 187 694 191 701 c 2
 194 712 l 1
 404 712 l 1
 461 539 518 367 575 194 c 1
 692 605 l 2
 697 621 699 634 699 644 c 2
 699 646 l 2
 699 672 690 680 666 680 c 2
 603 680 l 1
 607 688 l 1
 615 701 l 1
 618 712 l 1
 916 712 l 1
 903 686 l 1
 901 680 l 1
 841 680 l 2
 814 680 779 654 763 597 c 2
 589 -18 l 1
 524 -18 l 1xa0
 462 169 402 358 340 546 c 1
 215 107 l 2
 211 93 209 79 209 68 c 2
 209 64 l 2
 209 42 215 32 241 32 c 2
 304 32 l 1
 300 25 295 18 291 11 c 2
 288 0 l 1
 -9 0 l 1x60
EndSplineSet
Substitution2: "'c2sc' Capitals to Small Capitals lookup 1 subtable" n.sc
EndChar

StartChar: O
Encoding: 79 79 48
Width: 717
GlyphClass: 2
Flags: MW
HStem: -18 62<284.5 389.5 284.5 402> 668 62<407.5 513.5>
VStem: 92 122<180.5 188 188 200 137.5 385> 584 122<512 524 524 529.5 325 574.5>
AnchorPoint: "Anchor-2" 310 0 basechar 0
AnchorPoint: "Anchor-1" 500 782 basechar 0
AnchorPoint: "Anchor-0" 494 762 basechar 0
LayerCount: 2
Fore
SplineSet
306 -18 m 0
 170 -18 92 109 92 252 c 0
 92 518 300 730 492 730 c 0
 628 730 706 601 706 458 c 0
 706 192 498 -18 306 -18 c 0
482 668 m 0
 333 668 222 441 214 200 c 1
 214 188 l 2
 214 87 253 44 316 44 c 0
 463 44 576 269 584 512 c 1
 584 524 l 2
 584 625 545 668 482 668 c 0
EndSplineSet
Substitution2: "'c2sc' Capitals to Small Capitals lookup 1 subtable" o.sc
EndChar

StartChar: P
Encoding: 80 80 49
Width: 677
GlyphClass: 2
Flags: MW
HStem: 0 32<-9 94 6 94 94 100.5 245 355> 313 62<334 421 315 443> 680 32<197 280 178 556 425 431 431 534>
VStem: 605 124<582 588 588 599 483 623>
AnchorPoint: "Anchor-2" 180 0 basechar 0
AnchorPoint: "Anchor-1" 458 782 basechar 0
AnchorPoint: "Anchor-0" 452 762 basechar 0
LayerCount: 2
Fore
SplineSet
412 663 m 2
 334 375 l 1
 443 375 l 2
 487 375 534 401 564 444 c 0
 589 481 604 535 605 582 c 2
 605 588 l 2
 605 658 571 680 534 680 c 2
 431 680 l 2
 419 680 416 678 412 663 c 2
-9 0 m 1
 4 26 l 1
 6 32 l 1
 94 32 l 2
 107 32 110 35 114 49 c 2
 285 672 l 2
 286 676 286 678 286 679 c 0
 285 680 283 680 280 680 c 2
 178 680 l 1
 193 701 l 1
 197 712 l 1
 556 712 l 2
 651 712 729 653 729 545 c 0
 729 421 605 313 421 313 c 2
 315 313 l 1
 241 41 l 2
 241 37 240 35 240 33 c 0
 240 32 243 32 245 32 c 2
 371 32 l 1
 367 25 362 18 358 11 c 2
 355 0 l 1
 -9 0 l 1
EndSplineSet
Substitution2: "'c2sc' Capitals to Small Capitals lookup 1 subtable" p.sc
EndChar

StartChar: Q
Encoding: 81 81 50
Width: 717
GlyphClass: 2
Flags: MW
HStem: -184 82<441 447.5> -18 62<305.5 306 306 318 305.5 319> 155 28<306.5 327.5> 668 62<399.5 513>
VStem: 92 121<180.5 277 148.5 385> 309 116<-115.5 -38> 584 122<473.5 529.5 339 570>
AnchorPoint: "Anchor-2" 176 0 basechar 0
AnchorPoint: "Anchor-1" 500 782 basechar 0
AnchorPoint: "Anchor-0" 494 762 basechar 0
LayerCount: 2
Fore
SplineSet
315 155 m 0
 297 155 281 143 280 97 c 2
 280 93 l 2
 280 54 296 44 315 44 c 0
 321 44 329 45 335 46 c 1
 341 73 l 2
 343 81 344 86 344 96 c 2
 344 104 l 2
 344 132 340 155 315 155 c 0
310 -76 m 0
 310 -59 313 -41 319 -18 c 1
 306 -18 l 2
 170 -18 92 109 92 252 c 0
 92 518 300 730 492 730 c 0
 628 730 706 603 706 456 c 0
 706 222 545 56 426 10 c 1
 425 -24 l 1
 425 -38 l 2
 425 -72 430 -102 452 -102 c 0
 489 -102 518 -47 535 9 c 2
 539 24 l 1
 555 19 l 2
 568 15 582 12 595 8 c 1
 592 -5 l 2
 555 -151 477 -184 418 -184 c 0
 361 -184 309 -151 309 -80 c 0
 309 -79 309 -77 310 -76 c 0
424 59 m 1
 561 183 584 430 584 517 c 0
 584 623 544 668 482 668 c 0
 317 668 213 388 213 166 c 0
 213 131 218 103 224 83 c 1
 233 158 284 183 329 183 c 0
 386 183 416 128 424 59 c 1
EndSplineSet
Substitution2: "'c2sc' Capitals to Small Capitals lookup 1 subtable" q.sc
EndChar

StartChar: R
Encoding: 82 82 51
Width: 730
GlyphClass: 2
Flags: MW
HStem: -12 82<583.5 606.5 583.5 615> 0 32<6 94 94 100.5 240 343 -9 94> 341 62<341 438 438 441 323 438> 680 32<195 286 179 526 425 431 431 507>
VStem: 458 118<79.5 92 79.5 92> 497 104<228 283 228 294> 587 114<543 590 543 622>
AnchorPoint: "Anchor-2" 336 0 basechar 0
AnchorPoint: "Anchor-1" 458 782 basechar 0
AnchorPoint: "Anchor-0" 452 762 basechar 0
LayerCount: 2
Fore
SplineSet
412 663 m 2x32
 341 403 l 1
 438 403 l 2
 526 403 584 465 587 584 c 2
 587 590 l 2
 587 654 560 680 507 680 c 2
 431 680 l 2
 419 680 415 678 412 663 c 2x32
497 283 m 2xb4
 497 305 490 341 441 341 c 2
 323 341 l 1
 241 41 l 2
 240 37 240 35 240 33 c 2
 240 32 l 1
 359 32 l 1
 355 25 350 18 346 11 c 2
 343 0 l 1
 -9 0 l 1
 4 26 l 1
 6 32 l 1
 94 32 l 2
 107 32 110 35 114 49 c 2
 284 671 l 2
 285 675 286 678 286 680 c 1
 179 680 l 1
 183 687 188 694 192 701 c 2
 195 712 l 1
 526 712 l 2
 635 712 701 657 701 550 c 2
 701 543 l 2x72
 699 458 622 389 537 363 c 1
 567 342 601 303 601 234 c 2
 601 228 l 2x74
 599 179 577 118 576 86 c 2
 576 85 l 2
 576 74 579 70 588 70 c 0
 625 70 649 136 662 181 c 2
 666 195 l 1
 679 191 693 188 706 184 c 2
 720 180 l 1
 716 166 l 2
 703 121 673 -12 557 -12 c 0
 508 -12 458 12 458 87 c 2
 458 92 l 2xb8
 460 162 496 239 497 280 c 2
 497 283 l 2xb4
EndSplineSet
Substitution2: "'c2sc' Capitals to Small Capitals lookup 1 subtable" r.sc
EndChar

StartChar: S
Encoding: 83 83 52
Width: 639
GlyphClass: 2
Flags: MW
HStem: -18 62<286.5 382.5 286.5 403> -10 21G<31 84 31 31> 668 62<363.5 451.5> 702 20G<610 663 663 663>
VStem: 180 91<525.5 582 525.5 588.5> 488 98<136 186> 547 51<432 432> 607 56<711 722>
AnchorPoint: "Anchor-2" 282 0 basechar 0
AnchorPoint: "Anchor-1" 431 782 basechar 0
AnchorPoint: "Anchor-0" 425 762 basechar 0
LayerCount: 2
Fore
SplineSet
321 -18 m 0xad
 205 -18 139 67 125 73 c 1
 117 72 95 24 88 1 c 2
 84 -10 l 1
 31 -10 l 1x4d
 60 101 88 213 116 325 c 2
 119 336 l 1
 173 336 l 1
 169 318 l 2
 166 301 164 284 164 268 c 0
 164 144 243 44 330 44 c 0
 435 44 488 84 488 162 c 0
 488 210 461 233 417 261 c 2
 306 329 l 2
 230 373 180 420 180 514 c 0
 180 663 294 730 424 730 c 0
 484 730 538 686 556 668 c 0xad
 567 656 570 656 573 656 c 0
 581 656 601 688 607 711 c 2
 610 722 l 1
 663 722 l 1
 642 629 622 537 601 444 c 2
 598 432 l 1
 547 432 l 1x1b
 548 448 l 1
 548 462 l 2
 548 552 490 668 413 668 c 0
 314 668 271 609 271 555 c 0
 271 496 319 467 362 443 c 2
 452 390 l 2
 530 344 586 302 586 203 c 0
 586 69 485 -18 321 -18 c 0xad
EndSplineSet
Substitution2: "'c2sc' Capitals to Small Capitals lookup 1 subtable" s.sc
EndChar

StartChar: T
Encoding: 84 84 53
Width: 699
GlyphClass: 2
Flags: MW
HStem: 0 32<132 267 267 274.5 418 486 116 267> 680 32<386 415 415 464 602 607 607 629>
VStem: 115 60<429 443> 648 56<429 429>
AnchorPoint: "Anchor-2" 278 0 basechar 0
AnchorPoint: "Anchor-1" 484 782 basechar 0
AnchorPoint: "Anchor-0" 478 762 basechar 0
LayerCount: 2
Fore
SplineSet
653 449 m 2
 653 450 674 544 674 597 c 0
 674 669 647 680 629 680 c 2
 607 680 l 2
 597 680 594 676 591 664 c 2
 591 663 l 1
 419 41 l 2
 418 36 418 35 418 33 c 2
 418 32 l 1
 500 32 l 1
 497 25 493 18 489 11 c 2
 486 0 l 1
 116 0 l 1
 132 32 l 1
 267 32 l 2
 282 32 286 35 290 49 c 2
 463 672 l 2
 464 676 464 678 464 680 c 1
 415 680 l 2
 357 680 303 644 284 628 c 0
 216 570 180 459 175 443 c 1
 175 429 l 1
 115 429 l 1
 144 519 172 610 201 701 c 1
 204 712 l 1
 774 712 l 1
 752 621 729 531 707 440 c 2
 704 429 l 1
 648 429 l 1
 653 449 l 2
EndSplineSet
Substitution2: "'c2sc' Capitals to Small Capitals lookup 1 subtable" t.sc
EndChar

StartChar: U
Encoding: 85 85 54
Width: 799
GlyphClass: 2
Flags: MW
HStem: -18 62<336.5 434 336.5 451> 680 32<171 250 155 499 393.5 400 400 483 612 660 821 837 837 896>
VStem: 133 114<134.5 164 164 169 125.5 201.5>
AnchorPoint: "Anchor-2" 344 0 basechar 0
AnchorPoint: "Anchor-1" 550 782 basechar 0
AnchorPoint: "Anchor-0" 544 762 basechar 0
LayerCount: 2
Fore
SplineSet
367 -18 m 0
 211 -18 133 78 133 191 c 0
 133 212 138 235 143 257 c 2
 255 672 l 2
 256 675 256 678 256 679 c 0
 256 680 252 680 250 680 c 2
 155 680 l 1
 159 687 164 694 168 701 c 2
 171 712 l 1
 499 712 l 1
 483 680 l 1
 400 680 l 2
 387 680 385 678 381 664 c 2
 256 222 l 2
 251 202 247 185 247 169 c 2
 247 164 l 2
 247 87 297 44 376 44 c 0
 492 44 551 130 575 217 c 2
 688 607 l 2
 690 617 694 638 694 645 c 2
 694 647 l 2
 694 664 689 680 660 680 c 2
 596 680 l 1
 600 687 605 694 609 701 c 2
 612 712 l 1
 912 712 l 1
 896 680 l 1
 837 680 l 2
 805 680 772 647 758 597 c 2
 649 219 l 2
 612 91 535 -18 367 -18 c 0
EndSplineSet
Substitution2: "'c2sc' Capitals to Small Capitals lookup 1 subtable" u.sc
EndChar

StartChar: V
Encoding: 86 86 55
Width: 750
GlyphClass: 2
Flags: MW
HStem: -18 21G<239 284 239 239> 680 32<144 485 160 224 381 391 391 469 556 601 783.5 807 807 858>
VStem: 257 112<650 650>
AnchorPoint: "Anchor-2" 278 0 basechar 0
AnchorPoint: "Anchor-1" 502 782 basechar 0
AnchorPoint: "Anchor-0" 496 762 basechar 0
LayerCount: 2
Fore
SplineSet
144 680 m 1
 148 687 153 694 157 701 c 2
 160 712 l 1
 485 712 l 1
 469 680 l 1
 391 680 l 2
 371 680 369 674 369 648 c 2
 357 204 l 1
 588 559 l 2
 612 597 627 626 628 653 c 2
 628 654 l 2
 628 670 620 680 601 680 c 2
 541 680 l 1
 545 688 l 1
 553 701 l 1
 556 712 l 1
 874 712 l 1
 858 680 l 1
 807 680 l 2
 760 680 719 646 700 614 c 2
 288 -11 l 1
 284 -18 l 1
 239 -18 l 1
 239 -3 l 1
 257 650 l 1
 253 678 246 680 224 680 c 2
 144 680 l 1
EndSplineSet
Substitution2: "'c2sc' Capitals to Small Capitals lookup 1 subtable" v.sc
EndChar

StartChar: W
Encoding: 87 87 56
Width: 1043
GlyphClass: 2
Flags: MW
HStem: -18 21G<235 280 235 235 573 618 573 573> 680 32<144 473 160 221 373 383 383 457 160 496 511 562 725 736 736 800 854 908 1075 1096 1096 1151>
VStem: 253 110<650 650> 591 110<632 654 632 666>
AnchorPoint: "Anchor-2" 468 0 basechar 0
AnchorPoint: "Anchor-1" 674 782 basechar 0
AnchorPoint: "Anchor-0" 668 762 basechar 0
LayerCount: 2
Fore
SplineSet
144 680 m 1
 148 687 153 694 157 701 c 2
 160 712 l 1
 473 712 l 1
 457 680 l 1
 383 680 l 2
 363 680 363 675 363 648 c 2
 351 212 l 1
 562 559 l 2
 588 600 591 636 591 651 c 2
 591 654 l 2
 591 678 583 680 562 680 c 2
 496 680 l 1
 500 688 l 1
 508 701 l 1
 511 712 l 1
 816 712 l 1
 800 680 l 1
 736 680 l 2
 714 680 701 664 701 632 c 2
 689 223 l 1
 895 554 l 2
 912 581 930 619 930 651 c 0
 930 663 919 680 908 680 c 2
 839 680 l 1
 843 688 l 1
 851 701 l 1
 854 712 l 1
 1167 712 l 1
 1151 680 l 1
 1096 680 l 2
 1054 680 1026 647 1006 612 c 2
 622 -11 l 1
 618 -18 l 1
 573 -18 l 1
 573 -3 l 1
 586 480 l 1
 284 -11 l 1
 280 -18 l 1
 235 -18 l 1
 235 -3 l 1
 253 650 l 1
 249 679 243 680 221 680 c 2
 144 680 l 1
EndSplineSet
Substitution2: "'c2sc' Capitals to Small Capitals lookup 1 subtable" w.sc
EndChar

StartChar: X
Encoding: 88 88 57
Width: 830
GlyphClass: 2
Flags: MW
HStem: 0 32<13 85 31 85 85 110 313 346 429 500 500 508 687 755> 680 32<173 248 157 506 434 438 438 491 573 611 817.5 834 834 882>
AnchorPoint: "Anchor-2" 376 0 basechar 0
AnchorPoint: "Anchor-1" 542 782 basechar 0
AnchorPoint: "Anchor-0" 536 762 basechar 0
LayerCount: 2
Fore
SplineSet
13 0 m 1
 15 4 22 19 31 32 c 1
 85 32 l 2
 135 32 170 63 207 107 c 2
 411 347 l 1
 302 637 l 2
 289 671 288 680 248 680 c 2
 157 680 l 1
 161 687 166 694 170 701 c 2
 173 712 l 1
 506 712 l 1
 502 702 l 1
 491 680 l 1
 438 680 l 2
 430 680 417 670 417 660 c 0
 417 657 417 655 419 651 c 2
 496 459 l 1
 628 607 l 2
 639 620 643 631 644 653 c 2
 644 655 l 2
 644 673 635 680 611 680 c 2
 558 680 l 1
 562 688 l 1
 570 701 l 1
 573 712 l 1
 897 712 l 1
 884 686 l 1
 882 680 l 1
 834 680 l 2
 801 680 763 668 732 631 c 2
 521 379 l 1
 643 61 l 2
 655 32 662 32 687 32 c 2
 771 32 l 1
 767 25 762 18 758 11 c 2
 755 0 l 1
 413 0 l 1
 429 32 l 1
 500 32 l 2
 516 32 522 39 522 47 c 0
 522 50 522 54 520 59 c 2
 437 267 l 1
 303 115 l 2
 283 93 280 82 279 59 c 2
 279 57 l 2
 279 34 295 32 313 32 c 2
 364 32 l 1
 349 11 l 1
 346 0 l 1
 13 0 l 1
EndSplineSet
Substitution2: "'c2sc' Capitals to Small Capitals lookup 1 subtable" x.sc
EndChar

StartChar: Y
Encoding: 89 89 58
Width: 731
GlyphClass: 2
Flags: MW
HStem: 0 32<122 223 223 228.5 366 469 107 223> 680 32<137 214 121 479 380 390 390 462 548 591 769.5 791 791 849>
AnchorPoint: "Anchor-2" 278 0 basechar 0
AnchorPoint: "Anchor-1" 496 782 basechar 0
AnchorPoint: "Anchor-0" 490 762 basechar 0
LayerCount: 2
Fore
SplineSet
363 654 m 2
 363 651 l 1
 421 402 l 1
 473 460 524 519 576 578 c 0
 595 601 622 633 622 656 c 2
 622 659 l 2
 622 671 619 680 591 680 c 2
 531 680 l 1
 535 687 540 694 545 701 c 2
 548 712 l 1
 865 712 l 1
 849 680 l 1
 791 680 l 2
 748 680 710 642 683 609 c 0
 603 513 524 416 444 320 c 1
 368 39 l 2
 367 36 366 33 366 32 c 1
 485 32 l 1
 481 25 476 18 472 11 c 2
 469 0 l 1
 107 0 l 1
 120 26 l 1
 122 32 l 1
 223 32 l 2
 234 32 237 34 241 48 c 2
 314 316 l 1
 249 645 l 2
 240 677 234 680 214 680 c 2
 121 680 l 1
 125 687 130 694 134 701 c 2
 137 712 l 1
 479 712 l 1
 473 698 470 695 462 680 c 1
 390 680 l 2
 370 680 362 667 362 660 c 0
 362 658 362 656 363 654 c 2
EndSplineSet
Substitution2: "'c2sc' Capitals to Small Capitals lookup 1 subtable" y.sc
EndChar

StartChar: Z
Encoding: 90 90 59
Width: 688
GlyphClass: 2
Flags: MW
HStem: 0 32<203 387 387 401.5 203 580> 680 32<371.5 397 397 541>
VStem: 116 62<480 493>
AnchorPoint: "Anchor-2" 278 0 basechar 0
AnchorPoint: "Anchor-1" 434 782 basechar 0
AnchorPoint: "Anchor-0" 428 762 basechar 0
LayerCount: 2
Fore
SplineSet
38 0 m 1
 42 19 l 1
 50 50 l 1
 51 53 l 1
 215 262 378 471 541 680 c 1
 397 680 l 2
 346 680 307 660 254 607 c 0
 202 556 181 502 178 493 c 2
 178 480 l 1
 116 480 l 1
 145 556 179 628 210 702 c 2
 214 712 l 1
 700 712 l 1
 696 693 l 1
 688 661 l 1
 687 658 l 1
 525 450 364 241 203 32 c 1
 387 32 l 2
 416 32 456 36 500 75 c 0
 570 133 616 258 616 258 c 1
 619 268 l 1
 676 268 l 1
 583 10 l 1
 580 0 l 1
 38 0 l 1
EndSplineSet
Substitution2: "'c2sc' Capitals to Small Capitals lookup 1 subtable" z.sc
EndChar

StartChar: bracketleft
Encoding: 91 91 60
Width: 372
GlyphClass: 2
Flags: MW
HStem: -213 60<120 239> 667 60<349 479 349 349>
LayerCount: 2
Fore
SplineSet
-2 -213 m 1
 82 97 167 406 251 716 c 2
 254 727 l 1
 495 727 l 1
 491 711 486 694 482 678 c 2
 479 667 l 1
 349 667 l 2
 335 665 340 668 336 658 c 2
 119 -140 l 2
 119 -142 118 -145 118 -147 c 0
 118 -154 120 -153 120 -153 c 1
 255 -153 l 1
 251 -169 246 -186 242 -202 c 2
 239 -213 l 1
 -2 -213 l 1
EndSplineSet
EndChar

StartChar: backslash
Encoding: 92 92 61
Width: 404
GlyphClass: 2
Flags: W
LayerCount: 2
Fore
SplineSet
67 745 m 1
 138 745 l 1
 225 433 312 120 399 -193 c 1
 406 -213 l 1
 334 -213 l 1
 247 99 160 412 73 725 c 1
 67 745 l 1
EndSplineSet
EndChar

StartChar: bracketright
Encoding: 93 93 62
Width: 361
GlyphClass: 2
Flags: MW
HStem: -213 60<-104 42 -88 42 -88 137> 667 60<152 271 136 393>
LayerCount: 2
Fore
SplineSet
-104 -213 m 1
 -100 -197 -95 -180 -91 -164 c 2
 -88 -153 l 1
 42 -153 l 2
 56 -151 51 -154 55 -144 c 2
 272 654 l 2
 272 656 273 659 273 661 c 0
 273 668 271 667 271 667 c 1
 136 667 l 1
 140 683 145 700 149 716 c 2
 152 727 l 1
 393 727 l 1
 309 417 224 108 140 -202 c 2
 137 -213 l 1
 -104 -213 l 1
EndSplineSet
EndChar

StartChar: asciicircum
Encoding: 94 94 63
Width: 543
GlyphClass: 2
Flags: MW
HStem: 708 20G<304 316>
LayerCount: 2
Fore
SplineSet
64 321 m 1
 304 708 l 1
 316 728 l 1
 532 344 l 1
 547 321 l 1
 463 321 l 1
 313 594 l 1
 151 328 l 1
 147 321 l 1
 64 321 l 1
EndSplineSet
EndChar

StartChar: underscore
Encoding: 95 95 64
Width: 490
GlyphClass: 2
Flags: MW
HStem: -173 70<-59 478 -41 461>
LayerCount: 2
Fore
SplineSet
-59 -173 m 1
 -54 -154 -49 -134 -44 -114 c 2
 -41 -103 l 1
 478 -103 l 1
 474 -122 l 1
 464 -162 l 1
 461 -173 l 1
 -59 -173 l 1
EndSplineSet
EndChar

StartChar: grave
Encoding: 96 96 65
AltUni2: 0002cb.ffffffff.0 0002cb.ffffffff.0
Width: 399
GlyphClass: 2
Flags: MW
HStem: 490 191
VStem: 214 95<635 635 635 641>
LayerCount: 2
Fore
SplineSet
321 490 m 1
 290 523 261 559 231 593 c 0
 220 605 214 621 214 635 c 0
 214 647 222 681 260 681 c 0
 287 681 300 663 309 635 c 2
 349 516 l 1
 351 512 l 1
 352 508 l 1
 349 506 l 2
 340 502 327 493 321 490 c 1
EndSplineSet
EndChar

StartChar: a
Encoding: 97 97 66
Width: 559
GlyphClass: 2
Flags: MW
HStem: -12 54<162.5 194> -12 64<392 394 394 406.5 392 418> 402 54<268 313.5> 424 20G<407 498 498 498>
VStem: 43 101<90.5 91 91 96 77 175.5>
AnchorPoint: "Anchor-2" 212 0 basechar 0
AnchorPoint: "Anchor-1" 328 528 basechar 0
AnchorPoint: "Anchor-0" 322 508 basechar 0
LayerCount: 2
Fore
SplineSet
299 402 m 0xa8
 237 402 146 228 144 96 c 2
 144 91 l 2
 144 63 153 42 172 42 c 0
 262 42 347 252 349 331 c 2
 349 336 l 2
 349 384 328 402 299 402 c 0xa8
164 -12 m 0
 87 -12 43 50 43 131 c 0
 43 220 79 298 104 336 c 0
 150 405 225 456 301 456 c 0xa8
 336 456 372 437 392 395 c 1
 404 433 l 1
 407 444 l 1
 498 444 l 1
 468 340 437 237 406 134 c 0
 402 120 391 82 391 63 c 0
 391 57 392 53 392 52 c 1
 394 52 l 2x58
 419 52 461 109 492 202 c 2
 497 216 l 1
 510 211 l 1
 530 205 l 1
 545 201 l 1
 540 186 l 2
 513 106 462 -12 374 -12 c 0
 315 -12 305 47 303 82 c 1
 273 40 224 -12 164 -12 c 0
EndSplineSet
Substitution2: "'smcp' Lowercase to Small Capitals lookup 0 subtable" a.sc
EndChar

StartChar: b
Encoding: 98 98 67
Width: 501
GlyphClass: 2
Flags: MW
HStem: -12 54<192 232> 402 54<344 365.5> 658 54<121 219 105 341>
VStem: 76 90<90 144 90 152> 385 102<261 342 261 357.5>
AnchorPoint: "Anchor-2" 196 0 basechar 0
AnchorPoint: "Anchor-1" 372 528 basechar 0
LayerCount: 2
Fore
SplineSet
197 -12 m 0
 131 -12 76 46 76 140 c 2
 76 144 l 2
 76 160 77 177 83 195 c 2
 218 655 l 2
 219 657 219 658 219 658 c 1
 105 658 l 1
 110 672 114 687 118 701 c 2
 121 712 l 1
 341 712 l 1
 308 607 274 501 241 396 c 1
 276 431 319 456 369 456 c 0
 452 456 487 372 487 305 c 0
 487 217 426 106 372 52 c 1
 322 11 267 -12 197 -12 c 0
359 402 m 0
 271 402 170 229 166 115 c 1
 166 104 l 2
 166 76 171 42 213 42 c 0
 254 42 292 91 319 134 c 0
 358 194 385 266 385 339 c 2
 385 342 l 2
 385 373 372 402 359 402 c 0
EndSplineSet
Substitution2: "'smcp' Lowercase to Small Capitals lookup 0 subtable" b.sc
EndChar

StartChar: c
Encoding: 99 99 68
Width: 459
GlyphClass: 2
Flags: MW
HStem: -12 54<193 253.5> 402 54<289 334.5>
VStem: 52 101<79 241.5> 307 128<297.5 384>
AnchorPoint: "Anchor-2" 180 0 basechar 0
AnchorPoint: "Anchor-1" 320 528 basechar 0
AnchorPoint: "Anchor-0" 314 508 basechar 0
LayerCount: 2
Fore
SplineSet
52 162 m 0
 52 321 175 456 326 456 c 0
 372 456 435 427 435 341 c 0
 435 295 404 256 363 256 c 0
 326 256 307 286 307 309 c 0
 308 341 331 361 346 373 c 0
 351 377 351 380 352 387 c 0
 351 389 348 402 321 402 c 0
 257 402 207 309 181 251 c 0
 164 210 154 135 154 108 c 0
 153 106 153 105 153 104 c 0
 153 54 180 42 206 42 c 0
 305 42 355 152 363 175 c 2
 368 189 l 1
 379 185 391 181 403 177 c 2
 418 172 l 1
 413 158 l 2
 382 69 308 -12 199 -12 c 0
 107 -12 52 72 52 162 c 0
EndSplineSet
Substitution2: "'smcp' Lowercase to Small Capitals lookup 0 subtable" c.sc
EndChar

StartChar: d
Encoding: 100 100 69
Width: 554
GlyphClass: 2
Flags: MW
HStem: -12 54<162.5 194> -12 64<390 392 392 404 390 417> 402 54<272 312.5> 658 54<375 466 358 571>
VStem: 42 102<90.5 91 91 96 77 176> 302 86
AnchorPoint: "Anchor-2" 212 0 basechar 0
AnchorPoint: "Anchor-1" 286 528 basechar 0
LayerCount: 2
Fore
SplineSet
164 -12 m 0xbc
 87 -12 42 50 42 131 c 0
 42 221 91 306 116 343 c 0
 163 414 239 456 305 456 c 0
 340 456 373 435 390 398 c 1
 466 654 l 1
 466 658 l 1
 358 658 l 1
 363 672 367 687 371 701 c 2
 375 712 l 1
 571 712 l 1
 516 519 460 328 404 136 c 0
 399 122 389 83 388 63 c 0
 388 57 389 53 390 52 c 2
 392 52 l 2x7c
 416 52 462 111 492 202 c 2
 496 216 l 1
 510 211 l 1
 530 205 l 1
 546 201 l 1
 540 186 l 2
 512 106 462 -12 372 -12 c 0
 314 -12 303 47 302 82 c 1
 272 40 224 -12 164 -12 c 0xbc
298 402 m 0
 236 402 144 225 144 96 c 2
 144 91 l 2
 144 63 153 42 172 42 c 0xbc
 261 42 346 255 348 331 c 2
 348 336 l 2
 348 384 327 402 298 402 c 0
EndSplineSet
Substitution2: "'smcp' Lowercase to Small Capitals lookup 0 subtable" d.sc
EndChar

StartChar: e
Encoding: 101 101 70
Width: 446
GlyphClass: 2
Flags: MW
HStem: -12 54<193 254> 402 54<300 331>
VStem: 52 101<79 200> 349 77<363 367 367 382.5>
AnchorPoint: "Anchor-2" 182 0 basechar 0
AnchorPoint: "Anchor-1" 318 528 basechar 0
AnchorPoint: "Anchor-0" 312 508 basechar 0
LayerCount: 2
Fore
SplineSet
199 293 m 0
 195 285 186 258 181 242 c 1
 213 244 249 250 284 264 c 0
 321 279 348 315 349 363 c 2
 349 367 l 2
 349 398 337 402 325 402 c 0
 275 402 219 342 199 293 c 0
199 -12 m 0
 107 -12 52 72 52 162 c 0
 52 238 81 319 144 381 c 0
 193 425 260 456 326 456 c 0
 373 456 426 433 426 364 c 0
 426 304 379 261 317 234 c 0
 263 213 205 207 165 204 c 1
 160 180 154 141 154 108 c 0
 154 107 153 106 153 104 c 0
 153 54 180 42 206 42 c 0
 307 42 355 152 363 175 c 2
 368 189 l 1
 379 185 391 181 403 177 c 2
 418 172 l 1
 413 158 l 2
 382 69 309 -12 199 -12 c 0
EndSplineSet
Substitution2: "'smcp' Lowercase to Small Capitals lookup 0 subtable" e.sc
EndChar

StartChar: f
Encoding: 102 102 71
Width: 366
GlyphClass: 2
Flags: MW
HStem: -238 54<-28.2568 -11.7568 -28.2568 48.2432> 398 58<90.2432 180.243 81.2432 194.243 300.243 403.243> 648 54<400.743 416.243>
VStem: -146.756 82 452.244 82
LayerCount: 2
Fore
SplineSet
395.243164062 586 m 0
 393.243164062 612 411.243164062 628 416.243164062 631 c 2
 417.243164062 631 l 1
 425.243164062 635 423.243164062 638 423.243164062 640 c 0
 423.243164062 644 422.243164062 648 410.243164062 648 c 0
 391.243164062 648 343.243164062 647 307.243164062 487 c 2
 300.243164062 456 l 1
 411.243164062 456 l 1
 409.243164062 441 407.243164062 425 405.243164062 410 c 2
 403.243164062 398 l 1
 286.243164062 398 l 1
 193.243164062 6 l 2
 174.243164062 -77 119.243164062 -238 -22.7568359375 -238 c 0
 -79.7568359375 -238 -116.756835938 -190 -119.756835938 -151 c 0
 -122.756835938 -108 -97.7568359375 -74 -59.7568359375 -74 c 0
 -30.7568359375 -74 -9.7568359375 -95 -7.7568359375 -122 c 0
 -5.7568359375 -144 -12.7568359375 -151 -27.7568359375 -167 c 1
 -28.7568359375 -167 l 1
 -36.7568359375 -171 -35.7568359375 -174 -35.7568359375 -176 c 0
 -35.7568359375 -180 -33.7568359375 -184 -22.7568359375 -184 c 0
 -0.7568359375 -184 45.2431640625 -183 81.2431640625 -23 c 2
 180.243164062 398 l 1
 81.2431640625 398 l 1
 83.2431640625 413 86.2431640625 429 88.2431640625 444 c 2
 90.2431640625 456 l 1
 194.243164062 456 l 1
 197.243164062 464 210.243164062 530 241.243164062 586 c 0
 251.243164062 605 306.243164062 702 410.243164062 702 c 0
 468.243164062 702 504.243164062 654 507.243164062 615 c 0
 510.243164062 572 486.243164062 538 447.243164062 538 c 0
 419.243164062 538 397.243164062 559 395.243164062 586 c 0
EndSplineSet
Substitution2: "'smcp' Lowercase to Small Capitals lookup 0 subtable" f.sc
EndChar

StartChar: g
Encoding: 103 103 72
Width: 509
GlyphClass: 2
Flags: MW
HStem: -248 54<92 118 92 181> -12 54<168 193.5> 402 54<278.5 319> 424 20G<412 509 509 509>
VStem: -17 95<-183 -111> -17 123<-115 -114 -115 -111> 42 106<90.5 92 92 96 77.5 176>
AnchorPoint: "Anchor-1" 328 528 basechar 0
AnchorPoint: "Anchor-0" 322 508 basechar 0
LayerCount: 2
Fore
SplineSet
103 -194 m 0xd8
 133 -194 213 -194 270 3 c 1
 270 3 278 28 286 54 c 1
 256 20 217 -12 170 -12 c 0
 87 -12 42 50 42 131 c 0
 42 221 91 306 117 343 c 0
 169 414 245 456 312 456 c 0xe2
 347 456 379 435 399 397 c 1
 403 413 408 428 412 444 c 1
 509 444 l 1
 466 297 423 151 380 4 c 0
 349 -98 252 -248 110 -248 c 0
 40 -248 -17 -207 -17 -135 c 0
 -17 -87 19 -60 52 -60 c 0
 90 -60 106 -90 106 -114 c 2
 106 -115 l 2xd4
 105 -138 93 -156 82 -167 c 0
 78 -170 79 -167 78 -177 c 2
 78 -179 l 2
 78 -187 81 -194 103 -194 c 0xd8
304 402 m 0
 241 402 150 219 148 96 c 2
 148 92 l 2
 148 63 158 42 178 42 c 0
 266 42 354 255 354 331 c 0
 355 333 355 334 355 336 c 0
 355 384 334 402 304 402 c 0
EndSplineSet
Substitution2: "'salt' Stylistic Alternatives lookup 18 subtable" uni1D79
Substitution2: "'ss02' Style Set 2 lookup 12 subtable" uni1D79
AlternateSubs2: "'aalt' Access All Alternates lookup 2 subtable" uni1D79
Substitution2: "'smcp' Lowercase to Small Capitals lookup 0 subtable" g.sc
EndChar

StartChar: h
Encoding: 104 104 73
Width: 538
GlyphClass: 2
Flags: MW
HStem: -12 60<375.5 397 375.5 407> 0 21G<32 128 32 32> 396 60<358 388.5> 658 54<125 227 109 345>
VStem: 288 81<57 91 57 91> 394 79<338 387.5>
AnchorPoint: "Anchor-2" 200 0 basechar 0
AnchorPoint: "Anchor-1" 363 772 basechar 0
AnchorPoint: "Anchor-0" 356 752 basechar 0
LayerCount: 2
Fore
SplineSet
225 316 m 1x7c
 251 359 318 456 398 456 c 0
 447 456 473 416 473 354 c 2
 473 353 l 2
 473 323 463 276 452 252 c 2
 385 113 l 2
 381 104 370 76 369 64 c 0
 369 50 374 48 377 48 c 0
 417 48 465 146 485 202 c 2
 490 215 l 1
 501 212 513 208 524 205 c 2
 538 201 l 1
 533 186 l 2
 502 94 449 -12 365 -12 c 0xbc
 321 -12 288 22 288 86 c 2
 288 91 l 2
 289 121 299 165 309 192 c 2
 378 331 l 2
 383 340 394 368 394 380 c 0
 394 395 390 396 387 396 c 0
 298 396 182 161 151 72 c 2
 132 11 l 1
 128 0 l 1
 32 0 l 1
 96 219 162 437 227 655 c 1
 227 658 l 1
 109 658 l 1
 114 672 118 687 122 701 c 2
 125 712 l 1
 345 712 l 1
 306 579 265 448 225 316 c 1x7c
EndSplineSet
Substitution2: "'smcp' Lowercase to Small Capitals lookup 0 subtable" h.sc
EndChar

StartChar: i
Encoding: 105 105 74
Width: 348
GlyphClass: 2
Flags: MW
HStem: -12 60<184.5 203.5 184.5 214.5> 396 60<179.5 198.5> 571 134<254 292>
VStem: 104 75<64 91 64 106> 203 75<338 380> 206 134<619 657>
AnchorPoint: "Anchor-2" 158 0 basechar 0
LayerCount: 2
Fore
SplineSet
39 243 m 1xf8
 44 258 l 2
 76 350 129 456 208 456 c 0
 249 456 278 416 278 354 c 2
 278 353 l 2
 278 323 268 276 257 252 c 2
 193 113 l 2
 189 104 179 76 179 64 c 0
 178 50 183 48 186 48 c 0
 221 48 269 146 290 202 c 2
 295 215 l 1
 306 212 317 208 328 205 c 2
 343 201 l 1
 338 186 l 2
 307 94 254 -12 175 -12 c 0
 135 -12 104 24 104 90 c 2
 104 91 l 2
 104 121 113 165 125 192 c 2
 189 331 l 2
 193 340 203 368 203 380 c 0
 204 395 200 396 197 396 c 0
 162 396 113 297 92 242 c 2
 87 229 l 1
 76 232 65 236 54 239 c 2
 39 243 l 1xf8
206 638 m 0xf4
 206 676 235 705 273 705 c 0
 311 705 340 676 340 638 c 0
 340 600 311 571 273 571 c 0
 235 571 206 600 206 638 c 0xf4
EndSplineSet
Substitution2: "Single Substitution lookup 30 subtable" dotlessi
AlternateSubs2: "'aalt' Access All Alternates lookup 2 subtable" dotlessi
Substitution2: "'smcp' Lowercase to Small Capitals lookup 0 subtable" i.sc
EndChar

StartChar: j
Encoding: 106 106 75
Width: 306
GlyphClass: 2
Flags: MW
HStem: -248 44<-5 18 -5 48> 412 44<201.5 229.5> 581 114<300.5 333.5>
VStem: -97 79<-187 -182 -192.5 -131.5> 238 82<379.5 387 362.5 398.5> 260 114<621.5 654.5>
LayerCount: 2
Fore
SplineSet
57 253 m 1xf8
 95 347 157 456 246 456 c 0
 309 456 320 400 320 374 c 0
 320 351 313 315 309 298 c 2
 213 -44 l 2
 183 -142 99 -248 -3 -248 c 0
 -40 -248 -97 -221 -97 -153 c 0
 -97 -110 -63 -75 -27 -75 c 0
 2 -75 21 -95 21 -123 c 0
 21 -142 11 -161 -7 -172 c 0
 -15 -177 -18 -178 -18 -186 c 0
 -18 -199 -13 -204 3 -204 c 0
 33 -204 73 -188 96 -116 c 0
 104 -92 115 -40 124 -11 c 2
 224 322 l 2
 228 339 238 367 238 392 c 0
 238 405 233 412 226 412 c 0
 176 412 108 269 101 242 c 1
 91 244 l 1
 68 250 l 1
 63 252 l 1
 57 253 l 1xf8
317 581 m 0
 284 581 260 605 260 638 c 0
 260 671 284 695 317 695 c 0
 350 695 374 671 374 638 c 0xf4
 374 605 350 581 317 581 c 0
EndSplineSet
Substitution2: "Single Substitution lookup 30 subtable" dotlessj
AlternateSubs2: "'aalt' Access All Alternates lookup 2 subtable" dotlessj
Substitution2: "'smcp' Lowercase to Small Capitals lookup 0 subtable" j.sc
EndChar

StartChar: k
Encoding: 107 107 76
Width: 541
GlyphClass: 2
Flags: MW
HStem: -12 65<377.5 382 377.5 403.5> 0 21G<32 129 32 32> 211 54<214 253 198 263> 386 70<420 452.5 424 452.5> 658 54<125 229 109 357>
VStem: 261 111<61.5 77 61.5 102> 288 107<170.5 186 145 194.5> 428 100<385 386 386 386>
AnchorPoint: "Anchor-2" 196 0 basechar 0
AnchorPoint: "Anchor-1" 286 782 basechar 0
AnchorPoint: "Anchor-0" 280 762 basechar 0
LayerCount: 2
Fore
SplineSet
288 183 m 0xbb
 288 206 280 211 253 211 c 2
 198 211 l 1
 132 11 l 1
 129 0 l 1
 32 0 l 1
 97 219 163 437 228 655 c 0
 228 656 229 658 229 658 c 1
 109 658 l 1
 114 672 118 687 122 701 c 2
 125 712 l 1
 357 712 l 1
 309 563 262 414 214 265 c 1
 263 265 l 2
 299 265 335 350 345 375 c 0
 368 438 417 456 451 456 c 0
 454 456 528 455 528 369 c 0
 528 326 502 292 463 292 c 0
 442 292 412 307 412 341 c 0
 412 366 428 378 428 385 c 2
 428 386 l 1
 424 386 l 2
 416 386 410 380 402 360 c 0
 400 355 371 277 335 244 c 1
 368 232 395 205 395 167 c 0x7b
 395 123 372 87 372 67 c 0
 372 56 376 53 379 53 c 0
 385 53 382 51 397 61 c 0
 432 87 459 160 475 202 c 2
 480 215 l 1
 491 212 503 208 514 205 c 2
 529 201 l 1
 524 186 l 2
 495 105 447 -12 360 -12 c 0
 313 -12 261 13 261 77 c 0xbd
 261 127 288 158 288 183 c 0xbb
EndSplineSet
Substitution2: "'smcp' Lowercase to Small Capitals lookup 0 subtable" k.sc
EndChar

StartChar: l
Encoding: 108 108 77
Width: 311
GlyphClass: 2
Flags: MW
HStem: -12 64<152 154 154 166.5 152 180.5> 658 54<121 215 105 327>
VStem: 62 88<60 111>
AnchorPoint: "Anchor-2" 112 0 basechar 0
AnchorPoint: "Anchor-1" 260 782 basechar 0
AnchorPoint: "Anchor-0" 254 762 basechar 0
LayerCount: 2
Fore
SplineSet
135 -12 m 0
 67 -12 62 65 62 100 c 0
 62 122 70 149 73 161 c 2
 215 655 l 1
 215 658 l 1
 105 658 l 1
 110 672 114 687 118 701 c 2
 121 712 l 1
 327 712 l 1
 274 522 220 334 166 145 c 0
 162 130 150 84 150 63 c 0
 150 57 151 53 152 52 c 2
 154 52 l 2
 179 52 221 122 248 202 c 2
 253 216 l 1
 266 211 l 1
 286 205 l 1
 302 201 l 1
 296 186 l 2
 274 125 226 -12 135 -12 c 0
EndSplineSet
Substitution2: "'smcp' Lowercase to Small Capitals lookup 0 subtable" l.sc
EndChar

StartChar: m
Encoding: 109 109 78
Width: 844
GlyphClass: 2
Flags: MW
HStem: -12 60<678.5 699 678.5 709.5> 0 21G<87 185 87 87 316 418 316 316> 396 60<172 188 188 191 406.5 414 656.5 684.5>
VStem: 192 93<343.5 387.5> 426 93<363.5 374 341 384> 585 87<57.5 70 57 106> 691 83<374 384 338 387.5>
AnchorPoint: "Anchor-2" 352 0 basechar 0
AnchorPoint: "Anchor-1" 494 528 basechar 0
AnchorPoint: "Anchor-0" 488 508 basechar 0
LayerCount: 2
Fore
SplineSet
514 310 m 1x7e
 555 374 613 456 693 456 c 0
 745 456 774 415 774 353 c 0
 774 323 764 276 753 252 c 2
 687 113 l 2
 683 104 672 76 672 64 c 0
 672 50 677 48 680 48 c 0
 718 48 766 146 786 202 c 2
 791 215 l 1
 802 212 814 208 825 205 c 2
 839 201 l 1
 834 186 l 2
 803 94 750 -12 669 -12 c 0xbe
 622 -12 585 24 585 91 c 0
 585 121 595 165 608 192 c 2
 675 331 l 2
 680 340 691 368 691 380 c 0
 691 395 686 396 683 396 c 0
 630 396 584 328 563 298 c 0
 504 212 459 123 442 72 c 2
 421 11 l 1
 418 0 l 1
 316 0 l 1
 346 102 377 203 408 305 c 0
 414 324 426 353 426 374 c 0
 426 394 419 396 409 396 c 0
 404 396 380 378 352 340 c 0
 296 262 228 127 209 72 c 2
 189 11 l 1
 185 0 l 1
 87 0 l 1
 117 103 147 205 177 308 c 0
 181 322 192 364 192 384 c 0
 192 391 191 395 191 396 c 1
 188 396 l 2
 156 396 113 309 93 255 c 2
 88 243 l 1
 74 246 l 1
 54 252 l 1
 39 256 l 1
 45 270 l 2
 64 323 114 456 207 456 c 0
 277 456 285 384 285 345 c 0
 285 342 285 340 284 338 c 0
 284 331 283 321 281 311 c 1
 299 341 l 2
 334 397 376 456 423 456 c 0
 496 456 519 402 519 346 c 0
 519 336 517 323 514 310 c 1x7e
EndSplineSet
Substitution2: "'smcp' Lowercase to Small Capitals lookup 0 subtable" m.sc
EndChar

StartChar: n
Encoding: 110 110 79
Width: 589
GlyphClass: 2
Flags: MW
HStem: -12 60<422 443.5 422 453> 0 21G<87 177 87 87> 426 30<416 438>
VStem: 193 87<347 384> 336 80<57 99 57 99> 443 76<338 409>
AnchorPoint: "Anchor-2" 260 0 basechar 0
AnchorPoint: "Anchor-1" 356 528 basechar 0
AnchorPoint: "Anchor-0" 350 508 basechar 0
LayerCount: 2
Fore
SplineSet
276 311 m 1x7c
 310 365 368 456 446 456 c 0
 494 456 519 416 519 354 c 2
 519 353 l 2
 519 323 509 276 498 252 c 2
 432 113 l 2
 427 104 416 76 416 64 c 0
 416 50 420 48 424 48 c 0
 463 48 511 146 531 202 c 2
 536 215 l 1
 547 212 558 208 569 205 c 2
 584 201 l 1
 579 186 l 2
 548 94 495 -12 411 -12 c 0xbc
 369 -12 336 25 336 93 c 2
 336 99 l 2
 337 131 347 178 360 207 c 2
 427 356 l 2
 432 366 443 396 443 409 c 0
 444 425 439 426 437 426 c 0
 395 426 351 370 321 320 c 0
 264 227 219 132 202 77 c 2
 180 11 l 1
 177 0 l 1
 87 0 l 1
 116 102 147 203 177 305 c 0
 181 320 193 361 193 381 c 0
 193 387 192 391 192 392 c 1
 189 392 l 2
 162 392 120 322 93 242 c 2
 88 228 l 1
 74 233 l 1
 54 239 l 1
 39 243 l 1
 44 258 l 2
 64 315 114 456 210 456 c 0
 272 456 280 388 280 349 c 0
 280 345 279 342 279 339 c 0
 279 331 278 320 276 311 c 1x7c
EndSplineSet
Substitution2: "'smcp' Lowercase to Small Capitals lookup 0 subtable" n.sc
EndChar

StartChar: o
Encoding: 111 111 80
Width: 493
GlyphClass: 2
Flags: MW
HStem: -12 54<187 250 187 276> 402 54<293.5 335>
VStem: 52 102<108 109 109 113 87.5 236> 367 101<331 336 208.5 357.5>
AnchorPoint: "Anchor-2" 191 0 basechar 0
AnchorPoint: "Anchor-1" 320 528 basechar 0
AnchorPoint: "Anchor-0" 314 508 basechar 0
LayerCount: 2
Fore
SplineSet
197 -12 m 0
 126 -12 52 49 52 167 c 0
 52 305 168 456 325 456 c 0
 396 456 468 395 468 277 c 0
 468 140 355 -12 197 -12 c 0
203 42 m 0
 297 42 365 231 367 331 c 2
 367 336 l 2
 367 379 351 402 319 402 c 0
 268 402 232 354 205 301 c 0
 174 245 154 169 154 113 c 2
 154 109 l 2
 154 66 171 42 203 42 c 0
EndSplineSet
Substitution2: "'smcp' Lowercase to Small Capitals lookup 0 subtable" o.sc
EndChar

StartChar: p
Encoding: 112 112 81
Width: 578
GlyphClass: 2
Flags: W
HStem: -238 53<-60.8574 36.7208 129.04 257.954> -12 49<243.261 322.292> 407 49<355.666 430.438>
VStem: 437.659 97.8915<219.339 401.26>
AnchorPoint: "Anchor-1" 354 528 basechar 0
AnchorPoint: "Anchor-0" 348 508 basechar 0
LayerCount: 2
Fore
SplineSet
278.348331171 37 m 0
 350.939630548 37 437.659140398 215.899017532 437.659140398 339.273040487 c 0
 437.659140398 386.078200679 425.177926278 407 401.590034302 407 c 0
 333.343634008 407 230.775117044 231.862046763 230.775117044 114.753542132 c 0
 230.775117044 63.5493145461 250.383818915 37 278.348331171 37 c 0
287.673828125 380.04296875 m 5
 326.170752022 429.604420134 368.725484018 456 415.072423654 456 c 0
 435.449705756 456 535.550605107 448.80460295 535.550605107 307.418123018 c 0
 535.550605107 145.55081997 414.868355683 -12 292.506748739 -12 c 0
 245.250697654 -12 211.033112046 11.4987726127 191.978449441 52.4150390625 c 1
 129.260576966 -183.209732794 129.260576966 -183.209732794 128.980923999 -184.665039062 c 1
 130.228085862 -184.884214789 131.751555687 -185 133.388247514 -185 c 2
 273.23601292 -185 l 1
 273.23601292 -172.5 257.954269084 -225.5 257.954269084 -238 c 1
 -76 -238 l 1
 -76 -225.5 -60.857421875 -172.5 -60.857421875 -185 c 1
 22.57421875 -185 l 2
 32.4014130232 -185 34.8195393476 -182.961100422 130.86057553 158.80938474 c 0
 175.315967625 317.0078125 175.315967625 317.0078125 184.141455568 352.557617188 c 1
 156.529844259 311.290996906 137.070401176 279.686394487 119.113722961 246.944335938 c 1
 119.113722961 243.651855469 49.2696687923 255.041503906 49.2696687923 258.333984375 c 1
 124.739012472 363.447243186 201.166922134 471.976195833 220.809653123 503.195841983 c 0
 234.503962047 524.96122069 243.354656369 532.0234375 258.02465456 532.0234375 c 0
 284.711496951 532.0234375 288.045684313 507.492644495 288.045684313 478.662359141 c 0
 288.045684313 450.631783732 284.591481896 415.260922495 277.183090442 365.798828125 c 1
 277.621018694 366.426128326 281 371 287.673828125 380.04296875 c 5
EndSplineSet
Substitution2: "'smcp' Lowercase to Small Capitals lookup 0 subtable" p.sc
EndChar

StartChar: q
Encoding: 113 113 82
Width: 519
GlyphClass: 2
Flags: MW
HStem: -238 58<77 202 202 207.5 325 414 61 202> -12 54<162.5 189> 402 54<275.5 317> 424 20G<457 501 501 501>
VStem: 42 102<90.5 91 91 96 77 176>
AnchorPoint: "Anchor-1" 328 528 basechar 0
AnchorPoint: "Anchor-0" 322 508 basechar 0
LayerCount: 2
Fore
SplineSet
165 -12 m 0xd8
 87 -12 42 50 42 131 c 0
 42 221 91 306 116 343 c 0
 163 414 241 456 310 456 c 0xe8
 351 456 392 429 406 366 c 1
 457 444 l 1
 501 444 l 1
 443 237 384 30 326 -177 c 0
 326 -178 325 -180 325 -180 c 1
 430 -180 l 1
 426 -196 421 -211 417 -227 c 2
 414 -238 l 1
 61 -238 l 1
 65 -222 70 -207 74 -191 c 2
 77 -180 l 1
 202 -180 l 2
 213 -180 212 -181 215 -169 c 2
 215 -169 257 -37 284 52 c 1
 253 17 213 -12 165 -12 c 0xd8
302 402 m 0
 239 402 144 228 144 96 c 2
 144 91 l 2
 144 63 153 42 172 42 c 0
 269 42 354 267 354 336 c 0
 354 384 332 402 302 402 c 0
EndSplineSet
Substitution2: "'smcp' Lowercase to Small Capitals lookup 0 subtable" q.sc
EndChar

StartChar: r
Encoding: 114 114 83
Width: 461
GlyphClass: 2
Flags: MW
HStem: 0 21G<87 178 87 87> 300 156<400.5 439.5> 392 64<176 190 190 193>
VStem: 195 90<345 384> 362 131<352 395.5 359.5 360>
AnchorPoint: "Anchor-2" 128 0 basechar 0
AnchorPoint: "Anchor-1" 296 528 basechar 0
AnchorPoint: "Anchor-0" 290 508 basechar 0
LayerCount: 2
Fore
SplineSet
285 345 m 1xb8
 308 382 354 456 411 456 c 0
 468 456 493 414 493 377 c 0
 493 342 467 300 416 300 c 0xd8
 385 300 362 324 362 352 c 2
 362 354 l 2
 362 366 366 377 372 385 c 1
 296 309 211 94 202 69 c 2
 181 11 l 1
 178 0 l 1
 87 0 l 1
 117 102 148 203 178 305 c 0
 182 320 195 361 195 381 c 0
 195 387 194 391 193 392 c 2
 190 392 l 2
 162 392 119 319 93 242 c 2
 88 228 l 1
 74 233 l 1
 54 239 l 1
 39 243 l 1
 44 258 l 2
 64 315 114 456 212 456 c 0
 278 456 285 385 285 348 c 2
 285 345 l 1xb8
EndSplineSet
Substitution2: "'smcp' Lowercase to Small Capitals lookup 0 subtable" r.sc
EndChar

StartChar: s
Encoding: 115 115 84
Width: 454
GlyphClass: 2
Flags: MW
HStem: -12 54<167.5 224.5 167.5 246.5> 402 54<288 298 288 288>
VStem: 25 75<88 89.5 69 135> 119 87<317.5 330 330 335 317.5 363> 292 91<103 116> 322 123<292.5 350.5>
AnchorPoint: "Anchor-2" 156 0 basechar 0
AnchorPoint: "Anchor-1" 296 528 basechar 0
AnchorPoint: "Anchor-0" 290 508 basechar 0
LayerCount: 2
Fore
SplineSet
322 309 m 0xf4
 325 336 340 354 362 365 c 1
 361 384 332 402 298 402 c 2
 288 402 l 1
 245 398 207 376 206 335 c 2
 206 330 l 2
 206 305 212 304 229 294 c 2
 329 229 l 2
 352 212 383 187 383 140 c 0
 383 66 313 -12 180 -12 c 0
 78 -12 25 55 25 121 c 0
 25 149 42 202 95 202 c 0
 121 202 148 182 148 148 c 0
 147 124 134 108 116 102 c 0
 104 98 100 97 100 82 c 0
 100 56 148 42 187 42 c 0
 262 42 292 74 292 106 c 0xf8
 292 126 282 146 263 158 c 2
 177 216 l 1
 141 235 119 266 119 312 c 0
 119 414 232 456 306 456 c 0
 401 456 445 372 445 329 c 0
 445 297 426 257 378 257 c 0
 353 257 322 276 322 309 c 0xf4
EndSplineSet
Substitution2: "'smcp' Lowercase to Small Capitals lookup 0 subtable" s.sc
EndChar

StartChar: t
Encoding: 116 116 85
Width: 332
GlyphClass: 2
Flags: MW
HStem: -12 65<152 174 152 186> 386 58<81 135 66 151 248 340> 664 20G<216 313 313 313>
VStem: 56 88<64 72 64 97.5>
AnchorPoint: "Anchor-2" 120 0 basechar 0
AnchorPoint: "Anchor-1" 266 782 basechar 0
AnchorPoint: "Anchor-0" 260 762 basechar 0
LayerCount: 2
Fore
SplineSet
143 -12 m 0
 94 -12 56 25 56 80 c 0
 56 115 64 144 68 160 c 2
 135 386 l 1
 66 386 l 1
 70 401 74 417 78 433 c 2
 81 444 l 1
 151 444 l 1
 173 524 194 604 216 684 c 1
 313 684 l 1
 292 604 270 524 248 444 c 1
 355 444 l 1
 351 429 347 413 343 397 c 2
 340 386 l 1
 232 386 l 1
 152 113 l 2
 148 103 144 78 144 66 c 0
 144 62 147 53 157 53 c 0
 191 53 217 135 236 201 c 2
 240 216 l 1
 251 212 263 208 275 205 c 2
 288 201 l 1
 285 187 l 2
 264 99 229 -12 143 -12 c 0
EndSplineSet
Substitution2: "'smcp' Lowercase to Small Capitals lookup 0 subtable" t.sc
EndChar

StartChar: u
Encoding: 117 117 86
Width: 589
GlyphClass: 2
Flags: MW
HStem: -12 60<186 221.5 431 434 434 447.5> 396 60<180.5 201.5> 424 20G<447 536 536 536>
VStem: 104 77<56.5 91 56.5 106> 207 81<353 380> 344 86<56 105 56 109>
AnchorPoint: "Anchor-2" 262 0 basechar 0
AnchorPoint: "Anchor-1" 354 528 basechar 0
AnchorPoint: "Anchor-0" 348 508 basechar 0
LayerCount: 2
Fore
SplineSet
347 133 m 1xbc
 342 124 266 -12 177 -12 c 0
 130 -12 104 28 104 90 c 2
 104 91 l 2
 104 121 114 168 125 192 c 2
 191 331 l 2
 196 340 207 368 207 380 c 0
 208 394 203 396 200 396 c 0
 161 396 113 298 92 242 c 2
 87 229 l 1
 76 232 65 236 54 239 c 2
 39 243 l 1
 44 258 l 2
 76 350 128 456 212 456 c 0xdc
 255 456 288 422 288 358 c 2
 288 353 l 2
 287 323 277 279 264 252 c 2
 197 113 l 2
 192 104 181 76 181 64 c 0
 181 49 185 48 187 48 c 0
 280 48 406 326 422 373 c 2
 443 434 l 1
 447 444 l 1
 536 444 l 1
 506 341 476 239 446 136 c 0
 442 121 430 79 430 59 c 0
 430 53 431 49 431 48 c 1
 434 48 l 2
 461 48 503 114 530 189 c 2
 535 201 l 1
 549 198 l 1
 569 192 l 1
 584 188 l 1
 579 174 l 2
 559 121 509 -12 413 -12 c 0
 351 -12 344 56 344 95 c 2
 344 105 l 2
 344 113 346 124 347 133 c 1xbc
EndSplineSet
Substitution2: "'smcp' Lowercase to Small Capitals lookup 0 subtable" u.sc
EndChar

StartChar: v
Encoding: 118 118 87
Width: 499
GlyphClass: 2
Flags: MW
HStem: -12 54<196.5 233> 328 128<413 413> 396 60<181 203>
VStem: 104 78<52.5 91 52.5 106> 209 84<352 380> 431 66<310 315.5>
AnchorPoint: "Anchor-2" 182 0 basechar 0
AnchorPoint: "Anchor-1" 312 528 basechar 0
AnchorPoint: "Anchor-0" 306 508 basechar 0
LayerCount: 2
Fore
SplineSet
208 42 m 0xbc
 335 42 431 222 431 306 c 0
 431 325 423 325 413 328 c 0
 389 332 348 351 348 394 c 2
 348 395 l 2
 349 431 378 456 412 456 c 0xdc
 480 456 497 383 497 337 c 0
 497 283 464 157 385 71 c 0
 337 23 272 -12 194 -12 c 0
 147 -12 104 25 104 90 c 2
 104 91 l 2
 104 121 114 168 125 192 c 2
 193 331 l 2
 198 340 209 368 209 380 c 0
 210 394 205 396 201 396 c 0
 161 396 113 298 92 242 c 2
 87 229 l 1
 76 232 65 236 54 239 c 2
 39 243 l 1
 44 258 l 2
 76 350 128 456 214 456 c 0
 258 456 293 422 293 357 c 2
 293 352 l 2
 292 323 282 279 268 252 c 2
 199 113 l 2
 194 104 182 76 182 63 c 2
 182 60 l 2
 182 45 185 42 208 42 c 0xbc
EndSplineSet
Substitution2: "'smcp' Lowercase to Small Capitals lookup 0 subtable" v.sc
EndChar

StartChar: w
Encoding: 119 119 88
Width: 729
GlyphClass: 2
Flags: MW
HStem: -12 54<191.5 223 443 475.5> 328 128<643 643> 396 60<180 200.5> 424 20G<439 542 542 542>
VStem: 104 76<52 91 52 106> 206 78<352 387> 339 93<54.5 101 54.5 101> 661 66<311.5 315.5>
AnchorPoint: "Anchor-2" 324 0 basechar 0
AnchorPoint: "Anchor-1" 462 528 basechar 0
AnchorPoint: "Anchor-0" 456 508 basechar 0
LayerCount: 2
Fore
SplineSet
339 101 m 1xcf
 321 75 258 -12 188 -12 c 0
 140 -12 104 26 104 90 c 2
 104 91 l 2
 104 121 114 168 125 192 c 2
 191 331 l 2
 195 340 206 368 206 380 c 0
 206 394 202 396 199 396 c 0
 161 396 113 298 92 242 c 2
 87 229 l 1
 76 232 65 236 54 239 c 2
 39 243 l 1
 44 258 l 2
 76 350 128 456 210 456 c 0xaf
 252 456 284 422 284 358 c 2
 284 352 l 2
 283 323 273 279 261 252 c 2
 196 113 l 2
 191 104 181 76 180 63 c 2
 180 60 l 2
 180 44 184 42 199 42 c 0
 260 42 365 207 402 322 c 0
 414 363 427 403 439 444 c 1
 542 444 l 1x9f
 509 333 474 224 440 114 c 0
 435 94 432 71 432 60 c 2
 432 59 l 2
 432 50 437 42 449 42 c 0
 566 42 661 221 661 306 c 0
 661 325 655 325 643 328 c 0
 620 332 581 351 581 394 c 2
 581 395 l 2
 582 431 608 456 642 456 c 0
 710 456 727 383 727 337 c 0
 727 286 697 170 627 84 c 0
 581 30 515 -12 436 -12 c 0
 387 -12 339 17 339 93 c 2
 339 101 l 1xcf
EndSplineSet
Substitution2: "'smcp' Lowercase to Small Capitals lookup 0 subtable" w.sc
EndChar

StartChar: x
Encoding: 120 120 89
Width: 584
GlyphClass: 2
Flags: MW
HStem: -12 54<116 142.5 116 149.5 343 377> 402 54<225 259 476 486.5>
VStem: 445 131<329 392 331 392>
AnchorPoint: "Anchor-2" 230 0 basechar 0
AnchorPoint: "Anchor-1" 360 528 basechar 0
AnchorPoint: "Anchor-0" 356 508 basechar 0
LayerCount: 2
Fore
SplineSet
115 -12 m 0
 66 -12 27 21 27 74 c 0
 27 131 66 168 106 168 c 0
 128 168 157 153 157 115 c 2
 157 113 l 2
 157 80 137 60 119 51 c 0
 114 49 111 47 111 47 c 1
 111 43 l 1
 112 43 114 42 118 42 c 0
 167 42 216 112 246 207 c 2
 273 292 l 2
 282 317 282 337 282 349 c 2
 282 353 l 2
 282 384 271 402 247 402 c 0
 203 402 141 333 114 268 c 2
 109 255 l 1
 96 260 l 1
 60 272 l 1
 66 287 l 2
 95 359 158 456 257 456 c 0
 315 456 342 413 351 373 c 1
 387 419 433 456 487 456 c 0
 543 456 576 414 576 370 c 0
 576 320 542 276 497 276 c 0
 475 276 445 290 445 329 c 2
 445 331 l 2
 446 360 462 379 481 389 c 0
 493 394 491 394 492 401 c 1
 490 401 488 402 485 402 c 0
 467 402 408 389 356 237 c 2
 329 152 l 2
 321 129 320 107 320 95 c 2
 320 91 l 2
 320 60 331 42 355 42 c 0
 399 42 461 111 488 176 c 2
 493 189 l 1
 506 184 l 1
 542 172 l 1
 537 157 l 1
 507 85 444 -12 346 -12 c 0
 288 -12 260 31 251 71 c 1
 235 51 184 -12 115 -12 c 0
EndSplineSet
Substitution2: "'smcp' Lowercase to Small Capitals lookup 0 subtable" x.sc
EndChar

StartChar: y
Encoding: 121 121 90
Width: 533
GlyphClass: 2
Flags: MW
HStem: -248 54<128.5 160 128.5 170> -12 54<190.5 220> 396 60<177.5 199> 424 20G<446 543 543 543>
VStem: 100 78<52.5 91 52.5 106> 205 81<352 387>
AnchorPoint: "Anchor-2" 156 -206 basechar 0
AnchorPoint: "Anchor-1" 354 528 basechar 0
AnchorPoint: "Anchor-0" 348 508 basechar 0
LayerCount: 2
Fore
SplineSet
331 85 m 1xdc
 313 62 254 -12 186 -12 c 0
 136 -12 100 26 100 90 c 2
 100 91 l 2
 100 121 110 168 122 192 c 2
 189 331 l 2
 194 340 205 368 205 380 c 0
 205 394 201 396 197 396 c 0
 158 396 109 298 89 242 c 2
 84 229 l 1
 73 232 61 236 50 239 c 2
 35 243 l 1
 40 258 l 2
 72 350 124 456 210 456 c 0xec
 253 456 286 422 286 358 c 2
 286 352 l 2
 285 323 275 279 262 252 c 2
 194 113 l 2
 190 104 179 76 178 63 c 2
 178 61 l 2
 178 44 183 42 198 42 c 0
 260 42 369 202 409 322 c 0
 421 363 434 403 446 444 c 1
 543 444 l 1
 502 300 462 155 421 11 c 0
 408 -35 371 -121 306 -181 c 0
 252 -233 190 -248 150 -248 c 0
 81 -248 27 -208 27 -135 c 0
 27 -87 63 -60 94 -60 c 0
 128 -60 142 -90 142 -114 c 2
 142 -115 l 2
 142 -138 130 -156 119 -167 c 0
 115 -170 115 -167 115 -177 c 2
 115 -179 l 2
 115 -187 117 -194 140 -194 c 0
 180 -194 205 -187 240 -146 c 0
 277 -101 297 -31 307 3 c 2
 331 85 l 1xdc
EndSplineSet
Substitution2: "'smcp' Lowercase to Small Capitals lookup 0 subtable" y.sc
EndChar

StartChar: z
Encoding: 122 122 91
Width: 466
GlyphClass: 2
Flags: MW
HStem: -12 94<245 293.5 245 303> 354 102<196 246.5>
VStem: 26 96<34 41.5 34 86> 75 48<266 269> 369 47<174 191> 380 67<369 370 370 370>
AnchorPoint: "Anchor-2" 168 0 basechar 0
AnchorPoint: "Anchor-1" 300 528 basechar 0
AnchorPoint: "Anchor-0" 294 508 basechar 0
LayerCount: 2
Fore
SplineSet
250 -12 m 0xc8
 147 -12 121 76 96 76 c 0
 93 76 91 76 90 75 c 1
 91 74 92 74 95 73 c 2
 96 73 l 1
 113 65 122 49 122 34 c 0
 121 14 109 -12 77 -12 c 0
 46 -12 26 12 26 41 c 0xe8
 26 131 105 206 213 245 c 0
 290 272 335 292 357 310 c 1
 346 310 l 2
 280 310 266 354 227 354 c 0
 165 354 137 302 123 266 c 2
 117 251 l 1
 107 255 97 260 87 264 c 2
 75 269 l 1
 78 282 l 2
 92 332 140 456 245 456 c 0
 325 456 353 366 368 366 c 0
 377 366 379 368 380 369 c 2
 380 370 l 1
 371 374 359 387 359 408 c 2
 359 409 l 2
 359 430 371 456 399 456 c 0
 434 456 447 425 447 398 c 0xd4
 447 335 375 248 268 207 c 0
 169 171 128 152 114 137 c 0
 111 134 109 131 107 129 c 1
 114 126 138 122 172 104 c 0
 201 91 226 82 264 82 c 0
 323 82 354 143 369 191 c 2
 374 206 l 1
 385 201 397 197 408 192 c 2
 420 187 l 1
 416 174 l 2
 396 107 356 -12 250 -12 c 0xc8
EndSplineSet
Substitution2: "'smcp' Lowercase to Small Capitals lookup 0 subtable" z.sc
EndChar

StartChar: braceleft
Encoding: 123 123 92
Width: 408
GlyphClass: 2
Flags: MW
HStem: 243 48<110 117 97 122> 692 52<458 473>
VStem: 88 78<-104.5 -69.5 -113 -19> 190 78<172.5 196 118.5 221.5> 242 104<425 536 475 536 475 553>
LayerCount: 2
Fore
SplineSet
88 -71 m 0xf0
 88 33 190 138 190 207 c 0xf0
 190 236 170 243 117 243 c 2
 97 243 l 1
 100 255 104 268 107 280 c 2
 110 291 l 1
 122 291 l 2
 190 291 242 295 242 425 c 2
 242 473 l 2
 242 633 330 705 458 744 c 2
 473 749 l 1
 477 736 480 723 483 710 c 2
 487 696 l 1
 473 692 l 2
 376 661 348 648 346 536 c 2
 346 475 l 2xe8
 343 402 319 308 225 265 c 1
 249 247 268 218 268 174 c 0
 268 63 166 -40 166 -99 c 0
 166 -127 192 -141 236 -158 c 2
 255 -165 l 1
 244 -178 234 -192 223 -205 c 2
 217 -214 l 1
 207 -210 l 2
 134 -184 88 -138 88 -71 c 0xf0
EndSplineSet
EndChar

StartChar: bar
Encoding: 124 124 93
Width: 272
GlyphClass: 2
Flags: MW
VStem: 127 74<-213 -198 -213 -198> 136 74<730 745 730 745>
LayerCount: 2
Fore
SplineSet
127 -198 m 1x80
 136 730 l 1
 136 745 l 1
 210 745 l 1
 210 730 l 1x40
 201 -198 l 1
 201 -213 l 1
 127 -213 l 1
 127 -198 l 1x80
EndSplineSet
EndChar

StartChar: braceright
Encoding: 125 125 94
Width: 406
GlyphClass: 2
Flags: MW
HStem: -215 53<-28 -14> 243 48<303 362 342 349>
VStem: 113 104<-2 59 59 59> 191 78<338 361.5 312.5 415.5> 293 78<603.5 638.5 553 647>
LayerCount: 2
Fore
SplineSet
-14 -158 m 2xe8
 83 -127 111 -114 113 -2 c 2
 113 59 l 2xe8
 116 132 140 226 235 269 c 1
 210 287 191 316 191 360 c 0
 191 471 293 574 293 633 c 0
 293 661 267 675 223 692 c 2
 204 699 l 1
 215 712 225 726 236 739 c 2
 242 748 l 1
 252 744 l 2
 325 718 371 672 371 605 c 0
 371 501 269 396 269 327 c 0xd8
 269 298 289 291 342 291 c 2
 362 291 l 1
 359 279 355 266 352 254 c 2
 349 243 l 1
 337 243 l 2
 269 243 217 239 217 109 c 2
 217 61 l 2
 217 -99 129 -171 1 -210 c 2
 -14 -215 l 1
 -18 -202 -21 -189 -24 -176 c 2
 -28 -162 l 1
 -14 -158 l 2xe8
EndSplineSet
EndChar

StartChar: asciitilde
Encoding: 126 126 95
Width: 615
GlyphClass: 2
Flags: MW
HStem: 155 92<475.5 519.5> 275 92<134.5 177>
VStem: 48 64<232.5 255 232.5 281> 542 64<267 289.5>
LayerCount: 2
Fore
SplineSet
477 155 m 0
 360 155 217 275 137 275 c 0
 126 275 112 266 112 244 c 0
 112 221 123 209 146 197 c 2
 158 190 l 1
 152 179 146 167 140 156 c 2
 133 144 l 1
 121 149 l 2
 74 170 48 209 48 253 c 0
 48 309 92 367 177 367 c 0
 294 367 434 247 517 247 c 0
 528 247 542 256 542 278 c 0
 542 301 531 313 508 325 c 2
 496 332 l 1
 502 343 508 355 514 366 c 2
 521 378 l 1
 533 373 l 2
 580 352 606 313 606 269 c 0
 606 213 562 155 477 155 c 0
EndSplineSet
EndChar

StartChar: exclamdown
Encoding: 161 161 97
Width: 270
GlyphClass: 2
Flags: MW
HStem: 319 154<180 224>
VStem: -21 152 125 154<374 418>
LayerCount: 2
Fore
SplineSet
-21 -178 m 0xc0
 -21 -118 35 -24 82 105 c 2
 152 293 l 1
 156 303 l 1
 208 303 l 1
 195 229 182 156 169 82 c 0
 149 -26 150 -77 131 -181 c 0
 119 -243 81 -263 46 -263 c 0
 0 -263 -21 -224 -21 -178 c 0xc0
125 396 m 0xa0
 125 440 158 473 202 473 c 0
 246 473 279 440 279 396 c 0
 279 352 246 319 202 319 c 0
 158 319 125 352 125 396 c 0xa0
EndSplineSet
EndChar

StartChar: cent
Encoding: 162 162 98
Width: 555
GlyphClass: 2
Flags: MW
HStem: -27 55<267 281>
VStem: 114 102<119.5 147 86 179> 414 83<333 404>
LayerCount: 2
Fore
SplineSet
216 98 m 0
 216 74 222 55 231 44 c 1
 329 407 l 1
 258 354 216 196 216 98 c 0
114 158 m 0
 114 200 122 301 207 391 c 0
 248 436 292 464 347 470 c 1
 380 591 l 1
 435 591 l 1
 424 550 413 510 402 469 c 1
 447 461 497 423 497 356 c 0
 497 310 467 271 425 271 c 0
 390 271 371 297 371 321 c 0
 372 350 394 371 409 382 c 0
 415 387 414 388 414 393 c 0
 414 415 388 416 388 416 c 1
 281 28 l 1
 332 34 374 79 399 133 c 2
 405 144 l 1
 421 139 437 133 454 128 c 1
 447 113 l 2
 438 93 378 -24 267 -27 c 1
 237 -135 l 1
 182 -135 l 1
 192 -96 203 -57 214 -18 c 1
 149 8 114 81 114 158 c 0
EndSplineSet
EndChar

StartChar: sterling
Encoding: 163 163 99
Width: 677
GlyphClass: 2
Flags: MW
HStem: -31 54<45.5 79 45.5 82> -31 98<412 436.5> 87 64<83.5 89.5> 279 58<450 483 450 484> 313 58<182 212> 663 52<559 571 559 582.5>
VStem: -41 58<34 55 34 80.5> 279 109 613 50<216 228> 620 63<607 607.5 559.5 611 559.5 621.5>
LayerCount: 2
Fore
SplineSet
17 43 m 0xa7
 17 25 33 23 58 23 c 0
 100 23 132 41 159 68 c 1
 130 80 105 87 74 87 c 0
 45 87 17 67 17 43 c 0xa7
620 607 m 1xaf40
 620 611 l 2xaf40
 620 632 608 663 557 663 c 0
 460 663 424 521 400 397 c 0
 397 380 392 359 388 344 c 1
 412 340 436 337 464 337 c 0
 502 337 521 346 541 357 c 2
 555 365 l 1
 559 352 563 340 567 327 c 2
 570 317 l 1
 562 310 l 2
 543 294 505 279 463 279 c 0
 429 279 399 283 372 288 c 1
 349 219 319 160 285 113 c 1
 296 109 305 105 316 101 c 0
 359 82 396 67 428 67 c 0
 546 67 596 151 613 228 c 2
 617 244 l 1
 628 240 640 236 652 233 c 2
 665 229 l 1
 663 216 l 2
 652 162 626 82 572 34 c 0
 523 -10 475 -31 398 -31 c 0x7780
 341 -31 291 -1 236 29 c 2
 217 39 l 1
 165 -7 110 -31 54 -31 c 0
 16 -31 -41 -14 -41 41 c 0
 -41 120 50 151 117 151 c 0
 149 151 178 146 206 138 c 1
 231 189 250 249 265 307 c 1
 242 311 223 313 201 313 c 0
 163 313 150 306 121 292 c 2
 106 285 l 1
 103 294 99 303 96 312 c 2
 88 334 l 1
 98 340 l 2
 120 356 159 371 202 371 c 0
 230 371 256 368 279 364 c 1
 315 497 390 715 559 715 c 2
 571 715 l 1
 659 708 683 627 683 588 c 0
 683 531 643 495 604 495 c 0
 580 495 537 508 537 559 c 2
 537 561 l 2
 538 600 568 615 585 615 c 0
 606 615 606 607 619 607 c 2
 620 607 l 1xaf40
EndSplineSet
EndChar

StartChar: currency
Encoding: 164 164 100
Width: 536
GlyphClass: 2
Flags: MW
HStem: 107 70<277.5 324.5> 509 70<290.5 337.5 290.5 354>
VStem: 92 67<316 336 336 342 289.5 368> 456 67<342 348 348 368 316 394.5>
LayerCount: 2
Fore
SplineSet
68 136 m 1
 89 159 111 181 132 204 c 1
 107 244 92 290 92 342 c 0
 92 394 110 442 137 481 c 1
 78 539 l 1
 68 550 l 1
 81 565 95 578 109 592 c 2
 120 602 l 1
 144 580 165 557 188 534 c 1
 224 562 267 579 314 579 c 0
 361 579 404 562 438 534 c 1
 491 592 l 1
 501 602 l 1
 513 589 525 575 537 561 c 2
 547 550 l 1
 526 527 504 504 482 481 c 1
 507 441 523 394 523 342 c 0
 523 290 507 243 479 204 c 1
 537 147 l 1
 547 136 l 1
 534 121 520 108 506 94 c 2
 495 84 l 1
 471 106 450 129 427 152 c 1
 391 124 348 107 301 107 c 0
 254 107 211 124 178 152 c 1
 124 94 l 1
 114 84 l 1
 102 97 90 111 78 125 c 2
 68 136 l 1
159 342 m 2
 159 336 l 2
 159 243 218 177 303 177 c 0
 389 177 453 246 456 342 c 2
 456 348 l 2
 456 441 396 509 312 509 c 0
 226 509 162 438 159 342 c 2
EndSplineSet
EndChar

StartChar: yen
Encoding: 165 165 101
Width: 547
GlyphClass: 2
Flags: MW
HStem: -15 62<69 147 147 153 289 358 51 147> 191 62<92 201 74 218 337 447> 283 62<117 226 99 231 373 472> 637 62<101 166 83 379 302 310 310 361 443 483 101 426 617 627 627 676>
LayerCount: 2
Fore
SplineSet
295 632 m 2
 295 630 l 1
 295 630 294 628 294 626 c 0
 294 622 295 617 295 614 c 1
 296 614 l 1
 296 613 l 1
 340 392 l 1
 388 451 435 511 482 571 c 0
 487 579 498 601 499 612 c 2
 499 613 l 2
 499 624 495 637 483 637 c 2
 426 637 l 1
 430 654 435 671 440 688 c 2
 443 699 l 1
 694 699 l 1
 679 648 l 1
 676 637 l 1
 627 637 l 2
 607 637 589 620 562 588 c 2
 373 345 l 1
 490 345 l 1
 475 294 l 1
 472 283 l 1
 345 283 l 1
 337 253 l 1
 465 253 l 1
 450 202 l 1
 447 191 l 1
 320 191 l 1
 283 56 l 2
 282 53 282 50 282 49 c 2
 282 48 l 2
 283 47 285 47 289 47 c 2
 375 47 l 1
 371 30 366 13 361 -4 c 2
 358 -15 l 1
 51 -15 l 1
 66 36 l 1
 69 47 l 1
 147 47 l 2
 159 47 163 50 166 64 c 2
 201 191 l 1
 74 191 l 1
 89 242 l 1
 92 253 l 1
 218 253 l 1
 226 283 l 1
 99 283 l 1
 114 334 l 1
 117 345 l 1
 231 345 l 1
 185 610 l 2
 180 632 178 637 166 637 c 2
 83 637 l 1
 98 688 l 1
 101 699 l 1
 379 699 l 1
 364 648 l 1
 361 637 l 1
 310 637 l 2
 294 637 295 633 295 632 c 2
EndSplineSet
EndChar

StartChar: brokenbar
Encoding: 166 166 102
Width: 272
GlyphClass: 2
Flags: MW
VStem: 128 74<-183 -168 -168 -168> 136 74<730 745 730 745 730 745>
LayerCount: 2
Fore
SplineSet
128 -168 m 1x80
 133 192 l 1
 134 207 l 1
 202 207 l 1
 202 -183 l 1
 128 -183 l 1
 128 -168 l 1x80
136 355 m 1x40
 136 745 l 1
 210 745 l 1
 210 730 l 1
 205 370 l 1
 204 355 l 1
 136 355 l 1x40
EndSplineSet
EndChar

StartChar: section
Encoding: 167 167 103
Width: 583
GlyphClass: 2
Flags: MW
HStem: -201 60<178.5 217.5 178.5 228> -70 117<145.5 158 121 163> 469 117<420 431.5 415 457> 657 60<356.5 399.5>
VStem: 56 72<-86.5 -76 -76 -64 -91.5 -26.5> 88 82<277 294.5> 196 82<517.5 534 534 537 517.5 587.5> 300 82<-26 -24 -24 -6> 408 82<221.5 239> 450 72<590 592 592 602.5 542.5 607.5>
LayerCount: 2
Fore
SplineSet
170 290 m 0xf780
 170 264 187 245 203 232 c 2
 322 130 l 2
 327 125 335 118 340 112 c 1
 380 140 408 185 408 226 c 0
 408 252 391 271 375 284 c 2
 256 386 l 2
 251 391 243 398 238 404 c 1
 198 376 170 331 170 290 c 0xf780
382 -5 m 0
 382 -140 264 -201 192 -201 c 0
 104 -201 56 -119 56 -54 c 0
 56 1 94 47 148 47 c 0
 168 47 200 33 200 -10 c 2
 200 -12 l 2
 199 -45 176 -70 150 -70 c 0
 141 -70 130 -66 128 -64 c 1
 128 -76 l 2xfb80
 128 -107 154 -141 203 -141 c 0
 232 -141 300 -117 300 -26 c 2
 300 -24 l 2
 300 12 280 30 252 54 c 2
 154 137 l 2
 102 177 88 222 88 260 c 0
 88 329 149 406 210 443 c 1
 201 464 196 489 196 521 c 0
 196 654 313 717 386 717 c 0
 474 717 522 635 522 570 c 0
 522 515 484 469 430 469 c 0
 410 469 378 483 378 526 c 2
 378 528 l 2
 379 561 402 586 428 586 c 0
 435 586 441 585 445 583 c 0
 447 583 449 582 449 582 c 2
 450 584 450 587 450 590 c 2
 450 592 l 2xf740
 450 623 424 657 375 657 c 0
 338 657 278 622 278 537 c 2
 278 534 l 2
 278 501 293 488 321 466 c 2
 424 379 l 2
 476 339 490 294 490 256 c 0
 490 187 429 110 368 73 c 1
 377 52 382 27 382 -5 c 0
EndSplineSet
EndChar

StartChar: dieresis
Encoding: 168 168 104
Width: 428
GlyphClass: 2
Flags: MW
HStem: 533 126<220 254 408 442>
VStem: 174 126<579 613> 362 126<579 613>
LayerCount: 2
Fore
SplineSet
174 596 m 0
 174 630 203 659 237 659 c 0
 271 659 300 630 300 596 c 0
 300 562 271 533 237 533 c 0
 203 533 174 562 174 596 c 0
362 596 m 0
 362 630 391 659 425 659 c 0
 459 659 488 630 488 596 c 0
 488 562 459 533 425 533 c 0
 391 533 362 562 362 596 c 0
EndSplineSet
EndChar

StartChar: copyright
Encoding: 169 169 105
Width: 761
GlyphClass: 2
Flags: MW
HStem: -33 58<325.5 488.5 325.5 505> 95 54<389.5 456.5 389.5 472.5> 551 54<384 439.5 369 448.5> 687 58<340.5 501.5>
VStem: 63 58<265.5 446 265.5 463> 227 106<330 338 338 338> 525 53<293 293> 526 43<405 420> 709 58<266 446.5>
LayerCount: 2
Fore
SplineSet
430 551 m 0xfe80
 338 551 333 365 333 328 c 0
 333 249 358 149 421 149 c 0
 492 149 515 216 523 280 c 2
 525 293 l 1
 578 293 l 1xfe80
 577 277 l 2
 570 199 525 95 420 95 c 0
 290 95 227 217 227 330 c 2
 227 338 l 1
 231 489 306 605 432 605 c 0
 447 605 477 600 513 569 c 0
 519 563 515 565 522 565 c 0
 524 567 529 576 529 584 c 2
 530 599 l 1
 573 599 l 1
 572 584 l 1
 569 420 l 1
 569 405 l 1
 526 405 l 1xfd80
 525 419 l 2
 521 488 467 551 430 551 c 0xfe80
63 356 m 0
 63 570 225 745 423 745 c 0
 616 745 767 570 767 356 c 0
 767 142 605 -33 405 -33 c 0
 210 -33 63 142 63 356 c 0
121 356 m 0
 121 175 244 25 407 25 c 0
 570 25 709 176 709 356 c 0
 709 537 582 687 421 687 c 0
 260 687 121 536 121 356 c 0
EndSplineSet
EndChar

StartChar: ordfeminine
Encoding: 170 170 106
Width: 360
GlyphClass: 2
Flags: MW
HStem: 347 54<89 161 208 277 322 337 73 161> 667 48<242.5 269 207 269.5>
VStem: 98 82<479 522.5 464.5 544>
LayerCount: 2
Fore
SplineSet
277 401 m 1
 259 407 250 420 245 431 c 1
 235 419 222 407 208 401 c 1
 277 401 l 1
180 475 m 0
 180 454 187 445 195 445 c 0
 215 445 254 502 271 567 c 2
 279 598 l 2
 283 612 284 626 284 636 c 2
 284 638 l 2
 284 653 279 667 260 667 c 0
 225 667 180 570 180 475 c 0
98 503 m 0
 98 585 155 715 259 715 c 0
 279 715 294 705 305 693 c 1
 306 698 l 1
 309 709 l 1
 386 709 l 1
 326 493 l 2
 323 484 318 464 318 455 c 1
 334 463 359 504 372 539 c 2
 377 554 l 1
 386 550 394 547 403 543 c 2
 417 537 l 1
 412 524 l 2
 397 485 366 418 322 401 c 1
 353 401 l 1
 348 387 344 372 340 358 c 2
 337 347 l 1
 73 347 l 1
 78 361 82 376 86 390 c 2
 89 401 l 1
 161 401 l 1
 119 414 98 455 98 503 c 0
EndSplineSet
EndChar

StartChar: guillemotleft
Encoding: 171 171 107
Width: 416
GlyphClass: 2
Flags: MW
HStem: -3 21G<169 169>
VStem: 163 47<11 21> 262 47<68 76>
LayerCount: 2
Fore
SplineSet
48 240 m 2
 127 299 195 361 280 449 c 2
 290 459 l 1
 297 452 304 445 311 439 c 2
 321 430 l 1
 268 362 216 293 163 225 c 1
 207 32 l 1
 210 21 l 1
 201 16 192 10 183 5 c 2
 169 -3 l 1
 163 11 l 2
 126 99 92 160 45 219 c 2
 36 231 l 1
 48 240 l 2
192 240 m 2
 243 283 304 345 349 392 c 2
 359 403 l 1
 370 393 380 384 391 374 c 1
 280 224 l 1
 307 87 l 1
 309 76 l 1
 300 71 292 66 283 61 c 2
 268 52 l 1
 262 68 l 2
 243 116 215 177 189 219 c 2
 182 231 l 1
 192 240 l 2
EndSplineSet
EndChar

StartChar: logicalnot
Encoding: 172 172 108
Width: 539
GlyphClass: 2
Flags: MW
HStem: 391 70<64 544 64 470>
VStem: 470 74<225 391 391 391>
LayerCount: 2
Fore
SplineSet
64 391 m 1
 64 461 l 1
 544 461 l 1
 544 225 l 1
 470 225 l 1
 470 391 l 1
 64 391 l 1
EndSplineSet
EndChar

StartChar: softhyphen
Encoding: 173 173 109
Width: 333
GlyphClass: 2
Flags: MW
HStem: 209 86<97 302 126 280>
VStem: 43 48<181 196 181 220> 315 48<308 323 284 323>
LayerCount: 2
Fore
SplineSet
43 196 m 2
 43 244 70 295 126 295 c 2
 302 295 l 2
 315 295 315 295 315 308 c 2
 315 323 l 1
 363 323 l 1
 363 308 l 2
 363 260 335 209 280 209 c 2
 104 209 l 2
 90 209 91 209 91 196 c 2
 91 181 l 1
 43 181 l 1
 43 196 l 2
EndSplineSet
EndChar

StartChar: registered
Encoding: 174 174 110
Width: 756
GlyphClass: 2
Flags: MW
HStem: -33 58<364.5 484 364.5 501> 103 66<556.5 581> 115 54<209 256 256 257.5 360 412 209 209> 343 54<360 416 360 416 359 416> 547 54<225 266 215 435 369.5 371 371 419> 687 58<383.5 501.5>
VStem: 63 58<310.5 401.5 310.5 463> 262 93<170 170.5> 272 88 470 107<470 480 476 480 476 499> 599 45<225 244> 704 58<266 446.5>
LayerCount: 2
Fore
SplineSet
461 278 m 2xdef0
 461 298 457 343 416 343 c 2
 359 343 l 1
 354 176 l 2
 354 172 355 170 355 170 c 2xdf70
 356 169 357 169 360 169 c 2
 414 169 l 1
 413 154 l 1
 413 130 l 1
 412 115 l 1
 209 115 l 1xbef0
 258 59 326 25 403 25 c 0
 565 25 704 176 704 356 c 0
 704 537 582 687 421 687 c 0
 346 687 278 654 225 601 c 1
 435 601 l 2
 508 601 577 563 577 480 c 2
 577 476 l 2
 575 412 532 380 500 366 c 1
 585 313 540 169 573 169 c 0
 589 169 598 214 599 244 c 2
 600 259 l 1
 644 259 l 1
 644 244 l 2
 644 206 637 103 549 103 c 0
 524 103 459 113 459 213 c 2
 459 219 l 1
 461 273 l 1
 461 278 l 2xdef0
204 130 m 1
 204 154 l 1
 205 169 l 1
 256 169 l 2
 259 169 261 170 262 170 c 1xbf70
 262 171 262 173 263 176 c 2
 272 540 l 2
 273 544 272 546 272 546 c 2xbef0
 271 547 269 547 266 547 c 2
 215 547 l 1
 215 591 l 1
 156 531 121 447 121 356 c 0
 121 265 153 181 203 121 c 1
 204 130 l 1
360 397 m 1x9ef0
 416 397 l 2
 446 397 469 419 470 470 c 2
 470 476 l 2
 470 522 456 547 419 547 c 2
 371 547 l 2
 368 547 365 546 365 546 c 2
 365 545 364 543 364 540 c 2
 360 397 l 1x9ef0
63 356 m 0
 63 570 225 745 423 745 c 0
 616 745 762 570 762 356 c 0
 762 142 600 -33 402 -33 c 0
 209 -33 63 142 63 356 c 0
EndSplineSet
EndChar

StartChar: macron
Encoding: 175 175 111
AltUni2: 0002c9.ffffffff.0 0002c9.ffffffff.0
Width: 398
GlyphClass: 2
Flags: MW
HStem: 536 60<164 534 179 519>
LayerCount: 2
Fore
SplineSet
164 536 m 1
 166 542 l 2
 167 549 167 549 179 596 c 1
 534 596 l 1
 532 590 l 2
 531 583 531 583 519 536 c 1
 164 536 l 1
EndSplineSet
EndChar

StartChar: degree
Encoding: 176 176 112
Width: 557
GlyphClass: 2
Flags: MW
HStem: 325 70<309.5 350 309.5 353.5> 661 54<366.5 407>
VStem: 174 102<435.5 512.5> 440 58<539 616.5 527.5 620.5>
LayerCount: 2
Fore
SplineSet
174 462 m 0
 174 563 253 715 385 715 c 0
 454 715 498 655 498 578 c 0
 498 477 420 325 287 325 c 0
 219 325 174 385 174 462 c 0
276 462 m 0
 276 409 302 395 317 395 c 0
 383 395 440 484 440 594 c 0
 440 647 415 661 399 661 c 0
 334 661 276 572 276 462 c 0
EndSplineSet
EndChar

StartChar: plusminus
Encoding: 177 177 113
Width: 864
GlyphClass: 2
Flags: MW
HStem: -55 70<55 846 55 846> 323 70<55 427 55 425 55 491 493 854>
VStem: 417 67<49 64> 434 66<652 667 652 667>
LayerCount: 2
Fore
SplineSet
55 15 m 1xc0
 846 15 l 1
 846 -55 l 1
 55 -55 l 1
 55 15 l 1xc0
55 323 m 1
 55 393 l 1
 427 393 l 1
 434 652 l 1
 434 667 l 1
 501 667 l 1
 500 652 l 1xd0
 493 393 l 1
 854 393 l 1
 854 323 l 1
 491 323 l 1
 484 64 l 1
 484 49 l 1
 417 49 l 1xe0
 418 64 l 1
 425 323 l 1
 55 323 l 1
EndSplineSet
EndChar

StartChar: twosuperior
Encoding: 178 178 114
Width: 368
GlyphClass: 2
Flags: MW
HStem: 255 97<246.5 277 246.5 288> 513 101<207 212> 663 54<249 293.5>
VStem: 45 66<318 319 318 336.5> 133 120<565 584.5 556 619> 331 94<573 616>
LayerCount: 2
Fore
SplineSet
251 255 m 0
 181 255 152 335 127 335 c 0
 113 335 107 335 107 325 c 0
 107 322 106 324 110 319 c 1
 111 319 l 1
 111 318 l 1
 115 313 119 305 119 294 c 0
 119 281 112 256 83 256 c 0
 62 256 45 271 45 294 c 0
 45 379 115 416 151 433 c 2
 235 478 l 2
 281 502 331 548 331 598 c 0
 331 634 317 663 270 663 c 0
 228 663 197 627 194 610 c 1
 199 613 204 614 210 614 c 0
 233 614 253 598 253 571 c 0
 253 541 229 513 195 513 c 0
 155 513 133 547 133 583 c 0
 133 655 205 717 283 717 c 0
 367 717 425 667 425 594 c 0
 425 505 336 465 280 438 c 0
 235 417 163 384 157 378 c 1
 170 365 228 352 265 352 c 0
 289 352 313 370 323 385 c 2
 335 409 l 1
 339 418 l 1
 381 418 l 1
 374 398 l 2
 356 348 325 255 251 255 c 0
EndSplineSet
Substitution2: "Single Substitution lookup 47 subtable" two.dnom
EndChar

StartChar: threesuperior
Encoding: 179 179 115
Width: 368
GlyphClass: 2
Flags: MW
HStem: 255 54<173 217 173 232> 346 100<131 137 131 131> 458 73<186 201.5> 477 54<230.5 258.5> 547 94<213 217 217 223.5> 667 50<265 298>
VStem: 65 122<380 394.5> 149 108<484 609.5 592 609.5 588 639.5> 285 94<393 438.5 367 446.5> 331 88<595 639.5>
LayerCount: 2
Fore
SplineSet
187 255 m 0xde80
 114 255 65 302 65 368 c 0
 65 421 107 446 136 446 c 0
 176 446 187 415 187 393 c 0
 187 367 166 346 137 346 c 2
 131 346 l 1
 134 321 158 309 188 309 c 0
 246 309 285 362 285 424 c 0
 285 469 277 477 240 477 c 0xde80
 221 477 217 458 186 458 c 0
 165 458 149 474 149 494 c 0
 149 508 160 531 186 531 c 2xed80
 260 531 l 2
 295 531 331 572 331 618 c 0
 331 661 318 667 278 667 c 0
 252 667 222 655 213 641 c 1
 217 641 l 2
 246 641 257 619 257 600 c 0
 257 576 241 547 206 547 c 0
 169 547 149 577 149 607 c 0
 149 672 215 717 282 717 c 0
 354 717 419 684 419 610 c 0xdd40
 419 549 372 516 334 501 c 1
 359 486 379 460 379 417 c 0
 379 317 277 255 187 255 c 0xde80
EndSplineSet
Substitution2: "Single Substitution lookup 47 subtable" three.dnom
EndChar

StartChar: acute
Encoding: 180 180 116
AltUni2: 0002ca.ffffffff.0 0002ca.ffffffff.0
Width: 418
GlyphClass: 2
Flags: MW
HStem: 497 183<320 474.5>
VStem: 292 206<519 649>
LayerCount: 2
Fore
SplineSet
292 519 m 1
 328 564 367 606 404 650 c 0
 423 672 440 680 460 680 c 0
 489 680 498 657 498 641 c 0
 498 610 472 593 461 587 c 2
 323 500 l 1
 320 497 l 1
 316 495 l 1
 313 498 l 1
 311 501 l 1
 299 513 l 1
 295 516 l 1
 292 519 l 1
EndSplineSet
EndChar

StartChar: mu1
Encoding: 181 181 117
Width: 568
GlyphClass: 2
Flags: MW
HStem: -282 21G<70.5 116> -12 66<207.5 226.5 424 445> 424 20G<167 272 272 272 420 524 524 524>
VStem: 26 121<-237.5 -109.5>
LayerCount: 2
Fore
SplineSet
101 -9 m 0
 101 -138 147 -167 147 -224 c 2
 147 -226 l 2
 147 -249 133 -282 99 -282 c 0
 42 -282 26 -210 26 -167 c 0
 26 -52 48 39 78 148 c 0
 108 247 137 345 167 444 c 1
 272 444 l 1
 252 375 230 309 209 241 c 0
 204 220 188 146 187 126 c 2
 187 117 l 2
 187 77 196 54 219 54 c 0
 261 54 314 111 343 202 c 2
 417 434 l 1
 420 444 l 1
 524 444 l 1
 491 331 457 220 423 108 c 0
 419 98 415 84 415 75 c 0
 415 59 416 54 432 54 c 0
 458 54 509 123 548 198 c 2
 556 212 l 1
 565 206 575 201 584 195 c 2
 596 188 l 1
 590 175 l 2
 560 115 498 -12 401 -12 c 0
 350 -12 321 22 314 60 c 1
 301 42 255 -12 198 -12 c 0
 155 -12 125 19 110 55 c 1
 104 27 l 2
 102 14 101 2 101 -9 c 0
EndSplineSet
EndChar

StartChar: paragraph
Encoding: 182 182 118
Width: 524
GlyphClass: 2
Flags: MW
HStem: 663 64<423 485 423 423 554 622 554 554>
LayerCount: 2
Fore
SplineSet
128 -171 m 1
 275 372 l 1
 199 379 148 426 148 499 c 0
 148 602 245 727 383 727 c 2
 640 727 l 1
 635 709 630 692 625 674 c 2
 622 663 l 1
 554 663 l 1
 479 385 403 107 328 -171 c 1
 259 -171 l 1
 334 107 410 385 485 663 c 1
 423 663 l 1
 348 385 272 107 197 -171 c 1
 128 -171 l 1
EndSplineSet
EndChar

StartChar: periodcentered
Encoding: 183 183 119
Width: 252
GlyphClass: 2
Flags: MW
HStem: 239 154<169 213>
VStem: 114 154<294 338>
LayerCount: 2
Fore
SplineSet
114 316 m 0
 114 360 147 393 191 393 c 0
 235 393 268 360 268 316 c 0
 268 272 235 239 191 239 c 0
 147 239 114 272 114 316 c 0
EndSplineSet
Substitution2: "'locl' Localized Forms in Greek lookup 8 subtable" anoteleia
EndChar

StartChar: cedilla
Encoding: 184 184 120
Width: 424
GlyphClass: 2
Flags: MW
HStem: -227 52<112.5 139 112.5 155.5>
VStem: 140 56<-46.5 -41> 164 80<-145 -119>
LayerCount: 2
Fore
SplineSet
196 -36 m 0xc0
 196 -57 244 -75 244 -126 c 0
 244 -185 189 -227 122 -227 c 0
 84 -227 33 -204 33 -148 c 0
 33 -121 52 -82 90 -82 c 0
 119 -82 133 -105 133 -128 c 0
 133 -149 118 -165 101 -168 c 0
 101 -169 101 -175 124 -175 c 0
 154 -175 164 -154 164 -136 c 0xa0
 164 -102 140 -81 140 -47 c 0
 140 -35 143 -21 151 -6 c 1
 151 -5 l 1
 159 8 166 20 174 33 c 1
 185 26 195 20 206 13 c 2
 219 5 l 1
 196 -32 196 -32 196 -36 c 0xc0
EndSplineSet
EndChar

StartChar: onesuperior
Encoding: 185 185 121
Width: 367
GlyphClass: 2
Flags: MW
HStem: 265 54<103 169 169 172 269 326 87 169> 558 51<176 183>
VStem: 87 292
LayerCount: 2
Fore
SplineSet
169 319 m 2
 175 319 175 322 175 323 c 2
 247 574 l 1
 230 568 214 564 199 561 c 2
 183 558 l 1
 176 609 l 1
 190 612 l 2
 229 619 288 646 324 700 c 2
 329 707 l 1
 379 707 l 1
 269 319 l 1
 342 319 l 1
 326 265 l 1
 87 265 l 1
 87 265 89 273 93 284 c 2
 103 319 l 1
 169 319 l 2
EndSplineSet
Substitution2: "Single Substitution lookup 47 subtable" one.dnom
EndChar

StartChar: ordmasculine
Encoding: 186 186 122
Width: 366
GlyphClass: 2
Flags: MW
HStem: 347 54<86 188 264 343 71 188> 347 96<220.5 252 220.5 343> 665 48<274.5 306>
VStem: 122 82<483 521 469 551.5> 324 82<583.5 630 560.5 636.5>
LayerCount: 2
Fore
SplineSet
204 484 m 0x78
 204 454 212 443 229 443 c 0
 275 443 324 546 324 621 c 0
 324 652 315 665 297 665 c 0
 252 665 204 558 204 484 c 0x78
122 508 m 0
 122 595 198 713 302 713 c 0
 366 713 406 662 406 598 c 0
 406 523 348 426 264 401 c 1
 359 401 l 1
 354 387 350 372 346 358 c 2
 343 347 l 1
 71 347 l 1
 75 362 79 376 83 390 c 2
 86 401 l 1
 188 401 l 1xb8
 147 416 122 458 122 508 c 0
EndSplineSet
EndChar

StartChar: guillemotright
Encoding: 187 187 123
Width: 422
GlyphClass: 2
Flags: MW
HStem: -3 21G<150 150>
VStem: 130 48<380 388> 230 46<435 445>
LayerCount: 2
Fore
SplineSet
118 26 m 1
 172 94 224 163 277 231 c 1
 233 424 l 1
 230 435 l 1
 238 441 247 446 256 451 c 2
 270 459 l 1
 276 445 l 2
 314 357 347 296 394 237 c 2
 404 225 l 1
 392 216 l 2
 312 157 244 95 159 7 c 1
 150 -3 l 1
 143 4 136 11 129 17 c 2
 118 26 l 1
49 82 m 1
 160 232 l 1
 132 369 l 1
 130 380 l 1
 139 385 147 390 156 395 c 2
 172 404 l 1
 178 388 l 2
 197 340 224 279 251 237 c 2
 258 225 l 1
 248 216 l 2
 197 173 136 111 91 64 c 2
 81 53 l 1
 70 63 60 72 49 82 c 1
EndSplineSet
EndChar

StartChar: onequarter
Encoding: 188 188 124
Width: 761
GlyphClass: 2
Flags: MW
HStem: -15 54<547 612 612 613.5 713 772 533 612> 97 56<580 633 744 828> 265 54<103 169 169 172 269 326 87 169> 558 51<176 183> 703 20G<650 650>
LayerCount: 2
Fore
SplineSet
194 -4 m 1
 344 233 493 472 642 710 c 2
 650 723 l 1
 658 717 667 712 675 706 c 0
 684 700 692 694 701 688 c 1
 551 451 402 212 253 -26 c 2
 245 -39 l 1
 228 -27 211 -15 194 -4 c 1
169 319 m 2
 175 319 175 322 175 323 c 2
 247 574 l 1
 230 568 214 564 199 561 c 2
 183 558 l 1
 176 609 l 1
 190 612 l 2
 229 619 288 646 324 700 c 2
 329 707 l 1
 379 707 l 1
 269 319 l 1
 342 319 l 1
 326 265 l 1
 87 265 l 1
 87 265 89 273 93 284 c 2
 103 319 l 1
 169 319 l 2
775 336 m 1
 792 336 l 1
 744 153 l 1
 845 153 l 1
 840 138 836 123 831 108 c 2
 828 97 l 1
 728 97 l 1
 713 39 l 1
 786 39 l 1
 782 25 779 10 775 -4 c 2
 772 -15 l 1
 533 -15 l 1
 537 -1 540 14 544 28 c 2
 547 39 l 1
 612 39 l 2
 615 39 616 39 617 40 c 2
 617 40 617 41 618 44 c 2
 633 97 l 1
 476 97 l 1
 491 145 491 145 494 149 c 2
 624 270 l 2
 671 316 707 374 713 418 c 2
 715 431 l 1
 819 431 l 1
 814 412 l 2
 808 388 799 365 775 336 c 1
674 240 m 1
 580 153 l 1
 648 153 l 1
 674 240 l 1
EndSplineSet
EndChar

StartChar: onehalf
Encoding: 189 189 125
Width: 761
GlyphClass: 2
Flags: MW
HStem: -25 97<662.5 693 662.5 704> 233 101<623 628> 265 54<103 169 169 172 269 326 87 169> 383 54<665 709.5> 558 51<176 183> 703 20G<650 650>
VStem: 461 66<38 39 38 56.5> 549 120<285 304.5 276 339> 747 94<293 336>
LayerCount: 2
Fore
SplineSet
194 -4 m 1x9f80
 344 233 493 472 642 710 c 2
 650 723 l 1
 658 717 667 712 675 706 c 0
 684 700 692 694 701 688 c 1
 551 451 402 212 253 -26 c 2
 245 -39 l 1
 228 -27 211 -15 194 -4 c 1x9f80
169 319 m 2xbf80
 175 319 175 322 175 323 c 2
 247 574 l 1
 230 568 214 564 199 561 c 2
 183 558 l 1
 176 609 l 1
 190 612 l 2
 229 619 288 646 324 700 c 2
 329 707 l 1
 379 707 l 1
 269 319 l 1
 342 319 l 1
 326 265 l 1
 87 265 l 1
 87 265 89 273 93 284 c 2
 103 319 l 1
 169 319 l 2xbf80
667 -25 m 0
 597 -25 568 55 543 55 c 0
 529 55 523 55 523 45 c 0
 523 42 522 44 526 39 c 1
 527 39 l 1
 527 38 l 1
 531 33 535 25 535 14 c 0
 535 1 528 -24 499 -24 c 0
 478 -24 461 -9 461 14 c 0
 461 99 531 136 567 153 c 2
 651 198 l 2
 697 222 747 268 747 318 c 0
 747 354 733 383 686 383 c 0
 644 383 613 347 610 330 c 1
 615 333 620 334 626 334 c 0
 649 334 669 318 669 291 c 0
 669 261 645 233 611 233 c 0xdf80
 571 233 549 267 549 303 c 0
 549 375 621 437 699 437 c 0
 783 437 841 387 841 314 c 0
 841 225 752 185 696 158 c 0
 651 137 579 104 573 98 c 1
 586 85 644 72 681 72 c 0
 705 72 729 90 739 105 c 2
 751 129 l 1
 755 138 l 1
 797 138 l 1
 790 118 l 2
 772 68 741 -25 667 -25 c 0
EndSplineSet
EndChar

StartChar: threequarters
Encoding: 190 190 126
Width: 761
GlyphClass: 2
Flags: MW
HStem: -15 54<547 612 612 613.5 713 772 533 612> 97 56<580 633 744 828> 255 54<173 217 173 232> 346 100<131 137 131 131> 458 73<186 201.5> 477 54<230.5 258.5> 547 94<213 217 217 223.5> 667 50<265 298>
VStem: 65 122<380 394.5> 149 108<484 609.5 592 609.5 588 639.5> 285 94<393 438.5 367 446.5> 331 88<595 639.5>
LayerCount: 2
Fore
SplineSet
194 -4 m 1xf3
 344 233 493 472 642 710 c 2
 650 723 l 1
 658 717 667 712 675 706 c 0
 684 700 692 694 701 688 c 1
 551 451 402 212 253 -26 c 2
 245 -39 l 1
 228 -27 211 -15 194 -4 c 1xf3
187 255 m 0xf7a0
 114 255 65 302 65 368 c 0
 65 421 107 446 136 446 c 0
 176 446 187 415 187 393 c 0
 187 367 166 346 137 346 c 2
 131 346 l 1
 134 321 158 309 188 309 c 0
 246 309 285 362 285 424 c 0
 285 469 277 477 240 477 c 0xf7a0
 221 477 217 458 186 458 c 0
 165 458 149 474 149 494 c 0
 149 508 160 531 186 531 c 2xfb60
 260 531 l 2
 295 531 331 572 331 618 c 0
 331 661 318 667 278 667 c 0
 252 667 222 655 213 641 c 1
 217 641 l 2
 246 641 257 619 257 600 c 0
 257 576 241 547 206 547 c 0
 169 547 149 577 149 607 c 0
 149 672 215 717 282 717 c 0
 354 717 419 684 419 610 c 0xf750
 419 549 372 516 334 501 c 1
 359 486 379 460 379 417 c 0
 379 317 277 255 187 255 c 0xf7a0
775 336 m 1
 792 336 l 1
 744 153 l 1
 845 153 l 1
 840 138 836 123 831 108 c 2
 828 97 l 1
 728 97 l 1
 713 39 l 1
 786 39 l 1
 782 25 779 10 775 -4 c 2
 772 -15 l 1
 533 -15 l 1
 537 -1 540 14 544 28 c 2
 547 39 l 1
 612 39 l 2
 615 39 616 39 617 40 c 2
 617 40 617 41 618 44 c 2
 633 97 l 1
 476 97 l 1
 491 145 491 145 494 149 c 2
 624 270 l 2
 671 316 707 374 713 418 c 2
 715 431 l 1
 819 431 l 1
 814 412 l 2
 808 388 799 365 775 336 c 1
674 240 m 1
 580 153 l 1
 648 153 l 1
 674 240 l 1
EndSplineSet
EndChar

StartChar: questiondown
Encoding: 191 191 127
Width: 416
GlyphClass: 2
Flags: MW
HStem: -263 60<130.5 183.5> -37 20G<264.5 301.5> 247 60<232 267> 319 154<291 335>
VStem: -19 102<-132 -101 -101 -98 -132 -53> 143 48<182 184 182 224.5> 236 154<374 396> 271 78<-145.5 -127> 294 72<210 224>
LayerCount: 2
Fore
SplineSet
349 -95 m 0xfd
 349 -196 223 -263 144 -263 c 0
 37 -263 -19 -183 -19 -88 c 0
 -19 -18 36 41 99 72 c 2
 225 135 l 1
 263 159 283 187 294 210 c 1
 294 238 277 247 257 247 c 0
 207 247 192 215 191 184 c 0
 191 180 194 168 196 165 c 2
 205 153 l 1
 197 147 190 140 182 134 c 2
 173 126 l 1
 165 135 l 2
 155 146 143 166 143 192 c 0
 143 257 196 307 261 307 c 0
 316 307 366 267 366 204 c 1xfc80
 351 146 311 98 264 69 c 2
 150 -5 l 2
 111 -28 83 -58 83 -98 c 2
 83 -101 l 2
 83 -163 107 -203 154 -203 c 0
 237 -203 271 -161 271 -135 c 0
 271 -119 229 -125 229 -69 c 2
 229 -65 l 2
 230 -41 248 -17 281 -17 c 0
 322 -17 349 -46 349 -95 c 0xfd
236 396 m 0xfe
 237 440 269 473 313 473 c 0
 357 473 390 440 390 396 c 0
 390 352 357 319 313 319 c 0
 269 319 236 352 236 396 c 0xfe
EndSplineSet
EndChar

StartChar: Agrave
Encoding: 192 192 128
Width: 728
GlyphClass: 2
Flags: MW
HStem: 0 32<-40 25 -24 25 25 51.5 219 274 367 442 442 449 609 669> 229 62<333 468 291 470> 692 20G<549 593 593 593>
VStem: 436 106 464 112<61 66> 476 117
LayerCount: 2
Fore
SplineSet
-40 0 m 1xe8
 -24 32 l 1
 25 32 l 2
 78 32 117 66 136 97 c 2
 545 705 l 1
 549 712 l 1
 593 712 l 1
 593 697 l 1xe4
 576 61 l 2
 578 34 586 32 609 32 c 2
 684 32 l 1
 680 25 675 18 671 11 c 2
 669 0 l 1
 351 0 l 1
 367 32 l 1
 442 32 l 2
 456 32 463 33 464 66 c 2
 468 229 l 1
 291 229 l 1
 227 128 l 2
 214 107 196 71 195 53 c 2
 195 50 l 2
 195 39 198 32 219 32 c 2
 289 32 l 1
 285 24 l 1
 277 11 l 1
 274 0 l 1
 -40 0 l 1xe8
476 503 m 1
 333 291 l 1
 470 291 l 1
 476 503 l 1
436 895 m 0xf0
 436 908 444 945 486 945 c 0
 510 945 532 929 542 898 c 0
 557 853 572 809 587 764 c 1
 562 749 l 1
 551 743 l 1
 519 779 487 814 455 849 c 0
 444 862 436 879 436 895 c 0xf0
EndSplineSet
Substitution2: "'c2sc' Capitals to Small Capitals lookup 1 subtable" agrave.sc
EndChar

StartChar: Aacute
Encoding: 193 193 129
Width: 728
GlyphClass: 2
Flags: MW
HStem: 0 32<-40 25 -24 25 25 51.5 219 274 367 442 442 449 609 669> 229 62<333 468 291 470> 692 20G<549 593 593 593>
VStem: 464 112<61 66> 476 117
LayerCount: 2
Fore
SplineSet
-40 0 m 1xf0
 -24 32 l 1
 25 32 l 2
 78 32 117 66 136 97 c 2
 545 705 l 1
 549 712 l 1
 593 712 l 1
 593 697 l 1xe8
 576 61 l 2
 578 34 586 32 609 32 c 2
 684 32 l 1
 680 25 675 18 671 11 c 2
 669 0 l 1
 351 0 l 1
 367 32 l 1
 442 32 l 2
 456 32 463 33 464 66 c 2
 468 229 l 1
 291 229 l 1
 227 128 l 2
 214 107 196 71 195 53 c 2
 195 50 l 2
 195 39 198 32 219 32 c 2
 289 32 l 1
 285 24 l 1
 277 11 l 1
 274 0 l 1
 -40 0 l 1xf0
476 503 m 1
 333 291 l 1
 470 291 l 1
 476 503 l 1
512 773 m 1
 551 817 589 862 628 907 c 0
 647 930 666 939 687 939 c 0
 721 939 730 912 730 895 c 0
 730 860 700 842 691 836 c 0
 642 805 593 774 543 743 c 1
 536 749 529 756 522 763 c 2
 512 773 l 1
EndSplineSet
Substitution2: "'c2sc' Capitals to Small Capitals lookup 1 subtable" aacute.sc
EndChar

StartChar: Acircumflex
Encoding: 194 194 130
Width: 728
GlyphClass: 2
Flags: MW
HStem: 0 32<-40 25 -24 25 25 51.5 219 274 367 442 442 449 609 669> 229 62<333 468 291 470> 692 20G<549 593 593 593>
VStem: 464 112<61 66> 476 117
LayerCount: 2
Fore
SplineSet
-40 0 m 1xf0
 -24 32 l 1
 25 32 l 2
 78 32 117 66 136 97 c 2
 545 705 l 1
 549 712 l 1
 593 712 l 1
 593 697 l 1xe8
 576 61 l 2
 578 34 586 32 609 32 c 2
 684 32 l 1
 680 25 675 18 671 11 c 2
 669 0 l 1
 351 0 l 1
 367 32 l 1
 442 32 l 2
 456 32 463 33 464 66 c 2
 468 229 l 1
 291 229 l 1
 227 128 l 2
 214 107 196 71 195 53 c 2
 195 50 l 2
 195 39 198 32 219 32 c 2
 289 32 l 1
 285 24 l 1
 277 11 l 1
 274 0 l 1
 -40 0 l 1xf0
476 503 m 1
 333 291 l 1
 470 291 l 1
 476 503 l 1
399 791 m 2
 429 806 518 855 571 935 c 1
 624 935 l 1
 627 924 l 2
 636 876 662 828 718 790 c 2
 732 781 l 1
 724 771 715 762 707 752 c 2
 700 744 l 1
 690 748 l 2
 658 761 606 801 577 838 c 1
 525 800 454 760 416 748 c 2
 402 743 l 1
 398 753 395 763 391 773 c 2
 386 785 l 1
 399 791 l 2
EndSplineSet
Substitution2: "'c2sc' Capitals to Small Capitals lookup 1 subtable" acircumflex.sc
EndChar

StartChar: Atilde
Encoding: 195 195 131
Width: 728
GlyphClass: 2
Flags: MW
HStem: 0 32<-40 25 -24 25 25 51.5 219 274 367 442 442 449 609 669> 229 62<333 468 291 470> 692 20G<549 593 593 593> 797 82<641 670.5 641 673.5> 835 82<479.5 509.5>
VStem: 407 48<792 797> 464 112<61 66> 476 117
LayerCount: 2
Fore
SplineSet
-40 0 m 1xe6
 -24 32 l 1
 25 32 l 2
 78 32 117 66 136 97 c 2
 545 705 l 1
 549 712 l 1
 593 712 l 1
 593 697 l 1xe5
 576 61 l 2
 578 34 586 32 609 32 c 2
 684 32 l 1
 680 25 675 18 671 11 c 2
 669 0 l 1
 351 0 l 1
 367 32 l 1
 442 32 l 2
 456 32 463 33 464 66 c 2
 468 229 l 1
 291 229 l 1
 227 128 l 2
 214 107 196 71 195 53 c 2
 195 50 l 2
 195 39 198 32 219 32 c 2
 289 32 l 1
 285 24 l 1
 277 11 l 1
 274 0 l 1
 -40 0 l 1xe6
476 503 m 1
 333 291 l 1
 470 291 l 1
 476 503 l 1
641 797 m 0xf4
 584 797 532 835 487 835 c 0xec
 472 835 462 827 458 805 c 2
 455 792 l 1
 442 793 l 1
 422 795 l 1
 407 797 l 1xf4
 408 811 l 2
 413 862 445 917 509 917 c 0xec
 567 917 619 879 663 879 c 0xf4
 678 879 688 887 692 909 c 2
 695 922 l 1
 709 921 l 1
 729 919 l 1
 743 917 l 1xec
 742 903 l 2
 738 852 706 797 641 797 c 0xf4
EndSplineSet
MultipleSubs2: "Multiple Substitution lookup 31 subtable" A tildecomb
EndChar

StartChar: Adieresis
Encoding: 196 196 132
Width: 728
GlyphClass: 2
Flags: MW
HStem: 0 32<-40 25 -24 25 25 51.5 219 274 367 442 442 449 609 669> 229 62<333 468 291 470> 692 20G<549 593 593 593> 783 134<465 502.5 465 503 659 697>
VStem: 417 132<850 852> 464 112<61 66> 476 117 612 133<848 850 850 850>
LayerCount: 2
Fore
SplineSet
-40 0 m 1xf5
 -24 32 l 1
 25 32 l 2
 78 32 117 66 136 97 c 2
 545 705 l 1
 549 712 l 1xf9
 593 712 l 1
 593 697 l 1xf3
 576 61 l 2
 578 34 586 32 609 32 c 2
 684 32 l 1
 680 25 675 18 671 11 c 2
 669 0 l 1
 351 0 l 1
 367 32 l 1
 442 32 l 2
 456 32 463 33 464 66 c 2
 468 229 l 1
 291 229 l 1
 227 128 l 2
 214 107 196 71 195 53 c 2
 195 50 l 2
 195 39 198 32 219 32 c 2
 289 32 l 1
 285 24 l 1
 277 11 l 1
 274 0 l 1
 -40 0 l 1xf5
476 503 m 1xf3
 333 291 l 1
 470 291 l 1
 476 503 l 1xf3
417 850 m 0xf9
 417 888 446 917 484 917 c 0
 521 917 549 889 549 852 c 2
 549 850 l 2
 548 812 522 783 484 783 c 0
 446 783 417 812 417 850 c 0xf9
612 850 m 2
 613 888 640 917 678 917 c 0
 716 917 745 888 745 850 c 0
 745 812 716 783 678 783 c 0
 640 783 612 811 612 848 c 2
 612 850 l 2
EndSplineSet
MultipleSubs2: "Multiple Substitution lookup 31 subtable" A uni0308
Substitution2: "'c2sc' Capitals to Small Capitals lookup 1 subtable" adieresis.sc
EndChar

StartChar: Aring
Encoding: 197 197 133
Width: 728
GlyphClass: 2
Flags: MW
HStem: 0 32<-40 25 -24 25 25 51.5 219 274 367 442 442 449 609 669> 229 62<333 468 291 470> 692 20G<549 593 593 593> 739 54<541 575 541 589.5> 909 54<541 575>
VStem: 446 54<835 869 835 883> 464 112<61 66> 476 117 616 54<835 869>
LayerCount: 2
Fore
SplineSet
-40 0 m 1xfa80
 -24 32 l 1
 25 32 l 2
 78 32 117 66 136 97 c 2
 545 705 l 1
 549 712 l 1
 593 712 l 1
 593 697 l 1xf980
 576 61 l 2
 578 34 586 32 609 32 c 2
 684 32 l 1
 680 25 675 18 671 11 c 2
 669 0 l 1
 351 0 l 1
 367 32 l 1
 442 32 l 2
 456 32 463 33 464 66 c 2
 468 229 l 1
 291 229 l 1
 227 128 l 2
 214 107 196 71 195 53 c 2
 195 50 l 2
 195 39 198 32 219 32 c 2
 289 32 l 1
 285 24 l 1
 277 11 l 1
 274 0 l 1
 -40 0 l 1xfa80
476 503 m 1
 333 291 l 1
 470 291 l 1
 476 503 l 1
500 852 m 0xfc80
 500 818 524 793 558 793 c 0
 592 793 616 818 616 852 c 0
 616 886 592 909 558 909 c 0
 524 909 500 886 500 852 c 0xfc80
446 852 m 0
 446 914 496 963 558 963 c 0
 620 963 670 914 670 852 c 0
 670 790 621 739 558 739 c 0
 496 739 446 790 446 852 c 0
EndSplineSet
MultipleSubs2: "Multiple Substitution lookup 31 subtable" A uni030A
EndChar

StartChar: AE
Encoding: 198 198 134
Width: 1043
GlyphClass: 2
LigCaretCntFixed: 1
Flags: MW
HStem: 0 32<-40 27 -24 27 27 51.5 223 277 338 428 428 434.5 577 753 753 766.5> 215 77<369 496 320 512> 337 62<670 736 653 753> 680 32<528 580 512 1109 752 758 758 913>
AnchorPoint: "Anchor-2" 452 0 basechar 0
AnchorPoint: "Anchor-1" 770 782 basechar 0
AnchorPoint: "Anchor-0" 764 762 basechar 0
LayerCount: 2
Fore
SplineSet
586 554 m 1
 369 292 l 1
 512 292 l 1
 586 554 l 1
-40 0 m 1
 -24 32 l 1
 27 32 l 2
 76 32 111 67 138 102 c 2
 541 612 l 2
 567 644 587 669 588 679 c 0
 586 680 584 680 580 680 c 2
 512 680 l 1
 516 687 521 694 525 701 c 2
 528 712 l 1
 1109 712 l 1
 1091 642 1077 568 1060 496 c 2
 1057 484 l 1
 1003 484 l 1
 1005 501 l 1
 1005 501 1008 521 1008 547 c 0
 1008 660 972 680 913 680 c 2
 758 680 l 2
 746 680 743 678 739 663 c 2
 670 399 l 1
 753 399 l 2
 818 399 839 469 855 530 c 2
 858 541 l 1
 916 541 l 1
 885 426 853 312 821 198 c 2
 818 187 l 1
 761 187 l 1
 765 205 l 2
 770 227 776 254 776 277 c 2
 776 284 l 2
 776 320 767 337 736 337 c 2
 653 337 l 1
 573 40 l 2
 572 37 572 34 572 33 c 0
 573 32 575 32 577 32 c 2
 753 32 l 2
 780 32 832 44 871 80 c 0
 932 138 976 258 976 258 c 1
 980 268 l 1
 1035 268 l 1
 1006 181 974 97 944 11 c 2
 940 0 l 1
 322 0 l 1
 338 32 l 1
 428 32 l 2
 441 32 445 35 449 48 c 2
 496 215 l 1
 320 215 l 1
 241 120 l 2
 230 105 202 71 202 46 c 0
 202 39 202 32 223 32 c 2
 293 32 l 1
 289 25 284 18 280 11 c 2
 277 0 l 1
 -40 0 l 1
EndSplineSet
Ligature2: "'rlig' Required Ligatures lookup 22 subtable" A afii301 E
Ligature2: "'rlig' Required Ligatures lookup 22 subtable" A afii301 e
Substitution2: "'c2sc' Capitals to Small Capitals lookup 1 subtable" ae.sc
LCarets2: 1 544
EndChar

StartChar: Ccedilla
Encoding: 199 199 135
Width: 681
GlyphClass: 2
Flags: MW
HStem: -238 54<210 236 210 253> -18 62 668 62<452 520.5 391.5 541.5> 702 20G<674 727 727 727>
VStem: 91 123<176.5 189 189 203 120 371.5> 132 65<-176.5 -149 -176.5 -149> 132 97<-152 -128 -149 -128> 251 59<-31 -30 -30 -30> 280 84<-124 -114 -116 -114 -116 -100.5> 606 51<386 401 386 411> 671 56<710 722>
LayerCount: 2
Fore
SplineSet
280 -121 m 2xe4e0
 280 -80 251 -65 251 -31 c 2
 251 -30 l 2
 252 -24 253 -17 254 -11 c 1
 171 14 91 97 91 256 c 0
 91 487 292 730 491 730 c 0xe960
 550 730 588 699 607 680 c 2
 623 662 l 2
 635 649 636 649 640 649 c 0
 655 649 664 683 671 710 c 2
 674 722 l 1
 727 722 l 1xd960
 704 614 682 506 659 398 c 1
 657 386 l 1
 606 386 l 1
 606 401 l 2
 606 421 607 441 607 464 c 0
 607 514 598 668 485 668 c 0
 419 668 362 637 297 521 c 0
 256 450 218 329 214 203 c 1
 214 189 l 2
 214 51 274 44 324 44 c 0
 428 44 530 149 573 262 c 2
 578 276 l 1
 594 271 609 265 625 260 c 2
 639 255 l 1
 635 241 l 1
 591 114 482 -15 311 -18 c 0
 310 -20 310 -22 310 -23 c 2
 310 -26 l 2xe960
 310 -43 364 -57 364 -114 c 2
 364 -116 l 2
 362 -191 290 -238 216 -238 c 0
 173 -238 132 -206 132 -152 c 2
 132 -149 l 2
 133 -117 155 -84 186 -84 c 0
 210 -84 229 -100 229 -126 c 2
 229 -128 l 2xe2e0
 229 -154 212 -168 197 -174 c 1
 197 -175 l 2
 197 -178 199 -184 221 -184 c 0
 251 -184 279 -155 280 -124 c 2
 280 -121 l 2xe4e0
EndSplineSet
Ligature2: "'ccmp' Glyph Composition/Decomposition lookup 3 subtable" C uni0327
Substitution2: "'c2sc' Capitals to Small Capitals lookup 1 subtable" ccedilla.sc
EndChar

StartChar: Egrave
Encoding: 200 200 136
Width: 732
GlyphClass: 2
Flags: MW
HStem: 0 32<-9 94 6 94 94 100.5 245 425 425 438> 337 62<339 407 322 423> 680 32<195 279 179 786 423.5 429 429 587>
VStem: 382 106
LayerCount: 2
Fore
SplineSet
-9 0 m 1
 4 26 l 1
 6 32 l 1
 94 32 l 2
 107 32 110 35 114 49 c 2
 284 672 l 2
 285 676 285 678 285 679 c 0
 284 680 282 680 279 680 c 2
 179 680 l 1
 183 688 l 1
 192 701 l 1
 195 712 l 1
 786 712 l 1
 782 703 l 1
 736 496 l 1
 733 484 l 1
 679 484 l 1
 681 501 l 1
 681 501 684 521 684 547 c 0
 684 660 648 680 587 680 c 2
 429 680 l 2
 418 680 414 678 410 663 c 2
 339 399 l 1
 423 399 l 2
 490 399 511 469 527 530 c 2
 530 541 l 1
 590 541 l 1
 557 428 526 312 494 198 c 2
 491 187 l 1
 432 187 l 1
 437 205 l 2
 442 227 447 254 448 277 c 2
 448 284 l 2
 448 320 439 337 407 337 c 2
 322 337 l 1
 240 40 l 2
 240 37 239 35 239 33 c 0
 241 32 242 32 245 32 c 2
 425 32 l 2
 451 32 505 44 544 80 c 0
 607 138 652 258 652 258 c 1
 656 268 l 1
 712 268 l 1
 682 181 650 97 619 11 c 1
 616 0 l 1
 -9 0 l 1
382 895 m 0
 382 908 390 945 432 945 c 0
 456 945 478 929 488 898 c 0
 503 853 518 809 533 764 c 1
 508 749 l 1
 497 743 l 1
 465 779 433 814 401 849 c 0
 389 862 382 879 382 895 c 0
EndSplineSet
Substitution2: "'c2sc' Capitals to Small Capitals lookup 1 subtable" egrave.sc
EndChar

StartChar: Eacute
Encoding: 201 201 137
Width: 732
GlyphClass: 2
Flags: MW
HStem: 0 32<-9 94 6 94 94 100.5 245 425 425 438> 337 62<339 407 322 423> 680 32<195 279 179 786 423.5 429 429 587>
LayerCount: 2
Fore
SplineSet
-9 0 m 1
 4 26 l 1
 6 32 l 1
 94 32 l 2
 107 32 110 35 114 49 c 2
 284 672 l 2
 285 676 285 678 285 679 c 0
 284 680 282 680 279 680 c 2
 179 680 l 1
 183 688 l 1
 192 701 l 1
 195 712 l 1
 786 712 l 1
 782 703 l 1
 736 496 l 1
 733 484 l 1
 679 484 l 1
 681 501 l 1
 681 501 684 521 684 547 c 0
 684 660 648 680 587 680 c 2
 429 680 l 2
 418 680 414 678 410 663 c 2
 339 399 l 1
 423 399 l 2
 490 399 511 469 527 530 c 2
 530 541 l 1
 590 541 l 1
 557 428 526 312 494 198 c 2
 491 187 l 1
 432 187 l 1
 437 205 l 2
 442 227 447 254 448 277 c 2
 448 284 l 2
 448 320 439 337 407 337 c 2
 322 337 l 1
 240 40 l 2
 240 37 239 35 239 33 c 0
 241 32 242 32 245 32 c 2
 425 32 l 2
 451 32 505 44 544 80 c 0
 607 138 652 258 652 258 c 1
 656 268 l 1
 712 268 l 1
 682 181 650 97 619 11 c 1
 616 0 l 1
 -9 0 l 1
458 773 m 1
 496 818 535 862 573 907 c 0
 593 930 612 939 633 939 c 0
 666 939 676 912 676 895 c 0
 676 860 646 842 637 836 c 0
 588 805 539 774 489 743 c 1
 482 749 475 756 468 763 c 2
 458 773 l 1
EndSplineSet
Substitution2: "'c2sc' Capitals to Small Capitals lookup 1 subtable" eacute.sc
EndChar

StartChar: Ecircumflex
Encoding: 202 202 138
Width: 732
GlyphClass: 2
Flags: MW
HStem: 0 32<-9 94 6 94 94 100.5 245 425 425 438> 337 62<339 407 322 423> 680 32<195 279 179 786 423.5 429 429 587>
LayerCount: 2
Fore
SplineSet
-9 0 m 1
 4 26 l 1
 6 32 l 1
 94 32 l 2
 107 32 110 35 114 49 c 2
 284 672 l 2
 285 676 285 678 285 679 c 0
 284 680 282 680 279 680 c 2
 179 680 l 1
 183 688 l 1
 192 701 l 1
 195 712 l 1
 786 712 l 1
 782 703 l 1
 736 496 l 1
 733 484 l 1
 679 484 l 1
 681 501 l 1
 681 501 684 521 684 547 c 0
 684 660 648 680 587 680 c 2
 429 680 l 2
 418 680 414 678 410 663 c 2
 339 399 l 1
 423 399 l 2
 490 399 511 469 527 530 c 2
 530 541 l 1
 590 541 l 1
 557 428 526 312 494 198 c 2
 491 187 l 1
 432 187 l 1
 437 205 l 2
 442 227 447 254 448 277 c 2
 448 284 l 2
 448 320 439 337 407 337 c 2
 322 337 l 1
 240 40 l 2
 240 37 239 35 239 33 c 0
 241 32 242 32 245 32 c 2
 425 32 l 2
 451 32 505 44 544 80 c 0
 607 138 652 258 652 258 c 1
 656 268 l 1
 712 268 l 1
 682 181 650 97 619 11 c 1
 616 0 l 1
 -9 0 l 1
344 791 m 2
 366 802 462 853 517 935 c 1
 570 935 l 1
 572 924 l 2
 582 876 608 828 664 790 c 2
 678 781 l 1
 670 771 661 762 653 752 c 2
 646 744 l 1
 636 748 l 2
 603 761 551 801 522 838 c 1
 471 800 400 760 362 748 c 2
 348 743 l 1
 344 753 341 763 337 773 c 2
 332 785 l 1
 344 791 l 2
EndSplineSet
Substitution2: "'c2sc' Capitals to Small Capitals lookup 1 subtable" ecircumflex.sc
EndChar

StartChar: Edieresis
Encoding: 203 203 139
Width: 732
GlyphClass: 2
Flags: MW
HStem: 0 32<-9 94 6 94 94 100.5 245 425 425 438> 337 62<339 407 322 423> 680 32<195 279 179 786 423.5 429 429 587> 783 134<411 448.5 605 643>
VStem: 363 132<850 852 850 869> 558 133<848 850 850 850>
LayerCount: 2
Fore
SplineSet
-9 0 m 1
 4 26 l 1
 6 32 l 1
 94 32 l 2
 107 32 110 35 114 49 c 2
 284 672 l 2
 285 676 285 678 285 679 c 0
 284 680 282 680 279 680 c 2
 179 680 l 1
 183 688 l 1
 192 701 l 1
 195 712 l 1
 786 712 l 1
 782 703 l 1
 736 496 l 1
 733 484 l 1
 679 484 l 1
 681 501 l 1
 681 501 684 521 684 547 c 0
 684 660 648 680 587 680 c 2
 429 680 l 2
 418 680 414 678 410 663 c 2
 339 399 l 1
 423 399 l 2
 490 399 511 469 527 530 c 2
 530 541 l 1
 590 541 l 1
 557 428 526 312 494 198 c 2
 491 187 l 1
 432 187 l 1
 437 205 l 2
 442 227 447 254 448 277 c 2
 448 284 l 2
 448 320 439 337 407 337 c 2
 322 337 l 1
 240 40 l 2
 240 37 239 35 239 33 c 0
 241 32 242 32 245 32 c 2
 425 32 l 2
 451 32 505 44 544 80 c 0
 607 138 652 258 652 258 c 1
 656 268 l 1
 712 268 l 1
 682 181 650 97 619 11 c 1
 616 0 l 1
 -9 0 l 1
363 850 m 0
 363 888 392 917 430 917 c 0
 467 917 495 889 495 852 c 2
 495 850 l 2
 494 812 467 783 430 783 c 0
 392 783 363 812 363 850 c 0
558 850 m 2
 559 888 586 917 624 917 c 0
 662 917 691 888 691 850 c 0
 691 812 662 783 624 783 c 0
 586 783 558 811 558 848 c 2
 558 850 l 2
EndSplineSet
MultipleSubs2: "Multiple Substitution lookup 31 subtable" E uni0308
Substitution2: "'c2sc' Capitals to Small Capitals lookup 1 subtable" edieresis.sc
EndChar

StartChar: Igrave
Encoding: 204 204 140
Width: 449
GlyphClass: 2
Flags: MW
HStem: 0 32<-9 94 6 94 94 100.5 252 340> 680 32<199 287 182 547 438 444 444 532>
VStem: 259 106
LayerCount: 2
Fore
SplineSet
-9 0 m 1
 4 26 l 1
 6 32 l 1
 94 32 l 2
 107 32 110 35 114 49 c 2
 292 672 l 2
 293 676 294 678 294 679 c 0
 292 680 290 680 287 680 c 2
 182 680 l 1
 186 687 191 694 196 701 c 2
 199 712 l 1
 547 712 l 1
 543 702 l 1
 532 680 l 1
 444 680 l 2
 432 680 428 678 424 663 c 2
 247 40 l 2
 246 37 245 35 245 33 c 0
 247 32 249 32 252 32 c 2
 357 32 l 1
 353 25 348 18 343 11 c 2
 340 0 l 1
 -9 0 l 1
259 895 m 0
 259 908 266 945 309 945 c 0
 333 945 354 929 365 898 c 0
 380 853 395 809 410 764 c 1
 401 759 393 754 384 749 c 2
 374 743 l 1
 341 777 309 814 277 849 c 0
 266 862 259 879 259 895 c 0
EndSplineSet
Substitution2: "'c2sc' Capitals to Small Capitals lookup 1 subtable" igrave.sc
EndChar

StartChar: Iacute
Encoding: 205 205 141
Width: 449
GlyphClass: 2
Flags: MW
HStem: 0 32<-9 94 6 94 94 100.5 252 340> 680 32<199 287 182 547 438 444 444 532>
LayerCount: 2
Fore
SplineSet
-9 0 m 1
 4 26 l 1
 6 32 l 1
 94 32 l 2
 107 32 110 35 114 49 c 2
 292 672 l 2
 293 676 294 678 294 679 c 0
 292 680 290 680 287 680 c 2
 182 680 l 1
 186 687 191 694 196 701 c 2
 199 712 l 1
 547 712 l 1
 543 702 l 1
 532 680 l 1
 444 680 l 2
 432 680 428 678 424 663 c 2
 247 40 l 2
 246 37 245 35 245 33 c 0
 247 32 249 32 252 32 c 2
 357 32 l 1
 353 25 348 18 343 11 c 2
 340 0 l 1
 -9 0 l 1
335 773 m 1
 373 818 412 862 450 907 c 0
 469 930 488 939 509 939 c 0
 543 939 552 912 552 895 c 0
 552 860 523 842 513 836 c 0
 464 805 415 774 365 743 c 1
 335 773 l 1
EndSplineSet
Substitution2: "'c2sc' Capitals to Small Capitals lookup 1 subtable" iacute.sc
EndChar

StartChar: Icircumflex
Encoding: 206 206 142
Width: 449
GlyphClass: 2
Flags: MW
HStem: 0 32<-9 94 6 94 94 100.5 252 340> 680 32<199 287 182 547 438 444 444 532>
LayerCount: 2
Fore
SplineSet
-9 0 m 1
 4 26 l 1
 6 32 l 1
 94 32 l 2
 107 32 110 35 114 49 c 2
 292 672 l 2
 293 676 294 678 294 679 c 0
 292 680 290 680 287 680 c 2
 182 680 l 1
 186 687 191 694 196 701 c 2
 199 712 l 1
 547 712 l 1
 543 702 l 1
 532 680 l 1
 444 680 l 2
 432 680 428 678 424 663 c 2
 247 40 l 2
 246 37 245 35 245 33 c 0
 247 32 249 32 252 32 c 2
 357 32 l 1
 353 25 348 18 343 11 c 2
 340 0 l 1
 -9 0 l 1
221 791 m 2
 300 830 354 881 389 929 c 2
 394 935 l 1
 447 935 l 1
 449 924 l 2
 459 876 485 828 540 790 c 2
 554 781 l 1
 546 771 537 762 529 752 c 2
 522 744 l 1
 512 748 l 2
 480 761 428 801 399 838 c 1
 348 800 276 760 238 748 c 2
 225 743 l 1
 221 753 218 763 214 773 c 2
 209 785 l 1
 221 791 l 2
EndSplineSet
Substitution2: "'c2sc' Capitals to Small Capitals lookup 1 subtable" icircumflex.sc
EndChar

StartChar: Idieresis
Encoding: 207 207 143
Width: 449
GlyphClass: 2
Flags: MW
HStem: 0 32<-9 94 6 94 94 100.5 252 340> 680 32<199 287 182 547 438 444 444 532> 783 134<287 325 481.5 519>
VStem: 239 133<850 852 850 869> 435 132<848 850 850 850>
LayerCount: 2
Fore
SplineSet
-9 0 m 1
 4 26 l 1
 6 32 l 1
 94 32 l 2
 107 32 110 35 114 49 c 2
 292 672 l 2
 293 676 294 678 294 679 c 0
 292 680 290 680 287 680 c 2
 182 680 l 1
 186 687 191 694 196 701 c 2
 199 712 l 1
 547 712 l 1
 543 702 l 1
 532 680 l 1
 444 680 l 2
 432 680 428 678 424 663 c 2
 247 40 l 2
 246 37 245 35 245 33 c 0
 247 32 249 32 252 32 c 2
 357 32 l 1
 353 25 348 18 343 11 c 2
 340 0 l 1
 -9 0 l 1
239 850 m 0
 239 888 268 917 306 917 c 0
 344 917 372 889 372 852 c 2
 372 850 l 2
 371 812 344 783 306 783 c 0
 268 783 239 812 239 850 c 0
435 850 m 2
 436 888 463 917 500 917 c 0
 538 917 567 888 567 850 c 0
 567 812 538 783 500 783 c 0
 463 783 435 811 435 848 c 2
 435 850 l 2
EndSplineSet
MultipleSubs2: "Multiple Substitution lookup 31 subtable" I uni0308
Substitution2: "'c2sc' Capitals to Small Capitals lookup 1 subtable" idieresis.sc
EndChar

StartChar: Eth
Encoding: 208 208 144
Width: 762
GlyphClass: 2
Flags: MW
HStem: 0 32<7 95 95 101.5 246 355 -8 95> 341 66<93 194 78 213 342 450> 680 32<197 280 179 536 425 431 431 514>
VStem: 636 123<507 519 519 523.5 337.5 564>
LayerCount: 2
Fore
SplineSet
366 32 m 2
 535 32 631 279 636 507 c 1
 636 519 l 2
 636 609 608 680 514 680 c 2
 431 680 l 2
 419 680 415 678 412 663 c 2
 342 407 l 1
 466 407 l 1
 461 389 l 1
 453 353 l 1
 450 341 l 1
 324 341 l 1
 242 40 l 2
 241 37 240 35 240 33 c 0
 242 32 243 32 246 32 c 2
 366 32 l 2
759 449 m 0
 759 226 575 0 355 0 c 2
 -8 0 l 1
 5 26 l 1
 7 32 l 1
 95 32 l 2
 108 32 111 35 115 49 c 2
 194 341 l 1
 78 341 l 1
 83 359 l 1
 91 395 l 1
 93 407 l 1
 213 407 l 1
 285 672 l 2
 286 676 287 678 287 679 c 0
 285 680 283 680 280 680 c 2
 179 680 l 1
 194 701 l 1
 197 712 l 1
 536 712 l 2
 680 712 759 598 759 449 c 0
EndSplineSet
EndChar

StartChar: Ntilde
Encoding: 209 209 145
Width: 803
GlyphClass: 2
Flags: MW
HStem: -18 21G<524 589 524 524> 0 32<-9 66 6 66 66 83 241 288> 680 32<194 289 178 404 618 666 827.5 841 841 901> 797 82<644 674.5 644 677> 835 82<483 513>
VStem: 411 48<792 797>
LayerCount: 2
Fore
SplineSet
-9 0 m 1x64
 4 26 l 1
 6 32 l 1
 66 32 l 2x64
 100 32 131 69 144 119 c 2
 293 671 l 2
 294 675 295 678 295 679 c 0
 295 680 291 680 289 680 c 2
 178 680 l 1
 182 687 187 694 191 701 c 2
 194 712 l 1
 404 712 l 1
 461 539 518 367 575 194 c 1
 692 605 l 2
 697 621 699 634 699 644 c 2
 699 646 l 2
 699 672 690 680 666 680 c 2
 603 680 l 1
 607 688 l 1
 615 701 l 1
 618 712 l 1
 916 712 l 1
 903 686 l 1
 901 680 l 1
 841 680 l 2
 814 680 779 654 763 597 c 2
 589 -18 l 1
 524 -18 l 1xa4
 462 169 402 358 340 546 c 1
 215 107 l 2
 211 93 209 79 209 68 c 2
 209 64 l 2
 209 42 215 32 241 32 c 2
 304 32 l 1
 300 25 295 18 291 11 c 2
 288 0 l 1
 -9 0 l 1x64
645 797 m 0x34
 587 797 535 835 491 835 c 0x2c
 475 835 466 827 462 805 c 2
 459 792 l 1
 445 793 l 1
 425 795 l 1
 411 797 l 1x34
 412 811 l 2
 416 862 448 917 513 917 c 0x2c
 570 917 621 879 667 879 c 0x34
 682 879 692 887 696 909 c 2
 699 922 l 1
 712 921 l 1
 732 919 l 1
 747 917 l 1x2c
 746 903 l 2
 741 852 709 797 645 797 c 0x34
EndSplineSet
Substitution2: "'c2sc' Capitals to Small Capitals lookup 1 subtable" ntilde.sc
EndChar

StartChar: Ograve
Encoding: 210 210 146
Width: 717
GlyphClass: 2
Flags: MW
HStem: -18 62<284.5 389.5 284.5 402> 668 62<407.5 513.5>
VStem: 92 122<180.5 188 188 200 137.5 385> 383 106 584 122<512 524 524 529.5 325 574.5>
LayerCount: 2
Fore
SplineSet
306 -18 m 0
 170 -18 92 109 92 252 c 0
 92 518 300 730 492 730 c 0
 628 730 706 601 706 458 c 0
 706 192 498 -18 306 -18 c 0
482 668 m 0
 333 668 222 441 214 200 c 1
 214 188 l 2
 214 87 253 44 316 44 c 0
 463 44 576 269 584 512 c 1
 584 524 l 2
 584 625 545 668 482 668 c 0
383 895 m 0
 383 908 391 945 433 945 c 0
 457 945 479 929 489 898 c 0
 504 853 519 809 534 764 c 1
 525 759 517 754 508 749 c 2
 498 743 l 1
 466 779 434 814 402 849 c 0
 390 862 383 879 383 895 c 0
EndSplineSet
Substitution2: "'c2sc' Capitals to Small Capitals lookup 1 subtable" ograve.sc
EndChar

StartChar: Oacute
Encoding: 211 211 147
Width: 717
GlyphClass: 2
Flags: MW
HStem: -18 62<284.5 389.5 284.5 402> 668 62<407.5 513.5>
VStem: 92 122<180.5 188 188 200 137.5 385> 584 122<512 524 524 529.5 325 574.5>
LayerCount: 2
Fore
SplineSet
306 -18 m 0
 170 -18 92 109 92 252 c 0
 92 518 300 730 492 730 c 0
 628 730 706 601 706 458 c 0
 706 192 498 -18 306 -18 c 0
482 668 m 0
 333 668 222 441 214 200 c 1
 214 188 l 2
 214 87 253 44 316 44 c 0
 463 44 576 269 584 512 c 1
 584 524 l 2
 584 625 545 668 482 668 c 0
459 773 m 1
 497 818 536 862 574 907 c 0
 594 930 613 939 633 939 c 0
 667 939 676 912 676 895 c 0
 676 860 647 842 637 836 c 0
 588 805 539 774 489 743 c 1
 459 773 l 1
EndSplineSet
Substitution2: "'c2sc' Capitals to Small Capitals lookup 1 subtable" oacute.sc
EndChar

StartChar: Ocircumflex
Encoding: 212 212 148
Width: 717
GlyphClass: 2
Flags: MW
HStem: -18 62<284.5 389.5 284.5 402> 668 62<407.5 513.5>
VStem: 92 122<180.5 188 188 200 137.5 385> 584 122<512 524 524 529.5 325 574.5>
LayerCount: 2
Fore
SplineSet
306 -18 m 0
 170 -18 92 109 92 252 c 0
 92 518 300 730 492 730 c 0
 628 730 706 601 706 458 c 0
 706 192 498 -18 306 -18 c 0
482 668 m 0
 333 668 222 441 214 200 c 1
 214 188 l 2
 214 87 253 44 316 44 c 0
 463 44 576 269 584 512 c 1
 584 524 l 2
 584 625 545 668 482 668 c 0
646 744 m 1
 610 760 562 789 523 838 c 1
 472 800 400 760 362 748 c 2
 349 743 l 1
 345 753 342 763 338 773 c 2
 333 785 l 1
 345 791 l 2
 367 802 463 853 518 935 c 1
 571 935 l 1
 573 924 l 2
 583 876 609 828 664 790 c 2
 678 781 l 1
 670 771 661 762 653 752 c 2
 646 744 l 1
EndSplineSet
Substitution2: "'c2sc' Capitals to Small Capitals lookup 1 subtable" ocircumflex.sc
EndChar

StartChar: Otilde
Encoding: 213 213 149
Width: 717
GlyphClass: 2
Flags: MW
HStem: -18 62<284.5 389.5 284.5 402> 668 62<407.5 513.5> 797 82<593 623.5 593 626> 835 82<432 462>
VStem: 92 122<180.5 188 188 200 137.5 385> 360 48<792 797> 584 122<512 524 524 529.5 325 574.5> 645 49<903 909>
LayerCount: 2
Fore
SplineSet
306 -18 m 0xce
 170 -18 92 109 92 252 c 0
 92 518 300 730 492 730 c 0
 628 730 706 601 706 458 c 0
 706 192 498 -18 306 -18 c 0xce
482 668 m 0
 333 668 222 441 214 200 c 1
 214 188 l 2
 214 87 253 44 316 44 c 0
 463 44 576 269 584 512 c 1
 584 524 l 2
 584 625 545 668 482 668 c 0
594 797 m 0xed
 536 797 484 835 440 835 c 0xdd
 424 835 415 827 410 805 c 2
 408 792 l 1
 394 793 l 1
 374 795 l 1
 360 797 l 1xed
 361 811 l 2
 365 862 397 917 462 917 c 0xdd
 519 917 570 879 616 879 c 0xed
 631 879 641 887 645 909 c 2
 647 922 l 1
 661 921 l 1
 681 919 l 1
 696 917 l 1xdd
 694 903 l 2
 690 852 658 797 594 797 c 0xed
EndSplineSet
MultipleSubs2: "Multiple Substitution lookup 31 subtable" O tildecomb
EndChar

StartChar: Odieresis
Encoding: 214 214 150
Width: 717
GlyphClass: 2
Flags: MW
HStem: -18 62<284.5 389.5 284.5 402> 668 62<407.5 513.5> 783 134<412 449.5 605.5 643>
VStem: 92 122<180.5 188 188 200 137.5 385> 364 132<850 852 850 869> 559 132<848 850 850 850> 584 122<512 524 524 529.5 325 574.5>
LayerCount: 2
Fore
SplineSet
306 -18 m 0xfa
 170 -18 92 109 92 252 c 0
 92 518 300 730 492 730 c 0
 628 730 706 601 706 458 c 0
 706 192 498 -18 306 -18 c 0xfa
482 668 m 0
 333 668 222 441 214 200 c 1
 214 188 l 2
 214 87 253 44 316 44 c 0
 463 44 576 269 584 512 c 1
 584 524 l 2
 584 625 545 668 482 668 c 0
364 850 m 0
 364 888 393 917 431 917 c 0
 468 917 496 889 496 852 c 2
 496 850 l 2
 495 812 468 783 431 783 c 0
 393 783 364 812 364 850 c 0
559 850 m 2xfc
 560 888 587 917 624 917 c 0
 662 917 691 888 691 850 c 0
 691 812 662 783 624 783 c 0
 587 783 559 811 559 848 c 2
 559 850 l 2xfc
EndSplineSet
MultipleSubs2: "Multiple Substitution lookup 31 subtable" O uni0308
Substitution2: "'c2sc' Capitals to Small Capitals lookup 1 subtable" odieresis.sc
EndChar

StartChar: multiply
Encoding: 215 215 151
Width: 925
GlyphClass: 2
Flags: W
LayerCount: 2
Fore
SplineSet
160 -3 m 1
 169 8 l 1
 432 279 l 1
 342 373 252 466 163 561 c 1
 176 576 191 590 205 604 c 2
 216 614 l 1
 227 604 l 1
 484 331 l 1
 576 425 667 520 759 614 c 1
 772 600 784 586 796 572 c 2
 805 561 l 1
 715 466 624 373 533 279 c 1
 623 185 712 90 802 -3 c 1
 749 -56 l 1
 738 -46 l 1
 481 227 l 1
 389 133 298 38 206 -56 c 1
 193 -42 181 -28 169 -14 c 2
 160 -3 l 1
EndSplineSet
EndChar

StartChar: Oslash
Encoding: 216 216 152
Width: 718
GlyphClass: 2
Flags: MW
HStem: -18 62<298 390 298 407> 668 62<406 510.5>
VStem: 97 125<185 385.5> 586 125<324.5 525>
AnchorPoint: "Anchor-2" 310 0 basechar 0
AnchorPoint: "Anchor-1" 500 782 basechar 0
AnchorPoint: "Anchor-0" 494 762 basechar 0
LayerCount: 2
Fore
SplineSet
486 668 m 0
 326 668 227 396 222 185 c 1
 580 579 l 1
 567 642 535 668 486 668 c 0
586 525 m 1
 228 131 l 1
 242 71 274 44 322 44 c 0
 458 44 573 253 586 525 c 1
43 20 m 1
 72 49 100 79 129 109 c 1
 108 151 97 201 97 253 c 0
 97 518 307 730 495 730 c 0
 559 730 611 700 646 653 c 1
 671 681 697 709 722 737 c 1
 767 692 l 1
 738 662 709 631 680 601 c 1
 701 558 711 509 711 457 c 0
 711 192 501 -18 313 -18 c 0
 249 -18 198 11 162 58 c 1
 137 30 113 2 88 -25 c 1
 43 20 l 1
EndSplineSet
EndChar

StartChar: Ugrave
Encoding: 217 217 153
Width: 799
GlyphClass: 2
Flags: MW
HStem: -18 62<336.5 434 336.5 451> 680 32<171 250 155 499 393.5 400 400 483 612 660 821 837 837 896>
VStem: 133 114<134.5 164 164 169 125.5 201.5> 435 106
LayerCount: 2
Fore
SplineSet
367 -18 m 0
 211 -18 133 78 133 191 c 0
 133 212 138 235 143 257 c 2
 255 672 l 2
 256 675 256 678 256 679 c 0
 256 680 252 680 250 680 c 2
 155 680 l 1
 159 687 164 694 168 701 c 2
 171 712 l 1
 499 712 l 1
 483 680 l 1
 400 680 l 2
 387 680 385 678 381 664 c 2
 256 222 l 2
 251 202 247 185 247 169 c 2
 247 164 l 2
 247 87 297 44 376 44 c 0
 492 44 551 130 575 217 c 2
 688 607 l 2
 690 617 694 638 694 645 c 2
 694 647 l 2
 694 664 689 680 660 680 c 2
 596 680 l 1
 600 687 605 694 609 701 c 2
 612 712 l 1
 912 712 l 1
 896 680 l 1
 837 680 l 2
 805 680 772 647 758 597 c 2
 649 219 l 2
 612 91 535 -18 367 -18 c 0
435 895 m 0
 435 908 442 945 485 945 c 0
 509 945 530 929 541 898 c 0
 556 853 571 809 586 764 c 1
 577 759 569 754 560 749 c 2
 550 743 l 1
 517 777 485 814 453 849 c 0
 442 862 435 879 435 895 c 0
EndSplineSet
Substitution2: "'c2sc' Capitals to Small Capitals lookup 1 subtable" ugrave.sc
EndChar

StartChar: Uacute
Encoding: 218 218 154
Width: 799
GlyphClass: 2
Flags: MW
HStem: -18 62<336.5 434 336.5 451> 680 32<171 250 155 499 393.5 400 400 483 612 660 821 837 837 896>
VStem: 133 114<134.5 164 164 169 125.5 201.5>
LayerCount: 2
Fore
SplineSet
367 -18 m 0
 211 -18 133 78 133 191 c 0
 133 212 138 235 143 257 c 2
 255 672 l 2
 256 675 256 678 256 679 c 0
 256 680 252 680 250 680 c 2
 155 680 l 1
 159 687 164 694 168 701 c 2
 171 712 l 1
 499 712 l 1
 483 680 l 1
 400 680 l 2
 387 680 385 678 381 664 c 2
 256 222 l 2
 251 202 247 185 247 169 c 2
 247 164 l 2
 247 87 297 44 376 44 c 0
 492 44 551 130 575 217 c 2
 688 607 l 2
 690 617 694 638 694 645 c 2
 694 647 l 2
 694 664 689 680 660 680 c 2
 596 680 l 1
 600 687 605 694 609 701 c 2
 612 712 l 1
 912 712 l 1
 896 680 l 1
 837 680 l 2
 805 680 772 647 758 597 c 2
 649 219 l 2
 612 91 535 -18 367 -18 c 0
511 773 m 1
 549 818 588 862 626 907 c 0
 645 930 664 939 685 939 c 0
 719 939 728 912 728 895 c 0
 728 860 699 842 689 836 c 0
 640 805 591 774 541 743 c 1
 511 773 l 1
EndSplineSet
Substitution2: "'c2sc' Capitals to Small Capitals lookup 1 subtable" uacute.sc
EndChar

StartChar: Ucircumflex
Encoding: 219 219 155
Width: 799
GlyphClass: 2
Flags: MW
HStem: -18 62<336.5 434 336.5 451> 680 32<171 250 155 499 393.5 400 400 483 612 660 821 837 837 896>
VStem: 133 114<134.5 164 164 169 125.5 201.5>
LayerCount: 2
Fore
SplineSet
367 -18 m 0
 211 -18 133 78 133 191 c 0
 133 212 138 235 143 257 c 2
 255 672 l 2
 256 675 256 678 256 679 c 0
 256 680 252 680 250 680 c 2
 155 680 l 1
 159 687 164 694 168 701 c 2
 171 712 l 1
 499 712 l 1
 483 680 l 1
 400 680 l 2
 387 680 385 678 381 664 c 2
 256 222 l 2
 251 202 247 185 247 169 c 2
 247 164 l 2
 247 87 297 44 376 44 c 0
 492 44 551 130 575 217 c 2
 688 607 l 2
 690 617 694 638 694 645 c 2
 694 647 l 2
 694 664 689 680 660 680 c 2
 596 680 l 1
 600 687 605 694 609 701 c 2
 612 712 l 1
 912 712 l 1
 896 680 l 1
 837 680 l 2
 805 680 772 647 758 597 c 2
 649 219 l 2
 612 91 535 -18 367 -18 c 0
397 791 m 2
 476 830 530 881 565 929 c 2
 570 935 l 1
 623 935 l 1
 625 924 l 2
 635 876 661 828 716 790 c 2
 730 781 l 1
 722 771 713 762 705 752 c 2
 698 744 l 1
 688 748 l 2
 656 761 604 801 575 838 c 1
 524 800 452 760 414 748 c 2
 401 743 l 1
 397 753 394 763 390 773 c 2
 385 785 l 1
 397 791 l 2
EndSplineSet
Substitution2: "'c2sc' Capitals to Small Capitals lookup 1 subtable" ucircumflex.sc
EndChar

StartChar: Udieresis
Encoding: 220 220 156
Width: 799
GlyphClass: 2
Flags: MW
HStem: -18 62<336.5 434 336.5 451> 680 32<171 250 155 499 393.5 400 400 483 612 660 821 837 837 896> 783 134<463 501 657.5 695>
VStem: 133 114<134.5 164 164 169 125.5 201.5> 415 133<850 852 850 869> 611 132<848 850 850 850>
LayerCount: 2
Fore
SplineSet
367 -18 m 0
 211 -18 133 78 133 191 c 0
 133 212 138 235 143 257 c 2
 255 672 l 2
 256 675 256 678 256 679 c 0
 256 680 252 680 250 680 c 2
 155 680 l 1
 159 687 164 694 168 701 c 2
 171 712 l 1
 499 712 l 1
 483 680 l 1
 400 680 l 2
 387 680 385 678 381 664 c 2
 256 222 l 2
 251 202 247 185 247 169 c 2
 247 164 l 2
 247 87 297 44 376 44 c 0
 492 44 551 130 575 217 c 2
 688 607 l 2
 690 617 694 638 694 645 c 2
 694 647 l 2
 694 664 689 680 660 680 c 2
 596 680 l 1
 600 687 605 694 609 701 c 2
 612 712 l 1
 912 712 l 1
 896 680 l 1
 837 680 l 2
 805 680 772 647 758 597 c 2
 649 219 l 2
 612 91 535 -18 367 -18 c 0
415 850 m 0
 415 888 444 917 482 917 c 0
 520 917 548 889 548 852 c 2
 548 850 l 2
 547 812 520 783 482 783 c 0
 444 783 415 812 415 850 c 0
611 850 m 2
 612 888 639 917 676 917 c 0
 714 917 743 888 743 850 c 0
 743 812 714 783 676 783 c 0
 639 783 611 811 611 848 c 2
 611 850 l 2
EndSplineSet
MultipleSubs2: "Multiple Substitution lookup 31 subtable" U uni0308
Substitution2: "'c2sc' Capitals to Small Capitals lookup 1 subtable" udieresis.sc
EndChar

StartChar: Yacute
Encoding: 221 221 157
Width: 731
GlyphClass: 2
Flags: MW
HStem: 0 32<122 223 223 228.5 366 469 107 223> 680 32<137 214 121 479 380 390 390 462 548 591 769.5 791 791 849>
LayerCount: 2
Fore
SplineSet
363 654 m 2
 363 651 l 1
 421 402 l 1
 473 460 524 519 576 578 c 0
 595 601 622 633 622 656 c 2
 622 659 l 2
 622 671 619 680 591 680 c 2
 531 680 l 1
 535 687 540 694 545 701 c 2
 548 712 l 1
 865 712 l 1
 849 680 l 1
 791 680 l 2
 748 680 710 642 683 609 c 0
 603 513 524 416 444 320 c 1
 368 39 l 2
 367 36 366 33 366 32 c 1
 485 32 l 1
 481 25 476 18 472 11 c 2
 469 0 l 1
 107 0 l 1
 120 26 l 1
 122 32 l 1
 223 32 l 2
 234 32 237 34 241 48 c 2
 314 316 l 1
 249 645 l 2
 240 677 234 680 214 680 c 2
 121 680 l 1
 125 687 130 694 134 701 c 2
 137 712 l 1
 479 712 l 1
 473 698 470 695 462 680 c 1
 390 680 l 2
 370 680 362 667 362 660 c 0
 362 658 362 656 363 654 c 2
458 773 m 1
 497 817 535 862 574 907 c 0
 593 930 612 939 633 939 c 0
 667 939 676 912 676 895 c 0
 676 860 646 842 637 836 c 0
 588 805 539 774 489 743 c 1
 482 749 475 756 468 763 c 2
 458 773 l 1
EndSplineSet
EndChar

StartChar: Thorn
Encoding: 222 222 158
Width: 699
GlyphClass: 2
Flags: MW
HStem: 0 32<-9 94 6 94 94 100.5 246 356> 170 71<296 384 278 406> 531 74<388 533 397 497> 680 32<197 281 179 567 425 432 432 551>
VStem: 569 124<438 443 443 476.5>
LayerCount: 2
Fore
SplineSet
406 241 m 2
 490 241 566 321 569 438 c 2
 569 443 l 2
 569 510 534 531 497 531 c 2
 394 531 l 2
 382 531 379 529 375 515 c 2
 296 241 l 1
 406 241 l 2
-9 0 m 1
 4 26 l 1
 6 32 l 1
 94 32 l 2
 107 32 110 35 114 49 c 2
 286 672 l 2
 287 676 287 678 287 679 c 0
 285 680 284 680 281 680 c 2
 179 680 l 1
 184 688 l 1
 194 701 l 1
 197 712 l 1
 567 712 l 1
 551 680 l 1
 432 680 l 2
 418 680 417 679 413 663 c 2
 397 605 l 1
 533 605 l 2
 623 605 693 534 693 423 c 0
 693 288 570 170 384 170 c 2
 278 170 l 1
 242 40 l 2
 241 37 240 34 240 33 c 0
 242 32 243 32 246 32 c 2
 372 32 l 1
 368 25 363 18 359 11 c 2
 356 0 l 1
 -9 0 l 1
EndSplineSet
EndChar

StartChar: germandbls
Encoding: 223 223 159
Width: 512
GlyphClass: 2
Flags: MW
HStem: -12 54<235.5 276.5 235.5 319> 65 101 388 58<278 317 260 327> 666 54<403.5 426.5>
VStem: 144 74<53.5 84 53.5 84> 372 107<266 275 275 296.5 204 306> 457 94<592 601 601 625 553.5 625.5>
LayerCount: 2
Fore
SplineSet
479 256 m 0xfc
 479 152 400 -12 238 -12 c 0
 184 -12 144 29 144 81 c 2
 144 84 l 1
 64 -194 l 1
 61 -205 l 1
 -36 -205 l 1
 33 36 103 274 173 514 c 0
 217 660 337 720 418 720 c 0
 518 720 551 654 551 596 c 0xfa
 551 511 479 446 400 422 c 1
 443 394 479 337 479 256 c 0xfc
327 446 m 2
 405 446 457 526 457 592 c 2
 457 601 l 2xfa
 457 650 444 666 409 666 c 0
 398 666 324 661 286 534 c 2
 160 130 l 1
 172 149 195 166 227 166 c 0
 261 166 277 140 277 119 c 2
 277 118 l 2
 276 93 261 76 225 65 c 0
 217 63 218 63 218 57 c 0
 218 50 224 42 247 42 c 0
 306 42 372 151 372 266 c 2
 372 275 l 2xfc
 372 337 359 388 317 388 c 2
 260 388 l 1
 265 404 270 419 275 435 c 2
 278 446 l 1
 327 446 l 2
EndSplineSet
Substitution2: "'smcp' Lowercase to Small Capitals lookup 0 subtable" germandbls.sc
EndChar

StartChar: agrave
Encoding: 224 224 160
Width: 559
GlyphClass: 2
Flags: MW
HStem: -12 54<162.5 194> -12 64<392 394 394 406.5 392 418> 402 54<268 313.5> 424 20G<407 498 498 498>
VStem: 43 101<90.5 91 91 96 77 175.5> 246 95<635 635 635 641>
LayerCount: 2
Fore
SplineSet
299 402 m 0xac
 237 402 146 228 144 96 c 2
 144 91 l 2
 144 63 153 42 172 42 c 0
 262 42 347 252 349 331 c 2
 349 336 l 2
 349 384 328 402 299 402 c 0xac
164 -12 m 0
 87 -12 43 50 43 131 c 0
 43 220 79 298 104 336 c 0
 150 405 225 456 301 456 c 0xac
 336 456 372 437 392 395 c 1
 404 433 l 1
 407 444 l 1
 498 444 l 1
 468 340 437 237 406 134 c 0
 402 120 391 82 391 63 c 0
 391 57 392 53 392 52 c 1
 394 52 l 2x5c
 419 52 461 109 492 202 c 2
 497 216 l 1
 510 211 l 1
 530 205 l 1
 545 201 l 1
 540 186 l 2
 513 106 462 -12 374 -12 c 0
 315 -12 305 47 303 82 c 1
 273 40 224 -12 164 -12 c 0
353 490 m 1
 322 524 292 559 262 593 c 0
 252 605 246 621 246 635 c 0
 246 647 254 681 292 681 c 0
 319 681 332 663 341 635 c 2
 381 516 l 1
 383 512 l 1
 384 508 l 1
 380 506 l 2
 370 500 358 493 353 490 c 1
EndSplineSet
Substitution2: "'smcp' Lowercase to Small Capitals lookup 0 subtable" agrave.sc
EndChar

StartChar: aacute
Encoding: 225 225 161
Width: 559
GlyphClass: 2
Flags: MW
HStem: -12 54<162.5 194> -12 64<392 394 394 406.5 392 418> 402 54<268 313.5> 424 20G<407 498 498 498>
VStem: 43 101<90.5 91 91 96 77 175.5>
LayerCount: 2
Fore
SplineSet
299 402 m 0xa8
 237 402 146 228 144 96 c 2
 144 91 l 2
 144 63 153 42 172 42 c 0
 262 42 347 252 349 331 c 2
 349 336 l 2
 349 384 328 402 299 402 c 0xa8
164 -12 m 0
 87 -12 43 50 43 131 c 0
 43 220 79 298 104 336 c 0
 150 405 225 456 301 456 c 0xa8
 336 456 372 437 392 395 c 1
 404 433 l 1
 407 444 l 1
 498 444 l 1
 468 340 437 237 406 134 c 0
 402 120 391 82 391 63 c 0
 391 57 392 53 392 52 c 1
 394 52 l 2x58
 419 52 461 109 492 202 c 2
 497 216 l 1
 510 211 l 1
 530 205 l 1
 545 201 l 1
 540 186 l 2
 513 106 462 -12 374 -12 c 0
 315 -12 305 47 303 82 c 1
 273 40 224 -12 164 -12 c 0
324 519 m 1
 360 564 399 606 436 650 c 0
 455 672 472 680 491 680 c 0
 521 680 529 657 529 641 c 0
 529 610 504 593 493 587 c 2
 355 500 l 1
 351 497 l 1
 348 495 l 1
 324 519 l 1
EndSplineSet
Substitution2: "'smcp' Lowercase to Small Capitals lookup 0 subtable" aacute.sc
EndChar

StartChar: acircumflex
Encoding: 226 226 162
Width: 559
GlyphClass: 2
Flags: MW
HStem: -12 54<162.5 194> -12 64<392 394 394 406.5 392 418> 402 54<268 313.5> 424 20G<407 498 498 498> 667 20G<352 414 414 414>
VStem: 43 101<90.5 91 91 96 77 175.5>
LayerCount: 2
Fore
SplineSet
299 402 m 0xac
 237 402 146 228 144 96 c 2
 144 91 l 2
 144 63 153 42 172 42 c 0
 262 42 347 252 349 331 c 2
 349 336 l 2
 349 384 328 402 299 402 c 0xac
164 -12 m 0
 87 -12 43 50 43 131 c 0
 43 220 79 298 104 336 c 0
 150 405 225 456 301 456 c 0xac
 336 456 372 437 392 395 c 1
 404 433 l 1
 407 444 l 1
 498 444 l 1
 468 340 437 237 406 134 c 0
 402 120 391 82 391 63 c 0
 391 57 392 53 392 52 c 1
 394 52 l 2x5c
 419 52 461 109 492 202 c 2
 497 216 l 1
 510 211 l 1
 530 205 l 1
 545 201 l 1
 540 186 l 2
 513 106 462 -12 374 -12 c 0
 315 -12 305 47 303 82 c 1
 273 40 224 -12 164 -12 c 0
201 534 m 2
 275 573 320 635 347 680 c 1
 352 687 l 1
 414 687 l 1
 415 673 l 2
 419 628 432 570 479 533 c 2
 492 523 l 1
 484 515 477 506 469 498 c 2
 461 489 l 1
 451 495 l 2
 416 516 383 545 358 578 c 1
 312 543 266 515 220 494 c 2
 207 488 l 1
 195 515 l 1
 189 528 l 1
 201 534 l 2
EndSplineSet
Substitution2: "'smcp' Lowercase to Small Capitals lookup 0 subtable" acircumflex.sc
EndChar

StartChar: atilde
Encoding: 227 227 163
Width: 559
GlyphClass: 2
Flags: MW
HStem: -12 54<162.5 194> -12 64<392 394 394 406.5 392 418> 402 54<268 313.5> 424 20G<407 498 498 498> 541 84<425 452 425 455.5> 581 84<278 305>
VStem: 43 101<90.5 91 91 96 77 175.5> 212 50<541 556 541 582> 468 50<624 665>
LayerCount: 2
Fore
SplineSet
299 402 m 0xa380
 237 402 146 228 144 96 c 2
 144 91 l 2
 144 63 153 42 172 42 c 0
 262 42 347 252 349 331 c 2
 349 336 l 2
 349 384 328 402 299 402 c 0xa380
164 -12 m 0
 87 -12 43 50 43 131 c 0
 43 220 79 298 104 336 c 0
 150 405 225 456 301 456 c 0xa380
 336 456 372 437 392 395 c 1
 404 433 l 1
 407 444 l 1
 498 444 l 1
 468 340 437 237 406 134 c 0
 402 120 391 82 391 63 c 0
 391 57 392 53 392 52 c 1
 394 52 l 2x5380
 419 52 461 109 492 202 c 2
 497 216 l 1
 510 211 l 1
 530 205 l 1
 545 201 l 1
 540 186 l 2
 513 106 462 -12 374 -12 c 0
 315 -12 305 47 303 82 c 1
 273 40 224 -12 164 -12 c 0
212 556 m 2
 212 608 242 665 307 665 c 0x0780
 377 665 405 625 445 625 c 0x0b80
 459 625 462 630 466 652 c 2
 468 665 l 1
 518 665 l 1x0780
 518 650 l 2
 518 598 488 541 423 541 c 0x0b80
 353 541 325 581 285 581 c 0x0780
 271 581 268 576 264 554 c 2
 262 541 l 1
 212 541 l 1x0b80
 212 556 l 2
EndSplineSet
MultipleSubs2: "Multiple Substitution lookup 31 subtable" a tildecomb
EndChar

StartChar: adieresis
Encoding: 228 228 164
Width: 559
GlyphClass: 2
Flags: MW
HStem: -12 54<162.5 194> -12 64<392 394 394 406.5 392 418> 402 54<268 313.5> 424 20G<407 498 498 498> 533 126<251.5 286 439.5 474>
VStem: 43 101<90.5 91 91 96 77 175.5> 206 126<579 613> 394 126<579 613>
LayerCount: 2
Fore
SplineSet
299 402 m 0xaf
 237 402 146 228 144 96 c 2
 144 91 l 2
 144 63 153 42 172 42 c 0
 262 42 347 252 349 331 c 2
 349 336 l 2
 349 384 328 402 299 402 c 0xaf
164 -12 m 0
 87 -12 43 50 43 131 c 0
 43 220 79 298 104 336 c 0
 150 405 225 456 301 456 c 0xaf
 336 456 372 437 392 395 c 1
 404 433 l 1
 407 444 l 1
 498 444 l 1
 468 340 437 237 406 134 c 0
 402 120 391 82 391 63 c 0
 391 57 392 53 392 52 c 1
 394 52 l 2x5f
 419 52 461 109 492 202 c 2
 497 216 l 1
 510 211 l 1
 530 205 l 1
 545 201 l 1
 540 186 l 2
 513 106 462 -12 374 -12 c 0
 315 -12 305 47 303 82 c 1
 273 40 224 -12 164 -12 c 0
206 596 m 0
 206 630 234 659 269 659 c 0
 303 659 332 630 332 596 c 0
 332 562 303 533 269 533 c 0
 234 533 206 562 206 596 c 0
394 596 m 0
 394 630 422 659 457 659 c 0
 491 659 520 630 520 596 c 0
 520 562 491 533 457 533 c 0
 422 533 394 562 394 596 c 0
EndSplineSet
MultipleSubs2: "Multiple Substitution lookup 31 subtable" a uni0308
Substitution2: "'smcp' Lowercase to Small Capitals lookup 0 subtable" adieresis.sc
EndChar

StartChar: aring
Encoding: 229 229 165
Width: 559
GlyphClass: 2
Flags: MW
HStem: -12 54<162.5 194> -12 64<392 394 394 406.5 392 418> 402 54<268 313.5> 424 20G<407 498 498 498> 485 54<341 374.5 341 389> 655 54<340.5 375>
VStem: 43 101<90.5 91 91 96 77 175.5> 246 54<581 615 581 629> 416 54<581 615>
LayerCount: 2
Fore
SplineSet
299 402 m 0xaf80
 237 402 146 228 144 96 c 2
 144 91 l 2
 144 63 153 42 172 42 c 0
 262 42 347 252 349 331 c 2
 349 336 l 2
 349 384 328 402 299 402 c 0xaf80
164 -12 m 0
 87 -12 43 50 43 131 c 0
 43 220 79 298 104 336 c 0
 150 405 225 456 301 456 c 0xaf80
 336 456 372 437 392 395 c 1
 404 433 l 1
 407 444 l 1
 498 444 l 1
 468 340 437 237 406 134 c 0
 402 120 391 82 391 63 c 0
 391 57 392 53 392 52 c 1
 394 52 l 2x5f80
 419 52 461 109 492 202 c 2
 497 216 l 1
 510 211 l 1
 530 205 l 1
 545 201 l 1
 540 186 l 2
 513 106 462 -12 374 -12 c 0
 315 -12 305 47 303 82 c 1
 273 40 224 -12 164 -12 c 0
300 598 m 0
 300 564 324 539 358 539 c 0
 391 539 416 564 416 598 c 0
 416 632 392 655 358 655 c 0
 323 655 300 632 300 598 c 0
246 598 m 0
 246 660 295 709 358 709 c 0
 420 709 470 660 470 598 c 0
 470 536 420 485 358 485 c 0
 295 485 246 536 246 598 c 0
EndSplineSet
MultipleSubs2: "Multiple Substitution lookup 31 subtable" a uni030A
EndChar

StartChar: ae
Encoding: 230 230 166
Width: 692
GlyphClass: 2
LigCaretCntFixed: 1
Flags: MW
HStem: -12 54<162.5 195.5 445.5 494> 402 54<265.5 308.5 565 578> 424 20G<399 493 493 493>
VStem: 43 101<90.5 91 91 96 77 216> 597 78<364 365 365 382>
AnchorPoint: "Anchor-2" 296 0 basechar 0
AnchorPoint: "Anchor-1" 444 528 basechar 0
AnchorPoint: "Anchor-0" 438 508 basechar 0
LayerCount: 2
Fore
SplineSet
43 131 m 0xd8
 43 301 165 456 296 456 c 0xd8
 330 456 365 437 384 395 c 1
 395 433 l 1
 399 444 l 1
 493 444 l 1xb8
 481 406 l 1
 515 440 548 456 582 456 c 0
 635 456 675 420 675 366 c 0
 675 302 618 220 421 204 c 1
 411 179 401 145 400 111 c 2
 400 106 l 2
 400 46 432 42 459 42 c 0
 536 42 595 153 603 175 c 2
 608 189 l 1
 619 185 631 181 643 177 c 2
 657 172 l 1
 652 158 l 2
 621 68 536 -12 452 -12 c 0
 352 -12 317 49 306 94 c 1
 277 48 227 -12 164 -12 c 0
 87 -12 43 50 43 131 c 0xd8
438 242 m 1
 532 248 597 282 597 364 c 2
 597 365 l 2
 597 399 585 402 571 402 c 0
 554 402 497 389 438 242 c 1
294 402 m 0
 237 402 146 231 144 96 c 2
 144 91 l 2
 144 63 153 42 172 42 c 0
 258 42 341 254 343 331 c 2
 343 336 l 2
 343 384 323 402 294 402 c 0
EndSplineSet
Ligature2: "'rlig' Required Ligatures lookup 22 subtable" a afii301 e
Substitution2: "'smcp' Lowercase to Small Capitals lookup 0 subtable" ae.sc
LCarets2: 1 352
EndChar

StartChar: ccedilla
Encoding: 231 231 167
Width: 459
GlyphClass: 2
Flags: MW
HStem: -212 52<116 140 116 156.5> -12 54<207 207> 402 54<289.5 334.5>
VStem: 41 95<-161 -111> 52 101<79 200> 144 60<-33 -32 -32 -32> 166 92<-121 -119 -119 -103> 307 128<297.5 384>
LayerCount: 2
Fore
SplineSet
204 -22 m 2xe5
 204 -44 258 -63 258 -111 c 0
 258 -170 190 -212 123 -212 c 0
 89 -212 41 -189 41 -133 c 0
 41 -106 60 -67 98 -67 c 0
 123 -67 136 -89 136 -111 c 2
 136 -113 l 2
 135 -134 121 -150 105 -153 c 1
 106 -154 106 -160 126 -160 c 0
 154 -160 165 -139 166 -121 c 2
 166 -119 l 2xf3
 166 -87 144 -70 144 -34 c 2
 144 -32 l 2xe5
 145 -23 146 -13 150 -3 c 1
 88 20 52 89 52 162 c 0xe9
 52 238 81 319 144 381 c 1xe5
 195 425 253 456 326 456 c 0
 372 456 435 427 435 341 c 0
 435 295 404 256 363 256 c 0
 326 256 307 286 307 309 c 0
 308 341 331 361 346 373 c 0
 351 377 351 380 352 387 c 0
 351 389 348 402 321 402 c 0
 258 402 209 309 184 251 c 0
 165 210 154 135 154 108 c 0
 153 106 153 105 153 104 c 0xe9
 153 54 182 42 208 42 c 0
 306 42 355 152 363 175 c 2
 368 189 l 1
 379 185 391 181 403 177 c 2
 418 172 l 1
 413 158 l 2
 382 70 312 -8 207 -12 c 1
 204 -18 204 -18 204 -21 c 2
 204 -22 l 2xe5
EndSplineSet
Ligature2: "'ccmp' Glyph Composition/Decomposition lookup 3 subtable" c uni0327
Substitution2: "'smcp' Lowercase to Small Capitals lookup 0 subtable" ccedilla.sc
EndChar

StartChar: egrave
Encoding: 232 232 168
Width: 446
GlyphClass: 2
Flags: MW
HStem: -12 54<193 254> 402 54<300 331>
VStem: 52 101<79 200> 243 95<635 635 635 641> 349 77<363 367 367 382.5>
LayerCount: 2
Fore
SplineSet
199 293 m 0
 195 285 186 258 181 242 c 1
 213 244 249 250 284 264 c 0
 321 279 348 315 349 363 c 2
 349 367 l 2
 349 398 337 402 325 402 c 0
 275 402 219 342 199 293 c 0
199 -12 m 0
 107 -12 52 72 52 162 c 0
 52 238 81 319 144 381 c 0
 193 425 260 456 326 456 c 0
 373 456 426 433 426 364 c 0
 426 304 379 261 317 234 c 0
 263 213 205 207 165 204 c 1
 160 180 154 141 154 108 c 0
 154 107 153 106 153 104 c 0
 153 54 180 42 206 42 c 0
 307 42 355 152 363 175 c 2
 368 189 l 1
 379 185 391 181 403 177 c 2
 418 172 l 1
 413 158 l 2
 382 69 309 -12 199 -12 c 0
350 490 m 1
 319 524 289 559 259 593 c 0
 248 605 243 621 243 635 c 0
 243 647 250 681 289 681 c 0
 315 681 329 663 338 635 c 2
 378 516 l 1
 379 512 l 1
 381 508 l 1
 377 506 l 2
 367 500 355 493 350 490 c 1
EndSplineSet
Substitution2: "'smcp' Lowercase to Small Capitals lookup 0 subtable" egrave.sc
EndChar

StartChar: eacute
Encoding: 233 233 169
Width: 446
GlyphClass: 2
Flags: MW
HStem: -12 54<193 254> 402 54<300 331>
VStem: 52 101<79 200> 349 77<363 367 367 382.5>
LayerCount: 2
Fore
SplineSet
199 293 m 0
 195 285 186 258 181 242 c 1
 213 244 249 250 284 264 c 0
 321 279 348 315 349 363 c 2
 349 367 l 2
 349 398 337 402 325 402 c 0
 275 402 219 342 199 293 c 0
199 -12 m 0
 107 -12 52 72 52 162 c 0
 52 238 81 319 144 381 c 0
 193 425 260 456 326 456 c 0
 373 456 426 433 426 364 c 0
 426 304 379 261 317 234 c 0
 263 213 205 207 165 204 c 1
 160 180 154 141 154 108 c 0
 154 107 153 106 153 104 c 0
 153 54 180 42 206 42 c 0
 307 42 355 152 363 175 c 2
 368 189 l 1
 379 185 391 181 403 177 c 2
 418 172 l 1
 413 158 l 2
 382 69 309 -12 199 -12 c 0
321 519 m 1
 357 564 396 606 433 650 c 0
 452 672 469 680 488 680 c 0
 517 680 526 657 526 641 c 0
 526 610 500 593 490 587 c 2
 352 500 l 1
 348 497 l 1
 345 495 l 1
 321 519 l 1
EndSplineSet
Substitution2: "'smcp' Lowercase to Small Capitals lookup 0 subtable" eacute.sc
EndChar

StartChar: ecircumflex
Encoding: 234 234 170
Width: 446
GlyphClass: 2
Flags: MW
HStem: -12 54<193 254> 402 54<300 331> 667 20G<349 411 411 411>
VStem: 52 101<79 200> 349 77<363 367 367 382.5>
LayerCount: 2
Fore
SplineSet
199 293 m 0
 195 285 186 258 181 242 c 1
 213 244 249 250 284 264 c 0
 321 279 348 315 349 363 c 2
 349 367 l 2
 349 398 337 402 325 402 c 0
 275 402 219 342 199 293 c 0
199 -12 m 0
 107 -12 52 72 52 162 c 0
 52 238 81 319 144 381 c 0
 193 425 260 456 326 456 c 0
 373 456 426 433 426 364 c 0
 426 304 379 261 317 234 c 0
 263 213 205 207 165 204 c 1
 160 180 154 141 154 108 c 0
 154 107 153 106 153 104 c 0
 153 54 180 42 206 42 c 0
 307 42 355 152 363 175 c 2
 368 189 l 1
 379 185 391 181 403 177 c 2
 418 172 l 1
 413 158 l 2
 382 69 309 -12 199 -12 c 0
198 534 m 2
 272 573 317 635 344 680 c 1
 349 687 l 1
 411 687 l 1
 412 673 l 2
 416 628 429 570 476 533 c 2
 489 523 l 1
 481 515 474 506 466 498 c 2
 458 489 l 1
 447 495 l 2
 413 516 380 545 355 578 c 1
 309 543 263 515 217 494 c 2
 204 488 l 1
 200 497 195 506 191 515 c 2
 186 528 l 1
 198 534 l 2
EndSplineSet
Substitution2: "'smcp' Lowercase to Small Capitals lookup 0 subtable" ecircumflex.sc
EndChar

StartChar: edieresis
Encoding: 235 235 171
Width: 446
GlyphClass: 2
Flags: MW
HStem: -12 54<193 254> 402 54<300 331> 533 126<248.5 283 436.5 471>
VStem: 52 101<79 200> 203 126<579 613> 349 77<363 367 367 382.5> 391 126<579 613>
LayerCount: 2
Fore
SplineSet
199 293 m 0xfc
 195 285 186 258 181 242 c 1
 213 244 249 250 284 264 c 0
 321 279 348 315 349 363 c 2
 349 367 l 2
 349 398 337 402 325 402 c 0
 275 402 219 342 199 293 c 0xfc
199 -12 m 0
 107 -12 52 72 52 162 c 0
 52 238 81 319 144 381 c 0
 193 425 260 456 326 456 c 0
 373 456 426 433 426 364 c 0
 426 304 379 261 317 234 c 0
 263 213 205 207 165 204 c 1
 160 180 154 141 154 108 c 0
 154 107 153 106 153 104 c 0
 153 54 180 42 206 42 c 0
 307 42 355 152 363 175 c 2
 368 189 l 1
 379 185 391 181 403 177 c 2
 418 172 l 1
 413 158 l 2
 382 69 309 -12 199 -12 c 0
203 596 m 0
 203 630 231 659 266 659 c 0
 300 659 329 630 329 596 c 0
 329 562 300 533 266 533 c 0
 231 533 203 562 203 596 c 0
391 596 m 0xfa
 391 630 419 659 454 659 c 0
 488 659 517 630 517 596 c 0
 517 562 488 533 454 533 c 0
 419 533 391 562 391 596 c 0xfa
EndSplineSet
MultipleSubs2: "Multiple Substitution lookup 31 subtable" e uni0308
Substitution2: "'smcp' Lowercase to Small Capitals lookup 0 subtable" edieresis.sc
EndChar

StartChar: igrave
Encoding: 236 236 172
Width: 348
GlyphClass: 2
Flags: MW
HStem: -12 60<184.5 203.5 184.5 214.5> 396 60<179.5 198.5>
VStem: 104 75<64 91 64 106> 147 95<635 635 635 641> 203 75<338 380>
LayerCount: 2
Fore
SplineSet
39 243 m 1xe8
 44 258 l 2
 76 350 129 456 208 456 c 0
 249 456 278 416 278 354 c 2
 278 353 l 2
 278 323 268 276 257 252 c 2
 193 113 l 2
 189 104 179 76 179 64 c 0
 178 50 183 48 186 48 c 0
 221 48 269 146 290 202 c 2
 295 215 l 1
 306 212 317 208 328 205 c 2
 343 201 l 1
 338 186 l 2
 307 94 254 -12 175 -12 c 0
 135 -12 104 24 104 90 c 2
 104 91 l 2
 104 121 113 165 125 192 c 2
 189 331 l 2
 193 340 203 368 203 380 c 0
 204 395 200 396 197 396 c 0
 162 396 113 297 92 242 c 2
 87 229 l 1
 76 232 65 236 54 239 c 2
 39 243 l 1xe8
254 490 m 1
 223 523 194 559 164 593 c 0
 153 605 147 621 147 635 c 0
 147 647 155 681 193 681 c 0
 220 681 233 663 242 635 c 2xd0
 282 516 l 1
 284 512 l 1
 285 508 l 1
 282 506 l 2
 273 502 260 493 254 490 c 1
EndSplineSet
Substitution2: "'smcp' Lowercase to Small Capitals lookup 0 subtable" igrave.sc
EndChar

StartChar: iacute
Encoding: 237 237 173
Width: 348
GlyphClass: 2
Flags: MW
HStem: -12 60<184.5 203.5 184.5 214.5> 396 60<179.5 198.5>
VStem: 104 75<64 91 64 106> 203 75<338 380>
LayerCount: 2
Fore
SplineSet
39 243 m 1
 44 258 l 2
 76 350 129 456 208 456 c 0
 249 456 278 416 278 354 c 2
 278 353 l 2
 278 323 268 276 257 252 c 2
 193 113 l 2
 189 104 179 76 179 64 c 0
 178 50 183 48 186 48 c 0
 221 48 269 146 290 202 c 2
 295 215 l 1
 306 212 317 208 328 205 c 2
 343 201 l 1
 338 186 l 2
 307 94 254 -12 175 -12 c 0
 135 -12 104 24 104 90 c 2
 104 91 l 2
 104 121 113 165 125 192 c 2
 189 331 l 2
 193 340 203 368 203 380 c 0
 204 395 200 396 197 396 c 0
 162 396 113 297 92 242 c 2
 87 229 l 1
 76 232 65 236 54 239 c 2
 39 243 l 1
225 519 m 1
 261 564 300 606 337 650 c 0
 356 672 373 680 393 680 c 0
 422 680 431 657 431 641 c 0
 431 610 405 593 394 587 c 2
 256 500 l 1
 253 497 l 1
 249 495 l 1
 246 498 l 1
 244 501 l 1
 232 513 l 1
 228 516 l 1
 225 519 l 1
EndSplineSet
Substitution2: "'smcp' Lowercase to Small Capitals lookup 0 subtable" iacute.sc
EndChar

StartChar: icircumflex
Encoding: 238 238 174
Width: 348
GlyphClass: 2
Flags: MW
HStem: -12 60<184.5 203.5 184.5 214.5> 396 60<179.5 198.5> 667 20G<253 315 315 315>
VStem: 104 75<64 91 64 106> 203 75<338 380>
LayerCount: 2
Fore
SplineSet
39 243 m 1
 44 258 l 2
 76 350 129 456 208 456 c 0
 249 456 278 416 278 354 c 2
 278 353 l 2
 278 323 268 276 257 252 c 2
 193 113 l 2
 189 104 179 76 179 64 c 0
 178 50 183 48 186 48 c 0
 221 48 269 146 290 202 c 2
 295 215 l 1
 306 212 317 208 328 205 c 2
 343 201 l 1
 338 186 l 2
 307 94 254 -12 175 -12 c 0
 135 -12 104 24 104 90 c 2
 104 91 l 2
 104 121 113 165 125 192 c 2
 189 331 l 2
 193 340 203 368 203 380 c 0
 204 395 200 396 197 396 c 0
 162 396 113 297 92 242 c 2
 87 229 l 1
 76 232 65 236 54 239 c 2
 39 243 l 1
102 534 m 2
 136 552 201 596 253 687 c 1
 315 687 l 1
 316 673 l 2
 320 628 333 570 381 533 c 2
 394 523 l 1
 386 515 379 506 371 498 c 2
 362 489 l 1
 352 495 l 2
 317 516 284 545 259 578 c 1
 213 543 167 515 122 494 c 2
 108 488 l 1
 96 515 l 1
 90 528 l 1
 102 534 l 2
EndSplineSet
Substitution2: "'smcp' Lowercase to Small Capitals lookup 0 subtable" icircumflex.sc
EndChar

StartChar: idieresis
Encoding: 239 239 175
Width: 348
GlyphClass: 2
Flags: MW
HStem: -12 60<184.5 203.5 184.5 214.5> 396 60<179.5 198.5> 533 126<163.5 198 327.5 362>
VStem: 104 75<64 91 64 106> 118 126<579 613> 203 75<338 380> 282 126<579 613>
LayerCount: 2
Fore
SplineSet
39 243 m 1xf6
 44 258 l 2
 76 350 129 456 208 456 c 0
 249 456 278 416 278 354 c 2
 278 353 l 2
 278 323 268 276 257 252 c 2
 193 113 l 2
 189 104 179 76 179 64 c 0
 178 50 183 48 186 48 c 0
 221 48 269 146 290 202 c 2
 295 215 l 1
 306 212 317 208 328 205 c 2
 343 201 l 1
 338 186 l 2
 307 94 254 -12 175 -12 c 0
 135 -12 104 24 104 90 c 2
 104 91 l 2
 104 121 113 165 125 192 c 2
 189 331 l 2
 193 340 203 368 203 380 c 0
 204 395 200 396 197 396 c 0
 162 396 113 297 92 242 c 2
 87 229 l 1
 76 232 65 236 54 239 c 2
 39 243 l 1xf6
118 596 m 0xea
 118 630 146 659 181 659 c 0
 215 659 244 630 244 596 c 0
 244 562 215 533 181 533 c 0
 146 533 118 562 118 596 c 0xea
282 596 m 0
 282 630 310 659 345 659 c 0
 379 659 408 630 408 596 c 0
 408 562 379 533 345 533 c 0
 310 533 282 562 282 596 c 0
EndSplineSet
MultipleSubs2: "Multiple Substitution lookup 31 subtable" dotlessi uni0308
Substitution2: "'smcp' Lowercase to Small Capitals lookup 0 subtable" idieresis.sc
EndChar

StartChar: eth
Encoding: 240 240 176
Width: 522
GlyphClass: 2
Flags: MW
HStem: -12 54<185.5 246> 402 54<286 325> 682 20G<259 390 390 390>
VStem: 52 102<108 113 87 236> 357 135<331 413.5 354.5 357.5>
LayerCount: 2
Fore
SplineSet
201 42 m 0
 294 42 356 249 357 331 c 2
 357 336 l 2
 357 379 340 402 310 402 c 0
 262 402 228 354 203 301 c 0
 174 245 154 169 154 113 c 2
 154 108 l 2
 154 66 170 42 201 42 c 0
390 702 m 1
 407 679 427 640 439 613 c 1
 479 628 520 642 560 657 c 1
 565 643 l 1
 571 629 l 1
 575 616 l 1
 581 602 l 1
 541 588 501 573 461 558 c 1
 462 554 l 1
 480 508 492 436 492 391 c 0
 492 318 468 229 443 179 c 0
 390 73 297 -12 195 -12 c 0
 126 -12 52 49 52 167 c 0
 52 305 168 456 316 456 c 0
 343 456 368 446 385 434 c 1
 382 484 365 524 365 525 c 1
 254 484 l 1
 239 479 l 1
 227 507 l 1
 222 520 l 1
 216 534 l 1
 258 548 299 563 341 577 c 1
 323 616 302 648 279 678 c 2
 259 702 l 1
 390 702 l 1
EndSplineSet
EndChar

StartChar: ntilde
Encoding: 241 241 177
Width: 589
GlyphClass: 2
Flags: MW
HStem: -12 60<422 443.5 422 453> 0 21G<87 177 87 87> 426 30<416 438> 541 84<454 481 454 484.5> 581 84<307 334>
VStem: 193 87<347 384> 241 50<541 556 541 582> 336 80<57 99 57 99> 443 76<338 409> 497 50<624 665>
LayerCount: 2
Fore
SplineSet
276 311 m 1x6580
 310 365 368 456 446 456 c 0
 494 456 519 416 519 354 c 2
 519 353 l 2
 519 323 509 276 498 252 c 2
 432 113 l 2
 427 104 416 76 416 64 c 0
 416 50 420 48 424 48 c 0
 463 48 511 146 531 202 c 2
 536 215 l 1
 547 212 558 208 569 205 c 2
 584 201 l 1
 579 186 l 2
 548 94 495 -12 411 -12 c 0xa580
 369 -12 336 25 336 93 c 2
 336 99 l 2
 337 131 347 178 360 207 c 2
 427 356 l 2
 432 366 443 396 443 409 c 0
 444 425 439 426 437 426 c 0
 395 426 351 370 321 320 c 0
 264 227 219 132 202 77 c 2
 180 11 l 1
 177 0 l 1
 87 0 l 1
 116 102 147 203 177 305 c 0
 181 320 193 361 193 381 c 0
 193 387 192 391 192 392 c 1
 189 392 l 2
 162 392 120 322 93 242 c 2
 88 228 l 1
 74 233 l 1
 54 239 l 1
 39 243 l 1
 44 258 l 2
 64 315 114 456 210 456 c 0
 272 456 280 388 280 349 c 0
 280 345 279 342 279 339 c 0
 279 331 278 320 276 311 c 1x6580
241 556 m 2x3340
 241 608 271 665 336 665 c 0x2b40
 406 665 434 625 474 625 c 0x3340
 488 625 491 630 495 652 c 2
 497 665 l 1
 547 665 l 1x2b40
 547 650 l 2
 547 598 517 541 452 541 c 0x3340
 382 541 354 581 314 581 c 0x2b40
 300 581 297 576 293 554 c 2
 291 541 l 1
 241 541 l 1
 241 556 l 2x3340
EndSplineSet
Substitution2: "'smcp' Lowercase to Small Capitals lookup 0 subtable" ntilde.sc
EndChar

StartChar: ograve
Encoding: 242 242 178
Width: 493
GlyphClass: 2
Flags: MW
HStem: -12 54<187 250 187 276> 402 54<293.5 335>
VStem: 52 102<108 109 109 113 87.5 236> 243 95<635 635 635 641> 367 101<331 336 208.5 357.5>
LayerCount: 2
Fore
SplineSet
197 -12 m 0
 126 -12 52 49 52 167 c 0
 52 305 168 456 325 456 c 0
 396 456 468 395 468 277 c 0
 468 140 355 -12 197 -12 c 0
203 42 m 0
 297 42 365 231 367 331 c 2
 367 336 l 2
 367 379 351 402 319 402 c 0
 268 402 232 354 205 301 c 0
 174 245 154 169 154 113 c 2
 154 109 l 2
 154 66 171 42 203 42 c 0
350 490 m 1
 319 524 289 559 259 593 c 0
 249 605 243 621 243 635 c 0
 243 647 251 681 289 681 c 0
 316 681 329 663 338 635 c 2
 378 516 l 1
 380 512 l 1
 381 508 l 1
 377 506 l 2
 367 500 355 493 350 490 c 1
EndSplineSet
Substitution2: "'smcp' Lowercase to Small Capitals lookup 0 subtable" ograve.sc
EndChar

StartChar: oacute
Encoding: 243 243 179
Width: 493
GlyphClass: 2
Flags: MW
HStem: -12 54<187 250 187 276> 402 54<293.5 335>
VStem: 52 102<108 109 109 113 87.5 236> 367 101<331 336 208.5 357.5>
LayerCount: 2
Fore
SplineSet
197 -12 m 0
 126 -12 52 49 52 167 c 0
 52 305 168 456 325 456 c 0
 396 456 468 395 468 277 c 0
 468 140 355 -12 197 -12 c 0
203 42 m 0
 297 42 365 231 367 331 c 2
 367 336 l 2
 367 379 351 402 319 402 c 0
 268 402 232 354 205 301 c 0
 174 245 154 169 154 113 c 2
 154 109 l 2
 154 66 171 42 203 42 c 0
321 519 m 1
 357 564 396 606 433 650 c 0
 452 672 469 680 489 680 c 0
 518 680 527 657 527 641 c 0
 527 610 501 593 490 587 c 2
 352 500 l 1
 348 497 l 1
 345 495 l 1
 321 519 l 1
EndSplineSet
Substitution2: "'smcp' Lowercase to Small Capitals lookup 0 subtable" oacute.sc
EndChar

StartChar: ocircumflex
Encoding: 244 244 180
Width: 493
GlyphClass: 2
Flags: MW
HStem: -12 54<187 250 187 276> 402 54<293.5 335> 667 20G<349 411 411 411>
VStem: 52 102<108 109 109 113 87.5 236> 367 101<331 336 208.5 357.5>
LayerCount: 2
Fore
SplineSet
197 -12 m 0
 126 -12 52 49 52 167 c 0
 52 305 168 456 325 456 c 0
 396 456 468 395 468 277 c 0
 468 140 355 -12 197 -12 c 0
203 42 m 0
 297 42 365 231 367 331 c 2
 367 336 l 2
 367 379 351 402 319 402 c 0
 268 402 232 354 205 301 c 0
 174 245 154 169 154 113 c 2
 154 109 l 2
 154 66 171 42 203 42 c 0
198 534 m 2
 232 552 297 596 349 687 c 1
 411 687 l 1
 412 673 l 2
 416 628 429 570 477 533 c 2
 489 523 l 1
 481 515 474 506 466 498 c 2
 458 489 l 1
 448 495 l 2
 413 516 380 545 355 578 c 1
 309 543 263 515 218 494 c 2
 204 488 l 1
 192 515 l 1
 186 528 l 1
 198 534 l 2
EndSplineSet
Substitution2: "'smcp' Lowercase to Small Capitals lookup 0 subtable" ocircumflex.sc
EndChar

StartChar: otilde
Encoding: 245 245 181
Width: 493
GlyphClass: 2
Flags: MW
HStem: -12 54<187 250 187 276> 402 54<293.5 335> 541 84<422 449 422 452.5> 581 84<275.5 302.5>
VStem: 52 102<108 109 109 113 87.5 236> 209 50<541 556 541 582> 367 101<331 336 208.5 357.5> 465 50<624 665>
LayerCount: 2
Fore
SplineSet
197 -12 m 0xce
 126 -12 52 49 52 167 c 0
 52 305 168 456 325 456 c 0
 396 456 468 395 468 277 c 0
 468 140 355 -12 197 -12 c 0xce
203 42 m 0
 297 42 365 231 367 331 c 2
 367 336 l 2
 367 379 351 402 319 402 c 0
 268 402 232 354 205 301 c 0
 174 245 154 169 154 113 c 2
 154 109 l 2
 154 66 171 42 203 42 c 0
209 556 m 2
 209 608 239 665 304 665 c 0xdd
 374 665 402 625 442 625 c 0xed
 456 625 460 630 463 652 c 2
 465 665 l 1
 515 665 l 1xdd
 515 650 l 2
 515 598 485 541 420 541 c 0xed
 351 541 323 581 282 581 c 0xdd
 269 581 265 576 261 554 c 2
 259 541 l 1
 209 541 l 1xed
 209 556 l 2
EndSplineSet
MultipleSubs2: "Multiple Substitution lookup 31 subtable" o tildecomb
EndChar

StartChar: odieresis
Encoding: 246 246 182
Width: 493
GlyphClass: 2
Flags: MW
HStem: -12 54<187 250 187 276> 402 54<293.5 335> 533 126<248.5 283 436.5 471>
VStem: 52 102<108 109 109 113 87.5 236> 203 126<579 613> 367 101<331 336 208.5 357.5> 391 126<579 613>
LayerCount: 2
Fore
SplineSet
197 -12 m 0xfc
 126 -12 52 49 52 167 c 0
 52 305 168 456 325 456 c 0
 396 456 468 395 468 277 c 0
 468 140 355 -12 197 -12 c 0xfc
203 42 m 0
 297 42 365 231 367 331 c 2
 367 336 l 2
 367 379 351 402 319 402 c 0
 268 402 232 354 205 301 c 0
 174 245 154 169 154 113 c 2
 154 109 l 2
 154 66 171 42 203 42 c 0
203 596 m 0
 203 630 231 659 266 659 c 0
 300 659 329 630 329 596 c 0
 329 562 300 533 266 533 c 0
 231 533 203 562 203 596 c 0
391 596 m 0xfa
 391 630 419 659 454 659 c 0
 488 659 517 630 517 596 c 0
 517 562 488 533 454 533 c 0
 419 533 391 562 391 596 c 0xfa
EndSplineSet
MultipleSubs2: "Multiple Substitution lookup 31 subtable" o uni0308
Substitution2: "'smcp' Lowercase to Small Capitals lookup 0 subtable" odieresis.sc
EndChar

StartChar: divide
Encoding: 247 247 183
Width: 921
GlyphClass: 2
Flags: MW
HStem: -56 154<451 488.5> 229 70<59 894 59 894> 441 154<464.5 502>
VStem: 397 145<18 24 21 24> 411 145<515 521 518 521>
LayerCount: 2
Fore
SplineSet
59 229 m 1xe0
 59 299 l 1
 894 299 l 1
 894 229 l 1
 59 229 l 1xe0
468 -56 m 0
 427 -56 397 -24 397 18 c 2
 397 21 l 2
 398 65 430 98 472 98 c 0
 513 98 542 66 542 24 c 2
 542 21 l 2xf0
 541 -23 509 -56 468 -56 c 0
481 441 m 0
 441 441 411 473 411 515 c 2
 411 518 l 2
 412 562 444 595 485 595 c 0
 526 595 556 563 556 521 c 2
 556 518 l 2xe8
 555 474 523 441 481 441 c 0
EndSplineSet
EndChar

StartChar: oslash
Encoding: 248 248 184
Width: 494
GlyphClass: 2
Flags: MW
HStem: -12 54<198 256 198 281> 402 54<276.5 335.5>
AnchorPoint: "Anchor-2" 191 0 basechar 0
AnchorPoint: "Anchor-1" 320 528 basechar 0
AnchorPoint: "Anchor-0" 314 508 basechar 0
LayerCount: 2
Fore
SplineSet
365 297 m 1
 164 89 l 1
 170 58 185 42 211 42 c 0
 301 42 353 235 365 297 c 1
322 402 m 0
 231 402 176 206 166 140 c 1
 369 351 l 1
 363 386 349 402 322 402 c 0
24 17 m 1
 41 36 60 54 78 73 c 1
 65 100 58 130 58 168 c 0
 58 305 177 456 328 456 c 0
 363 456 399 441 425 411 c 1
 462 451 l 1
 472 463 l 1
 481 453 491 444 501 435 c 2
 512 425 l 1
 455 368 l 1
 467 341 474 313 474 276 c 0
 474 140 356 -12 206 -12 c 0
 170 -12 136 2 109 31 c 1
 94 15 79 -2 64 -18 c 1
 54 -9 45 -1 35 8 c 2
 24 17 l 1
EndSplineSet
EndChar

StartChar: ugrave
Encoding: 249 249 185
Width: 589
GlyphClass: 2
Flags: MW
HStem: -12 60<186 221.5 431 434 434 447.5> 396 60<180.5 201.5> 424 20G<447 536 536 536>
VStem: 104 77<56.5 91 56.5 106> 207 81<353 380> 272 96<635 635 635 641> 344 86<56 105 56 109>
LayerCount: 2
Fore
SplineSet
347 133 m 1xba
 342 124 266 -12 177 -12 c 0
 130 -12 104 28 104 90 c 2
 104 91 l 2
 104 121 114 168 125 192 c 2
 191 331 l 2
 196 340 207 368 207 380 c 0
 208 394 203 396 200 396 c 0
 161 396 113 298 92 242 c 2
 87 229 l 1
 76 232 65 236 54 239 c 2
 39 243 l 1
 44 258 l 2
 76 350 128 456 212 456 c 0xda
 255 456 288 422 288 358 c 2
 288 353 l 2
 287 323 277 279 264 252 c 2
 197 113 l 2
 192 104 181 76 181 64 c 0
 181 49 185 48 187 48 c 0
 280 48 406 326 422 373 c 2
 443 434 l 1
 447 444 l 1
 536 444 l 1
 506 341 476 239 446 136 c 0
 442 121 430 79 430 59 c 0
 430 53 431 49 431 48 c 1
 434 48 l 2
 461 48 503 114 530 189 c 2
 535 201 l 1
 549 198 l 1
 569 192 l 1
 584 188 l 1
 579 174 l 2
 559 121 509 -12 413 -12 c 0
 351 -12 344 56 344 95 c 2
 344 105 l 2
 344 113 346 124 347 133 c 1xba
379 490 m 0
 378 492 376 494 374 496 c 2
 289 593 l 2
 278 605 272 621 272 635 c 0
 272 647 280 681 318 681 c 0
 345 681 359 663 368 635 c 2x94
 408 516 l 1
 410 508 l 2
 408 506 396 498 379 490 c 0
EndSplineSet
Substitution2: "'smcp' Lowercase to Small Capitals lookup 0 subtable" ugrave.sc
EndChar

StartChar: uacute
Encoding: 250 250 186
Width: 589
GlyphClass: 2
Flags: MW
HStem: -12 60<186 221.5 431 434 434 447.5> 396 60<180.5 201.5> 424 20G<447 536 536 536>
VStem: 104 77<56.5 91 56.5 106> 207 81<353 380> 344 86<56 105 56 109>
LayerCount: 2
Fore
SplineSet
347 133 m 1xbc
 342 124 266 -12 177 -12 c 0
 130 -12 104 28 104 90 c 2
 104 91 l 2
 104 121 114 168 125 192 c 2
 191 331 l 2
 196 340 207 368 207 380 c 0
 208 394 203 396 200 396 c 0
 161 396 113 298 92 242 c 2
 87 229 l 1
 76 232 65 236 54 239 c 2
 39 243 l 1
 44 258 l 2
 76 350 128 456 212 456 c 0xdc
 255 456 288 422 288 358 c 2
 288 353 l 2
 287 323 277 279 264 252 c 2
 197 113 l 2
 192 104 181 76 181 64 c 0
 181 49 185 48 187 48 c 0
 280 48 406 326 422 373 c 2
 443 434 l 1
 447 444 l 1
 536 444 l 1
 506 341 476 239 446 136 c 0
 442 121 430 79 430 59 c 0
 430 53 431 49 431 48 c 1
 434 48 l 2
 461 48 503 114 530 189 c 2
 535 201 l 1
 549 198 l 1
 569 192 l 1
 584 188 l 1
 579 174 l 2
 559 121 509 -12 413 -12 c 0
 351 -12 344 56 344 95 c 2
 344 105 l 2
 344 113 346 124 347 133 c 1xbc
350 519 m 1
 386 564 425 606 462 650 c 0
 482 672 499 680 518 680 c 0
 547 680 556 657 556 641 c 0
 556 610 530 593 519 587 c 2
 381 500 l 1
 378 497 l 1
 375 495 l 1
 354 516 l 1
 350 519 l 1
EndSplineSet
Substitution2: "'smcp' Lowercase to Small Capitals lookup 0 subtable" uacute.sc
EndChar

StartChar: ucircumflex
Encoding: 251 251 187
Width: 589
GlyphClass: 2
Flags: MW
HStem: -12 60<186 221.5 431 434 434 447.5> 396 60<180.5 201.5> 424 20G<447 536 536 536> 667 20G<378 441 441 441>
VStem: 104 77<56.5 91 56.5 106> 207 81<353 380> 344 86<56 105 56 109>
LayerCount: 2
Fore
SplineSet
347 133 m 1xbe
 342 124 266 -12 177 -12 c 0
 130 -12 104 28 104 90 c 2
 104 91 l 2
 104 121 114 168 125 192 c 2
 191 331 l 2
 196 340 207 368 207 380 c 0
 208 394 203 396 200 396 c 0
 161 396 113 298 92 242 c 2
 87 229 l 1
 76 232 65 236 54 239 c 2
 39 243 l 1
 44 258 l 2
 76 350 128 456 212 456 c 0xde
 255 456 288 422 288 358 c 2
 288 353 l 2
 287 323 277 279 264 252 c 2
 197 113 l 2
 192 104 181 76 181 64 c 0
 181 49 185 48 187 48 c 0
 280 48 406 326 422 373 c 2
 443 434 l 1
 447 444 l 1
 536 444 l 1
 506 341 476 239 446 136 c 0
 442 121 430 79 430 59 c 0
 430 53 431 49 431 48 c 1
 434 48 l 2
 461 48 503 114 530 189 c 2
 535 201 l 1
 549 198 l 1
 569 192 l 1
 584 188 l 1
 579 174 l 2
 559 121 509 -12 413 -12 c 0
 351 -12 344 56 344 95 c 2
 344 105 l 2
 344 113 346 124 347 133 c 1xbe
228 534 m 2
 272 557 330 602 378 687 c 1
 441 687 l 1
 442 673 l 2
 446 628 458 570 506 533 c 2
 519 523 l 1
 511 515 504 506 496 498 c 2
 488 489 l 1
 477 495 l 2
 443 516 410 545 385 578 c 1
 339 543 292 515 247 494 c 2
 234 488 l 1
 230 497 225 506 221 515 c 2
 215 528 l 1
 228 534 l 2
EndSplineSet
Substitution2: "'smcp' Lowercase to Small Capitals lookup 0 subtable" ucircumflex.sc
EndChar

StartChar: udieresis
Encoding: 252 252 188
Width: 589
GlyphClass: 2
Flags: MW
HStem: -12 60<186 221.5 431 434 434 447.5> 396 60<180.5 201.5> 424 20G<447 536 536 536> 533 126<278 312.5 466 500.5>
VStem: 104 77<56.5 91 56.5 106> 207 81<353 380> 232 126<579 613> 344 86<56 105 56 109> 420 126<579 613>
LayerCount: 2
Fore
SplineSet
347 133 m 1xbd
 342 124 266 -12 177 -12 c 0
 130 -12 104 28 104 90 c 2
 104 91 l 2
 104 121 114 168 125 192 c 2
 191 331 l 2
 196 340 207 368 207 380 c 0
 208 394 203 396 200 396 c 0
 161 396 113 298 92 242 c 2
 87 229 l 1
 76 232 65 236 54 239 c 2
 39 243 l 1
 44 258 l 2
 76 350 128 456 212 456 c 0xdd
 255 456 288 422 288 358 c 2
 288 353 l 2
 287 323 277 279 264 252 c 2
 197 113 l 2
 192 104 181 76 181 64 c 0
 181 49 185 48 187 48 c 0
 280 48 406 326 422 373 c 2
 443 434 l 1
 447 444 l 1
 536 444 l 1
 506 341 476 239 446 136 c 0
 442 121 430 79 430 59 c 0
 430 53 431 49 431 48 c 1
 434 48 l 2
 461 48 503 114 530 189 c 2
 535 201 l 1
 549 198 l 1
 569 192 l 1
 584 188 l 1
 579 174 l 2
 559 121 509 -12 413 -12 c 0
 351 -12 344 56 344 95 c 2
 344 105 l 2
 344 113 346 124 347 133 c 1xbd
232 596 m 0x9a
 232 630 261 659 295 659 c 0
 330 659 358 630 358 596 c 0
 358 562 330 533 295 533 c 0
 261 533 232 562 232 596 c 0x9a
420 596 m 0x9880
 420 630 449 659 483 659 c 0
 518 659 546 630 546 596 c 0
 546 562 518 533 483 533 c 0
 449 533 420 562 420 596 c 0x9880
EndSplineSet
MultipleSubs2: "Multiple Substitution lookup 31 subtable" u uni0308
Substitution2: "'smcp' Lowercase to Small Capitals lookup 0 subtable" udieresis.sc
EndChar

StartChar: yacute
Encoding: 253 253 189
Width: 533
GlyphClass: 2
Flags: MW
HStem: -248 54<128.5 160 128.5 170> -12 54<190.5 220> 396 60<177.5 199> 424 20G<446 543 543 543>
VStem: 100 78<52.5 91 52.5 106> 205 81<352 387>
LayerCount: 2
Fore
SplineSet
331 85 m 1xdc
 313 62 254 -12 186 -12 c 0
 136 -12 100 26 100 90 c 2
 100 91 l 2
 100 121 110 168 122 192 c 2
 189 331 l 2
 194 340 205 368 205 380 c 0
 205 394 201 396 197 396 c 0
 158 396 109 298 89 242 c 2
 84 229 l 1
 73 232 61 236 50 239 c 2
 35 243 l 1
 40 258 l 2
 72 350 124 456 210 456 c 0xec
 253 456 286 422 286 358 c 2
 286 352 l 2
 285 323 275 279 262 252 c 2
 194 113 l 2
 190 104 179 76 178 63 c 2
 178 61 l 2
 178 44 183 42 198 42 c 0
 260 42 369 202 409 322 c 0
 421 363 434 403 446 444 c 1
 543 444 l 1
 502 300 462 155 421 11 c 0
 408 -35 371 -121 306 -181 c 0
 252 -233 190 -248 150 -248 c 0
 81 -248 27 -208 27 -135 c 0
 27 -87 63 -60 94 -60 c 0
 128 -60 142 -90 142 -114 c 2
 142 -115 l 2
 142 -138 130 -156 119 -167 c 0
 115 -170 115 -167 115 -177 c 2
 115 -179 l 2
 115 -187 117 -194 140 -194 c 0
 180 -194 205 -187 240 -146 c 0
 277 -101 297 -31 307 3 c 2
 331 85 l 1xdc
347 519 m 1
 383 564 422 606 459 650 c 0
 478 672 495 680 515 680 c 0
 544 680 553 657 553 641 c 0
 553 610 527 593 516 587 c 2
 378 500 l 1
 374 497 l 1
 371 495 l 1
 347 519 l 1
EndSplineSet
EndChar

StartChar: thorn
Encoding: 254 254 190
Width: 562
GlyphClass: 2
Flags: MW
HStem: -232 58<-57 28 28 33 136 257 -74 28> -12 54<275 318.5 275 353.5> 402 54<396.5 421.5> 658 54<186 288 169 400>
VStem: 440 101<348 353 353 353.5 228.5 367>
LayerCount: 2
Fore
SplineSet
541 313 m 0
 541 144 420 -12 287 -12 c 0
 253 -12 219 7 199 48 c 1
 137 -171 l 2
 136 -172 136 -174 136 -174 c 1
 275 -174 l 1
 270 -189 265 -205 261 -221 c 2
 257 -232 l 1
 -74 -232 l 1
 -69 -217 -64 -201 -60 -185 c 2
 -57 -174 l 1
 28 -174 l 2
 38 -174 38 -175 41 -163 c 2
 288 655 l 1
 288 658 l 1
 169 658 l 1
 175 676 l 1
 175 677 l 1
 183 701 l 1
 186 712 l 1
 400 712 l 1
 369 603 337 496 305 388 c 1
 335 423 373 456 420 456 c 0
 497 456 541 394 541 313 c 0
412 402 m 0
 326 402 242 191 240 113 c 2
 240 108 l 2
 240 60 261 42 289 42 c 0
 348 42 438 214 440 348 c 2
 440 353 l 2
 440 381 431 402 412 402 c 0
EndSplineSet
EndChar

StartChar: ydieresis
Encoding: 255 255 191
Width: 533
GlyphClass: 2
Flags: MW
HStem: -248 54<128.5 160 128.5 170> -12 54<190.5 220> 396 60<177.5 199> 424 20G<446 543 543 543> 533 126<274.5 309 462.5 497>
VStem: 100 78<52.5 91 52.5 106> 205 81<352 387> 229 126<579 613> 417 126<579 613>
LayerCount: 2
Fore
SplineSet
331 85 m 1xde80
 313 62 254 -12 186 -12 c 0
 136 -12 100 26 100 90 c 2
 100 91 l 2
 100 121 110 168 122 192 c 2
 189 331 l 2
 194 340 205 368 205 380 c 0
 205 394 201 396 197 396 c 0
 158 396 109 298 89 242 c 2
 84 229 l 1
 73 232 61 236 50 239 c 2
 35 243 l 1
 40 258 l 2
 72 350 124 456 210 456 c 0xee80
 253 456 286 422 286 358 c 2
 286 352 l 2
 285 323 275 279 262 252 c 2
 194 113 l 2
 190 104 179 76 178 63 c 2
 178 61 l 2
 178 44 183 42 198 42 c 0
 260 42 369 202 409 322 c 0
 421 363 434 403 446 444 c 1
 543 444 l 1
 502 300 462 155 421 11 c 0
 408 -35 371 -121 306 -181 c 0
 252 -233 190 -248 150 -248 c 0
 81 -248 27 -208 27 -135 c 0
 27 -87 63 -60 94 -60 c 0
 128 -60 142 -90 142 -114 c 2
 142 -115 l 2
 142 -138 130 -156 119 -167 c 0
 115 -170 115 -167 115 -177 c 2
 115 -179 l 2
 115 -187 117 -194 140 -194 c 0
 180 -194 205 -187 240 -146 c 0
 277 -101 297 -31 307 3 c 2
 331 85 l 1xde80
229 596 m 0xcd80
 229 630 257 659 292 659 c 0
 326 659 355 630 355 596 c 0
 355 562 326 533 292 533 c 0
 257 533 229 562 229 596 c 0xcd80
417 596 m 0
 417 630 445 659 480 659 c 0
 514 659 543 630 543 596 c 0
 543 562 514 533 480 533 c 0
 445 533 417 562 417 596 c 0
EndSplineSet
MultipleSubs2: "Multiple Substitution lookup 31 subtable" y uni0308
EndChar

StartChar: Amacron
Encoding: 256 256 192
Width: 728
GlyphClass: 2
Flags: MW
HStem: 0 32<-40 25 -24 25 25 51.5 219 274 367 442 442 449 609 669> 229 62<333 468 291 470> 692 20G<549 593 593 593> 807 70<403 755 421 737>
VStem: 464 112<61 66> 476 117
LayerCount: 2
Fore
SplineSet
-40 0 m 1xf8
 -24 32 l 1
 25 32 l 2
 78 32 117 66 136 97 c 2
 545 705 l 1
 549 712 l 1
 593 712 l 1
 593 697 l 1xf4
 576 61 l 2
 578 34 586 32 609 32 c 2
 684 32 l 1
 680 25 675 18 671 11 c 2
 669 0 l 1
 351 0 l 1
 367 32 l 1
 442 32 l 2
 456 32 463 33 464 66 c 2
 468 229 l 1
 291 229 l 1
 227 128 l 2
 214 107 196 71 195 53 c 2
 195 50 l 2
 195 39 198 32 219 32 c 2
 289 32 l 1
 285 24 l 1
 277 11 l 1
 274 0 l 1
 -40 0 l 1xf8
476 503 m 1
 333 291 l 1
 470 291 l 1
 476 503 l 1
403 807 m 1
 408 826 413 846 418 866 c 2
 421 877 l 1
 755 877 l 1
 750 858 745 838 740 818 c 2
 737 807 l 1
 403 807 l 1
EndSplineSet
MultipleSubs2: "Multiple Substitution lookup 31 subtable" A macroncmb
Substitution2: "'c2sc' Capitals to Small Capitals lookup 1 subtable" amacron.sc
EndChar

StartChar: amacron
Encoding: 257 257 193
Width: 559
GlyphClass: 2
Flags: MW
HStem: -12 54<162.5 194> -12 64<392 394 394 406.5 392 418> 402 54<268 313.5> 424 20G<407 498 498 498> 536 60<196 565 211 550>
VStem: 43 101<90.5 91 91 96 77 175.5>
LayerCount: 2
Fore
SplineSet
299 402 m 0xac
 237 402 146 228 144 96 c 2
 144 91 l 2
 144 63 153 42 172 42 c 0
 262 42 347 252 349 331 c 2
 349 336 l 2
 349 384 328 402 299 402 c 0xac
164 -12 m 0
 87 -12 43 50 43 131 c 0
 43 220 79 298 104 336 c 0
 150 405 225 456 301 456 c 0xac
 336 456 372 437 392 395 c 1
 404 433 l 1
 407 444 l 1
 498 444 l 1
 468 340 437 237 406 134 c 0
 402 120 391 82 391 63 c 0
 391 57 392 53 392 52 c 1
 394 52 l 2x5c
 419 52 461 109 492 202 c 2
 497 216 l 1
 510 211 l 1
 530 205 l 1
 545 201 l 1
 540 186 l 2
 513 106 462 -12 374 -12 c 0
 315 -12 305 47 303 82 c 1
 273 40 224 -12 164 -12 c 0
196 536 m 1
 197 542 l 2
 199 549 199 549 211 596 c 1
 565 596 l 1
 564 590 l 2
 562 583 562 583 550 536 c 1
 196 536 l 1
EndSplineSet
MultipleSubs2: "Multiple Substitution lookup 31 subtable" a macroncmb
Substitution2: "'smcp' Lowercase to Small Capitals lookup 0 subtable" amacron.sc
EndChar

StartChar: Abreve
Encoding: 258 258 194
Width: 728
GlyphClass: 2
Flags: MW
HStem: 0 32<-40 25 -24 25 25 51.5 219 274 367 442 442 449 609 669> 229 62<333 468 291 470> 692 20G<549 593 593 593> 747 76<549.5 602 549.5 619.5>
VStem: 440 63<847 908> 464 112<61 66> 476 117 715 57<931 931>
LayerCount: 2
Fore
SplineSet
-40 0 m 1xf5
 -24 32 l 1
 25 32 l 2
 78 32 117 66 136 97 c 2
 545 705 l 1
 549 712 l 1
 593 712 l 1
 593 697 l 1xf3
 576 61 l 2
 578 34 586 32 609 32 c 2
 684 32 l 1
 680 25 675 18 671 11 c 2
 669 0 l 1
 351 0 l 1
 367 32 l 1
 442 32 l 2
 456 32 463 33 464 66 c 2
 468 229 l 1
 291 229 l 1
 227 128 l 2
 214 107 196 71 195 53 c 2
 195 50 l 2
 195 39 198 32 219 32 c 2
 289 32 l 1
 285 24 l 1
 277 11 l 1
 274 0 l 1
 -40 0 l 1xf5
476 503 m 1
 333 291 l 1
 470 291 l 1
 476 503 l 1
577 823 m 0
 627 823 684 862 715 931 c 1
 772 931 l 1
 767 912 l 2
 750 847 675 747 564 747 c 0
 474 747 440 817 440 877 c 0
 440 892 442 907 445 920 c 2
 448 931 l 1
 503 931 l 1
 503 908 l 2xf9
 503 866 522 823 577 823 c 0
EndSplineSet
MultipleSubs2: "Multiple Substitution lookup 31 subtable" A brevecmb
EndChar

